SplineFontDB: 3.0
FontName: Jost-LightItalic
FullName: Jost* 300 Light Italic
FamilyName: Jost* Light
Weight: Light
Copyright: This typeface is licensed under the SIL open font license.
UComments: "2018-6-8: Created with FontForge (http://fontforge.org)"
Version: 003.400
ItalicAngle: -10
UnderlinePosition: -100
UnderlineWidth: 50
Ascent: 800
Descent: 200
InvalidEm: 0
LayerCount: 2
Layer: 0 0 "Back" 1
Layer: 1 0 "Fore" 0
XUID: [1021 69 1495626776 760146]
FSType: 0
OS2Version: 0
OS2_WeightWidthSlopeOnly: 0
OS2_UseTypoMetrics: 0
CreationTime: 1528480336
ModificationTime: 1562964914
PfmFamily: 17
TTFWeight: 300
TTFWidth: 5
LineGap: 100
VLineGap: 0
OS2TypoAscent: 825
OS2TypoAOffset: 0
OS2TypoDescent: -225
OS2TypoDOffset: 0
OS2TypoLinegap: 100
OS2WinAscent: 900
OS2WinAOffset: 0
OS2WinDescent: 300
OS2WinDOffset: 0
HheadAscent: 1030
HheadAOffset: 0
HheadDescent: -350
HheadDOffset: 0
OS2CapHeight: 700
OS2XHeight: 460
OS2Vendor: 'PfEd'
Lookup: 1 0 0 "alt a" { "alt a"  } ['ss01' ('DFLT' <'dflt' > 'latn' <'dflt' > ) ]
Lookup: 1 0 0 "Tabular Numbers lookup" { "Tabular Numbers lookup"  } ['tnum' ('DFLT' <'dflt' > 'grek' <'dflt' > 'latn' <'dflt' > ) ]
Lookup: 258 0 0 "Lets get our kern on" { "kernin like nobodys business" [150,0,4] } ['kern' ('DFLT' <'dflt' > 'latn' <'dflt' > ) ]
MarkAttachClasses: 1
DEI: 91125
KernClass2: 16 14 "kernin like nobodys business"
 43 slash seven V W Wcircumflex uni040E uni0423
 175 quotedbl quotesingle asterisk grave dieresis ordfeminine macron degree acute ordmasculine circumflex breve dotaccent ring tilde quoteleft quoteright quotedblleft quotedblright
 25 nine question F P uni0420
 131 A L backslash Agrave Aacute Acircumflex Atilde Adieresis Aring Amacron Abreve Aogonek Lacute uni013B Lslash uni0410 uni0414 uni041C
 58 three eight B C germandbls uni0411 uni0412 uni0417 uni0421
 29 K X Z uni0416 uni041A uni0425

StartChar: H
Encoding: 72 72 0
Width: 666
VWidth: 0
Flags: HMW
LayerCount: 2
Fore
SplineSet
143.835 354.9175 m 1
 152.2925 406.965 l 1
 611.4975 406.965 l 1
 602.7375 354.9175 l 1
 143.835 354.9175 l 1
623.71 699.5 m 1
 680.085 699.8025 l 1
 558.98 0 l 1
 505.025 0 l 1
 623.71 699.5 l 1
173.0425 699.5 m 1
 229.115 699.8025 l 1
 108.3125 0 l 1
 54.3575 0 l 1
 173.0425 699.5 l 1
EndSplineSet
EndChar

StartChar: O
Encoding: 79 79 1
Width: 760
VWidth: 0
Flags: HMW
LayerCount: 2
Fore
SplineSet
132.8375 350 m 0
 109.06 194.1875 190.6825 47.665 359.0875 46.8625 c 0
 529.4925 46.06 666.065 185.3975 693.04 350 c 0
 716.8175 505.8125 635.195 652.335 466.79 653.1375 c 0
 296.385 653.94 159.8125 514.6025 132.8375 350 c 0
74.6475 350 m 0
 105.1475 545.8025 269.895 709.71 471.8275 709.21 c 0
 671.155 708.71 778.5325 536.71 751.23 350 c 0
 720.73 154.1975 555.68 -9.71 353.7475 -9.21 c 0
 154.42 -8.71 47.345 163.29 74.6475 350 c 0
EndSplineSet
EndChar

StartChar: I
Encoding: 73 73 2
Width: 212
VWidth: 0
Flags: HMW
LayerCount: 2
Fore
SplineSet
171 700 m 1
 227 700 l 1
 106 0 l 1
 52 0 l 1
 171 700 l 1
EndSplineSet
EndChar

StartChar: C
Encoding: 67 67 3
Width: 664
VWidth: 0
Flags: HMW
LayerCount: 2
Fore
SplineSet
133.2325 350 m 0
 109.955 194.3725 191.72 48.955 353.495 47.455 c 0
 449.0075 46.6525 527.545 86.425 590.3225 142.055 c 1
 578.55 68.475 l 1
 513.155 19.6725 442.155 -9.5125 347.9575 -9.0125 c 0
 152.26 -8.0125 47.345 163.08 74.6475 350 c 0
 105.1475 547.0125 267.9325 708.21 466.5375 709.21 c 0
 555.34 709.71 617.945 683.92 673.8525 630.92 c 1
 661.975 557.5375 l 1
 615.6175 619.3775 547.7225 652.94 461 652.7425 c 0
 297.225 652.045 160.2075 516.01 133.2325 350 c 0
EndSplineSet
EndChar

StartChar: E
Encoding: 69 69 4
Width: 517
VWidth: 0
Flags: HMW
LayerCount: 2
Fore
SplineSet
82.8725 0 m 1
 91.33 52.35 l 1
 429.51 52.35 l 1
 420.75 0 l 1
 82.8725 0 l 1
193.6125 647.65 m 1
 202.07 700 l 1
 539.75 700 l 1
 530.99 647.65 l 1
 193.6125 647.65 l 1
143.835 357.6825 m 1
 152.7925 409.73 l 1
 470.9725 409.73 l 1
 462.2125 357.6825 l 1
 143.835 357.6825 l 1
173.0425 699.8025 m 1
 229.115 699.8025 l 1
 108.3125 0 l 1
 54.3575 0 l 1
 173.0425 699.8025 l 1
EndSplineSet
EndChar

StartChar: F
Encoding: 70 70 6
Width: 465
VWidth: 0
Flags: HMW
LayerCount: 2
Fore
SplineSet
193.81 647.255 m 1
 202.465 700 l 1
 501.25 700 l 1
 492.2925 647.255 l 1
 193.81 647.255 l 1
143.44 353.3375 m 1
 152.3975 405.385 l 1
 441.1825 405.385 l 1
 432.4225 353.035 l 1
 143.44 353.3375 l 1
173.0425 699.8025 m 1
 229.115 699.8025 l 1
 108.3125 0 l 1
 54.3575 0 l 1
 173.0425 699.8025 l 1
EndSplineSet
EndChar

StartChar: G
Encoding: 71 71 7
Width: 748
VWidth: 0
Flags: HMW
LayerCount: 2
Fore
SplineSet
421.5725 296.725 m 1
 430.9375 348.7725 l 1
 733.0075 348.575 l 1
 698.915 164.6175 560.81 -9.0125 354.735 -9.0125 c 0
 155.105 -9.0125 47.0425 161.7775 74.6475 350 c 0
 105.45 548.1175 270.58 709.105 473.315 709.21 c 0
 590.8275 709.5125 678.0875 653.5625 727.6925 558.42 c 1
 683.3125 523.6825 l 1
 645.535 604.5275 569.2025 653.44 467.975 653.1375 c 0
 298.885 653.0325 160.3125 517.51 132.8375 350 c 0
 109.06 192.8725 193.1825 47.3625 360.2725 47.06 c 0
 516.615 46.7575 620.89 166.5375 663.835 296.5275 c 1
 421.5725 296.725 l 1
EndSplineSet
EndChar

StartChar: T
Encoding: 84 84 8
Width: 437
VWidth: 0
Flags: HMW
LayerCount: 2
Fore
SplineSet
96.085 647.255 m 1
 105.45 700 l 1
 517.8175 700 l 1
 508.5575 647.255 l 1
 330.1075 647.255 l 1
 219.065 0 l 1
 163.9 0 l 1
 274.9425 647.255 l 1
 96.085 647.255 l 1
EndSplineSet
EndChar

StartChar: L
Encoding: 76 76 9
Width: 428
VWidth: 0
Flags: HMW
LayerCount: 2
Fore
SplineSet
173.6475 699.8025 m 1
 228.72 699.8025 l 1
 117.48 52.35 l 1
 397.91 52.35 l 1
 388.8475 0 l 1
 53.6475 0 l 1
 173.6475 699.8025 l 1
EndSplineSet
EndChar

StartChar: D
Encoding: 68 68 10
Width: 642
VWidth: 0
Flags: HMW
LayerCount: 2
Fore
SplineSet
173.0425 699.5 m 1
 229.115 699.8025 l 1
 108.3125 0 l 1
 54.3575 0 l 1
 173.0425 699.5 l 1
241.1075 0 m 2
 83.15 0 l 1
 93.015 55.77 l 1
 246.645 55.77 l 2
 420.5375 55.77 550.03 180.2925 578.005 350 c 0
 603.2825 511.22 521.635 644.23 350.7425 644.23 c 2
 193.0875 644.23 l 1
 202.9525 700 l 1
 356.28 700 l 2
 556.675 700 661.67 540.6175 633.17 350 c 0
 601.9725 150.79 445.1075 0 241.1075 0 c 2
EndSplineSet
EndChar

StartChar: Q
Encoding: 81 81 11
Width: 758
VWidth: 0
Flags: HMW
LayerCount: 2
Fore
SplineSet
132.8375 350 m 0
 109.06 194.1875 190.6825 47.665 359.0875 46.8625 c 0
 529.4925 46.06 666.065 185.3975 693.04 350 c 0
 716.8175 505.8125 635.195 652.335 466.79 653.1375 c 0
 296.385 653.94 159.8125 514.6025 132.8375 350 c 0
74.6475 350 m 0
 105.1475 545.8025 270.1975 709.71 472.13 709.21 c 0
 671.4575 708.71 778.5325 536.71 751.23 350 c 0
 720.73 154.1975 555.68 -9.71 353.7475 -9.21 c 0
 154.42 -8.71 47.345 163.29 74.6475 350 c 0
400.8075 300 m 1
 469.35 300 l 1
 717.4475 0 l 1
 648.7075 0 l 1
 400.8075 300 l 1
EndSplineSet
EndChar

StartChar: A
Encoding: 65 65 12
Width: 617
VWidth: 0
Flags: HMW
LayerCount: 2
Fore
SplineSet
148.735 234.49 m 1
 174.435 286.5375 l 1
 488.9825 286.5375 l 1
 498.07 234.49 l 1
 148.735 234.49 l 1
385.8275 599.67 m 1
 196.665 269.135 l 1
 189.72 256.665 l 1
 42.3625 0 l 1
 -20.4575 0 l 1
 405.86 728.0075 l 1
 581.3375 0 l 1
 521.24 0 l 1
 463.8325 253.035 l 1
 461.215 266.32 l 1
 385.8275 599.67 l 1
EndSplineSet
EndChar

StartChar: R
Encoding: 82 82 13
Width: 507
VWidth: 0
Flags: HMW
LayerCount: 2
Fore
SplineSet
226.3525 333.94 m 1
 286.2525 333.94 l 1
 461.0625 0 l 1
 396.0325 0 l 1
 226.3525 333.94 l 1
173.0425 699.8025 m 1
 229.115 699.8025 l 1
 108.3125 0 l 1
 54.3575 0 l 1
 173.0425 699.8025 l 1
192.81 650.28 m 1
 201.7675 700 l 1
 327.6025 700 l 2
 453.4175 700 545.01 620.715 525.615 496.4125 c 0
 505.72 369.8075 392.405 294.22 261.9975 293.43 c 1
 131.835 293.43 l 1
 140.7925 342.755 l 1
 266.43 342.755 l 1
 368.44 343.545 453.6725 398.7975 470.6475 496.715 c 0
 486.82 592.5275 420.6925 649.2925 322.9725 650.28 c 1
 192.81 650.28 l 1
EndSplineSet
EndChar

StartChar: V
Encoding: 86 86 14
Width: 617
VWidth: 0
Flags: HMW
LayerCount: 2
Fore
SplineSet
305.75 101.515 m 1
 638.135 699.5 l 1
 701.0475 699.5 l 1
 287.335 -28.0075 l 1
 99.7525 700 l 1
 159.4425 700 l 1
 305.75 101.515 l 1
EndSplineSet
EndChar

StartChar: M
Encoding: 77 77 15
Width: 793
VWidth: 0
Flags: HMW
LayerCount: 2
Fore
SplineSet
226.8025 552.29 m 1
 73.67 0 l 1
 18.0975 0 l 1
 222.265 727.4025 l 1
 401.13 190.79 l 1
 767.475 729.7175 l 1
 719.8025 0 l 1
 665.1375 0 l 1
 702.3525 549.475 l 1
 383.82 79.9975 l 1
 226.8025 552.29 l 1
EndSplineSet
EndChar

StartChar: W
Encoding: 87 87 16
Width: 944
VWidth: 0
Flags: HMW
LayerCount: 2
Fore
SplineSet
677.44 117.855 m 1
 962.1275 699.5 l 1
 1024.25 699.5 l 1
 658.735 -28.5075 l 1
 544.87 573.9525 l 1
 243.5325 -28.5075 l 1
 104.2525 700 l 1
 164.2575 700 l 1
 267.985 117.855 l 1
 568.1125 728.5075 l 1
 677.44 117.855 l 1
EndSplineSet
EndChar

StartChar: N
Encoding: 78 78 17
Width: 709
VWidth: 0
Flags: HMW
LayerCount: 2
Fore
SplineSet
674.3225 699.8025 m 1
 729.4875 699.8025 l 1
 604.6725 -26.495 l 1
 193.875 583.3175 l 1
 93.21 0 l 1
 37.7425 0 l 1
 162.5575 726.495 l 1
 573.46 114.7075 l 1
 674.3225 699.8025 l 1
EndSplineSet
EndChar

StartChar: a
Encoding: 97 97 18
Width: 541
VWidth: 0
Flags: HMW
LayerCount: 2
Fore
SplineSet
473.165 459.5 m 1
 523.095 459.8025 l 1
 443.095 0 l 1
 395.1775 0 l 1
 473.165 459.5 l 1
49.1475 230 m 0
 68.6475 363.92 175.895 471 304.5125 469.8025 c 0
 428.4075 468.605 471.105 346.785 455.3025 230 c 0
 437.105 105.5175 350.025 -9 226.5375 -9.5 c 0
 98.2225 -10 31.5425 102.1725 49.1475 230 c 0
101.4975 230 m 0
 86.8125 128.8475 136.17 39.43 237.9025 39.825 c 0
 331.53 40.22 415.665 130.39 431.5475 230 c 0
 444.7325 322.925 399.14 418.175 306.815 420.175 c 0
 204.675 422.3725 118.0775 336.64 101.4975 230 c 0
EndSplineSet
Substitution2: "alt a" a.alt
EndChar

StartChar: X
Encoding: 88 88 19
Width: 517
VWidth: 0
Flags: HMW
LayerCount: 2
Fore
SplineSet
515.19 699.3025 m 1
 581.825 699.3025 l 1
 328.01 365.5925 l 1
 486.51 0 l 1
 423.4 0 l 1
 293.89 316.78 l 1
 61.1775 0 l 1
 -5.4575 0 l 1
 273.9625 368.4075 l 1
 128.8575 700 l 1
 191.9675 700 l 1
 307.78 416.825 l 1
 515.19 699.3025 l 1
EndSplineSet
EndChar

StartChar: K
Encoding: 75 75 20
Width: 505
VWidth: 0
Flags: HMW
LayerCount: 2
Fore
SplineSet
171.265 699.8025 m 1
 227.14 699.8025 l 1
 106.3375 0 l 1
 52.3825 0 l 1
 171.265 699.8025 l 1
505.7425 699.3025 m 1
 576.7975 699.3025 l 1
 219.3475 370.5925 l 1
 468.785 0 l 1
 402.965 0 l 1
 153.8175 372.5 l 1
 505.7425 699.3025 l 1
EndSplineSet
EndChar

StartChar: Y
Encoding: 89 89 21
Width: 523
VWidth: 0
Flags: HMW
LayerCount: 2
Fore
SplineSet
545.7025 699.3025 m 1
 609.22 699.3025 l 1
 309.165 286.465 l 1
 259.8375 0 l 1
 204.6725 0 l 1
 255.4075 289.1875 l 1
 101.555 700 l 1
 161.5475 700 l 1
 289.1325 339.58 l 1
 545.7025 699.3025 l 1
EndSplineSet
EndChar

StartChar: B
Encoding: 66 66 22
Width: 516
VWidth: 0
Flags: HMW
LayerCount: 2
Fore
SplineSet
160.5275 376.6225 m 1
 165.46 407.6125 l 1
 270.1025 407.915 l 1
 349.3475 409.0075 422.4875 448.68 435.9625 527.9 c 0
 449.135 603.3425 395.2475 649.675 314.9475 649.9775 c 2
 219.7625 650.28 l 1
 116.875 49.72 l 1
 218.2325 50.0225 l 2
 320.045 50.325 402.2225 106.5525 418.8025 206.05 c 0
 433.79 298.4125 364.78 358.8925 274.565 359.195 c 2
 157.305 359.4975 l 1
 162.54 390.4875 l 1
 280.6325 390.79 l 2
 392.375 389.8825 490.5725 324.2725 473.06 202.7225 c 0
 453.7575 70.5125 344.51 0 213.905 0 c 2
 53.45 0 l 1
 173.6475 700 l 1
 319.5775 700 l 2
 431.8 700 509.035 639.1975 491.43 530.425 c 0
 474.6275 428.135 380.695 378.32 271.7375 376.6225 c 1
 160.5275 376.6225 l 1
EndSplineSet
EndChar

StartChar: Z
Encoding: 90 90 23
Width: 524
VWidth: 0
Flags: HMW
LayerCount: 2
Fore
SplineSet
118.4125 647.255 m 1
 127.975 700 l 1
 601.4325 699.6975 l 1
 91.625 53.245 l 1
 474.84 52.9425 l 1
 465.2775 0 l 1
 -12.4325 0 l 1
 497.875 646.9525 l 1
 118.4125 647.255 l 1
EndSplineSet
EndChar

StartChar: o
Encoding: 111 111 24
Width: 532
VWidth: 0
Flags: HMW
LayerCount: 2
Fore
SplineSet
55.45 230 m 0
 73.6475 362.105 185.8575 469.6975 320.265 469.5 c 0
 453.1725 469.3025 531.8025 357.21 514.8025 230 c 0
 496.605 97.895 384.395 -9.6975 249.9875 -9.5 c 0
 117.08 -9.3025 38.45 102.79 55.45 230 c 0
107.4975 230 m 0
 93.4175 130.9775 149.7925 40.325 253.815 39.825 c 0
 359.035 39.325 447.175 126.0825 462.755 230 c 0
 476.835 329.0225 420.1575 419.675 316.135 420.175 c 0
 210.915 420.675 123.0775 333.9175 107.4975 230 c 0
EndSplineSet
EndChar

StartChar: J
Encoding: 74 74 25
Width: 215
VWidth: 0
Flags: HMW
LayerCount: 2
Fore
SplineSet
-138.07 -125.83 m 1
 -119.7125 -149.2125 -93.2625 -167.465 -57.01 -167.0575 c 0
 2.135 -166.44 37.95 -119.8925 47.5175 -50 c 2
 176.0175 699.8025 l 1
 228.46 699.8025 l 1
 98.7625 -60.3025 l 2
 83.5525 -155.42 29.4275 -220.6975 -64.98 -219.5 c 0
 -112.7825 -219 -152.085 -192.92 -172.795 -167.42 c 1
 -138.07 -125.83 l 1
EndSplineSet
EndChar

StartChar: t
Encoding: 116 116 26
Width: 213
VWidth: 0
Flags: HMW
LayerCount: 2
Fore
SplineSet
61.6475 460 m 1
 258.8925 460 l 1
 249.935 410.675 l 1
 52.3875 410.675 l 1
 61.6475 460 l 1
159.5425 619.5 m 1
 212.195 619.8025 l 1
 104.8925 0 l 1
 54.3575 0 l 1
 159.5425 619.5 l 1
EndSplineSet
EndChar

StartChar: d
Encoding: 100 100 27
Width: 541
VWidth: 0
Flags: HMW
LayerCount: 2
Fore
SplineSet
524.64 779.5 m 1
 577.595 779.8025 l 1
 442.7925 0 l 1
 392.1525 0 l 1
 524.64 779.5 l 1
49.1475 230 m 0
 68.6475 363.92 175.895 471 304.5125 469.8025 c 0
 428.4075 468.605 471.105 346.785 455.3025 230 c 0
 437.105 105.5175 350.025 -9 226.5375 -9.5 c 0
 98.2225 -10 31.5425 102.1725 49.1475 230 c 0
101.4975 230 m 0
 86.8125 128.8475 136.17 39.43 237.9025 39.825 c 0
 331.53 40.22 415.665 130.39 431.5475 230 c 0
 444.7325 322.925 399.14 418.175 306.815 420.175 c 0
 204.675 422.3725 118.0775 336.64 101.4975 230 c 0
EndSplineSet
EndChar

StartChar: l
Encoding: 108 108 28
Width: 203
VWidth: 0
Flags: HMW
LayerCount: 2
Fore
SplineSet
182.0425 779.5 m 1
 234.695 779.8025 l 1
 99.8925 0 l 1
 49.3575 0 l 1
 182.0425 779.5 l 1
EndSplineSet
EndChar

StartChar: i
Encoding: 105 105 29
Width: 225
VWidth: 0
Flags: HMW
LayerCount: 2
Fore
SplineSet
162.8075 667.775 m 0
 162.8075 688.295 179.0125 704.6975 199.73 704.6975 c 0
 220.4475 704.6975 236.6525 688.295 236.6525 667.775 c 0
 236.6525 647.255 220.4475 630.8525 199.73 630.8525 c 0
 179.0125 630.8525 162.8075 647.255 162.8075 667.775 c 0
137.9875 459.5 m 1
 190.9425 459.5 l 1
 111.85 0 l 1
 60.105 0 l 1
 137.9875 459.5 l 1
EndSplineSet
EndChar

StartChar: r
Encoding: 114 114 30
Width: 311
VWidth: 0
Flags: HMW
LayerCount: 2
Fore
SplineSet
179.8925 459.8025 m 1
 100.195 0 l 1
 48.1475 0 l 1
 128.1475 459.8025 l 1
 179.8925 459.8025 l 1
318.47 399.1625 m 1
 300.9575 411.4775 285.47 419.9775 264.05 420.4775 c 0
 193.3725 422.07 160.5775 347.375 147.9975 280.8025 c 1
 123.94 280.8025 l 1
 140.045 372.71 196.2375 470.2775 280.885 469.5 c 0
 309.04 469.605 331.8675 458.8025 352.8 440.845 c 1
 318.47 399.1625 l 1
EndSplineSet
EndChar

StartChar: c
Encoding: 99 99 31
Width: 466
VWidth: 0
Flags: HMW
LayerCount: 2
Fore
SplineSet
102.8 230 m 0
 88.72 130.675 145.2925 40.93 249.315 39.825 c 0
 319.235 39.22 380.365 75.2575 415.865 113.24 c 1
 406.605 48.105 l 1
 367.7775 15.0675 309.265 -9.5 245.185 -9.5 c 0
 112.2775 -9.1975 33.6475 102.79 50.6475 230 c 0
 68.845 362.4075 180.555 469.395 315.265 469.5 c 0
 375.6475 469.5 429.5675 446.735 462 411.395 c 1
 452.4375 345.9575 l 1
 429.0675 388.3475 376.8575 420.4775 311.4375 420.175 c 0
 205.915 419.8725 118.5775 334.5225 102.8 230 c 0
EndSplineSet
EndChar

StartChar: b
Encoding: 98 98 32
Width: 541
VWidth: 0
Flags: HMW
LayerCount: 2
Fore
SplineSet
229.695 779.8025 m 1
 95.4975 0 l 1
 43.6475 0 l 1
 177.6475 779.8025 l 1
 229.695 779.8025 l 1
516.99 230 m 0
 497.49 96.08 390.545 -11 261.9275 -9.8025 c 0
 138.0325 -8.605 95.335 113.215 111.1375 230 c 0
 129.335 354.4825 216.2175 469 339.705 469.5 c 0
 468.02 470 534.595 357.8275 516.99 230 c 0
464.9425 230 m 0
 479.6275 331.1525 430.0725 420.57 328.34 420.175 c 0
 234.7125 419.78 150.775 329.61 134.8925 230 c 0
 121.7075 137.075 167.1025 41.825 259.4275 39.825 c 0
 361.5675 37.6275 448.3625 123.36 464.9425 230 c 0
EndSplineSet
EndChar

StartChar: p
Encoding: 112 112 33
Width: 541
VWidth: 0
Flags: HMW
LayerCount: 2
Fore
SplineSet
58.6025 -219.5 m 1
 5.6475 -219.8025 l 1
 123.45 459.8025 l 1
 173.985 459.5 l 1
 58.6025 -219.5 l 1
516.99 230 m 0
 497.49 96.08 390.545 -11 261.9275 -9.8025 c 0
 138.0325 -8.605 95.335 113.215 111.1375 230 c 0
 129.335 354.4825 216.2175 469 339.705 469.5 c 0
 468.02 470 534.595 357.8275 516.99 230 c 0
464.9425 230 m 0
 479.6275 331.1525 430.0725 420.57 328.34 420.175 c 0
 234.7125 419.78 150.775 329.61 134.8925 230 c 0
 121.7075 137.075 167.1025 41.825 259.4275 39.825 c 0
 361.5675 37.6275 448.3625 123.36 464.9425 230 c 0
EndSplineSet
EndChar

StartChar: q
Encoding: 113 113 34
Width: 541
VWidth: 0
Flags: HMW
LayerCount: 2
Fore
SplineSet
353.745 -219.8025 m 1
 470.745 459.8025 l 1
 522.7925 459.8025 l 1
 405.595 -219.8025 l 1
 353.745 -219.8025 l 1
49.1475 230 m 0
 68.6475 363.92 175.895 471 304.5125 469.8025 c 0
 428.4075 468.605 471.105 346.785 455.3025 230 c 0
 437.105 105.5175 350.025 -9 226.5375 -9.5 c 0
 98.2225 -10 31.5425 102.1725 49.1475 230 c 0
101.4975 230 m 0
 86.8125 128.8475 136.17 39.43 237.9025 39.825 c 0
 331.53 40.22 415.665 130.39 431.5475 230 c 0
 444.7325 322.925 399.14 418.175 306.815 420.175 c 0
 204.675 422.3725 118.0775 336.64 101.4975 230 c 0
EndSplineSet
EndChar

StartChar: h
Encoding: 104 104 35
Width: 489
VWidth: 0
Flags: HMW
LayerCount: 2
Fore
SplineSet
234.695 779.8025 m 1
 100.195 0 l 1
 48.45 0 l 1
 182.6475 779.8025 l 1
 234.695 779.8025 l 1
386.5175 295.8 m 2
 394.8075 362.25 378.925 418.8725 304.8275 420.175 c 0
 224.0575 421.4775 165.775 352.3625 147.9975 281 c 1
 129.99 281 l 1
 149.5825 379.3025 219.86 469.6975 321.0575 469.5 c 0
 417.8975 469.3025 449.9725 393.8575 438.565 301.85 c 1
 386.195 0 l 1
 335.555 0 l 1
 386.5175 295.8 l 2
EndSplineSet
EndChar

StartChar: n
Encoding: 110 110 36
Width: 489
VWidth: 0
Flags: HMW
LayerCount: 2
Fore
SplineSet
179.8925 459.8025 m 1
 100.195 0 l 1
 48.1475 0 l 1
 128.1475 459.8025 l 1
 179.8925 459.8025 l 1
386.5175 295.8 m 2
 394.8075 362.25 378.925 418.8725 304.8275 420.175 c 0
 224.0575 421.4775 165.775 352.3625 147.9975 281 c 1
 129.99 281 l 1
 149.5825 379.3025 219.86 469.6975 321.0575 469.5 c 0
 417.8975 469.3025 449.9725 393.8575 438.565 301.85 c 1
 386.195 0 l 1
 335.555 0 l 1
 386.5175 295.8 l 2
EndSplineSet
EndChar

StartChar: m
Encoding: 109 109 37
Width: 721
VWidth: 0
Flags: HMW
LayerCount: 2
Fore
SplineSet
359.315 295.8 m 2
 366.71 358.67 359.84 418.3725 291.3775 419.8725 c 0
 216.94 421.8725 164.1825 350.48 147.9975 281 c 1
 129.99 281 l 1
 148.2925 376.7225 212.545 469.9875 307.6075 469.5 c 0
 399.3125 469.21 421.875 390.475 411.3625 301.85 c 2
 359.19 0 l 1
 308.3525 0 l 1
 359.315 295.8 l 2
179.8925 459.8025 m 1
 100.195 0 l 1
 48.1475 0 l 1
 128.1475 459.8025 l 1
 179.8925 459.8025 l 1
670.66 301.85 m 2
 618.79 0 l 1
 566.7425 0 l 1
 618.6125 295.8 l 2
 626.31 358.67 618.835 418.3725 550.3725 419.8725 c 0
 475.7375 421.8725 423.48 350.2825 407.295 281 c 1
 379.725 281 l 1
 398.83 377.525 470.935 470.29 566.905 469.5 c 0
 658.61 468.9075 681.1725 390.475 670.66 301.85 c 2
EndSplineSet
EndChar

StartChar: k
Encoding: 107 107 38
Width: 400
VWidth: 0
Flags: HMW
LayerCount: 2
Fore
SplineSet
177.0425 779.5 m 1
 229.9975 779.8025 l 1
 95.195 0 l 1
 44.555 0 l 1
 177.0425 779.5 l 1
363.45 459.3025 m 1
 431.7825 459.3025 l 1
 185.0625 266.1725 l 1
 369.0725 0 l 1
 306.9625 0 l 1
 123.255 271.71 l 1
 363.45 459.3025 l 1
EndSplineSet
EndChar

StartChar: u
Encoding: 117 117 39
Width: 489
VWidth: 0
Flags: HMW
LayerCount: 2
Fore
SplineSet
334.6475 0 m 1
 414.1475 459.8025 l 1
 466.195 459.8025 l 1
 386.695 0 l 1
 334.6475 0 l 1
128.9175 168.15 m 2
 120.43 99.725 134.93 40.93 209.7125 39.825 c 0
 290.4825 38.5225 348.5675 107.44 366.345 179 c 1
 384.55 179 l 1
 364.9575 80.6975 294.4825 -9.895 193.285 -9.5 c 0
 95.26 -9.3025 64.9625 67.92 76.5675 162.1 c 1
 128.45 459.8025 l 1
 178.985 459.5 l 1
 128.9175 168.15 l 2
EndSplineSet
EndChar

StartChar: e
Encoding: 101 101 40
Width: 494
VWidth: 0
Flags: HMW
LayerCount: 2
Fore
SplineSet
86.65 217.11 m 1
 93.2925 262.2 l 1
 423.9725 262.2 l 1
 435.28 344.105 393.615 422.0025 302 423.0025 c 0
 206.6625 424.0025 128.72 346.11 111.7325 249.335 c 1
 107.695 230.9875 l 1
 95.8925 131.81 136.027895 40.5415943 237.4025 39.825 c 0
 316.726315 39.2453443 369.1775 85.62 410.0475 134.28 c 1
 449.6125 105.6975 l 1
 398.0625 43.9375 334.7262525 -10.2438978 227.525 -9.5 c 0
 102.0925 -8.395 40.845 108.265 55.6475 230.79 c 0
 58.74 251.5425 63.6225 271.295 70.795 290.455 c 0
 105.5725 390.45 194.635 470 305.3275 469.5 c 0
 428.94 468.8025 491.6 363.29 477.6 241.9 c 0
 476.4025 233.7025 474.5075 225.11 472.81 217.11 c 1
 86.65 217.11 l 1
EndSplineSet
EndChar

StartChar: g
Encoding: 103 103 41
Width: 541
VWidth: 0
Flags: HMW
LayerCount: 2
Fore
SplineSet
16.215 -30 m 1
 67.96 -30.3025 l 1
 60.3925 -111.825 102.47579725 -179.284505 196.44 -180.175 c 0
 292.8575 -181.175 377.1425425 -102.40230375 393.245 10 c 2
 470.745 459.8025 l 1
 522.7925 459.8025 l 1
 445.7925 10 l 2
 424.9819825 -130.2582225 325.3725 -229.395 195.94 -229.5 c 0
 72.1796975 -229.549945 4.5175 -142.445 16.215 -30 c 1
49.1475 230 m 0
 68.6475 363.92 175.895 471 304.5125 469.8025 c 0
 428.4075 468.605 471.105 346.785 455.3025 230 c 0
 437.105 105.5175 350.025 -9 226.5375 -9.5 c 0
 98.2225 -10 31.5425 102.1725 49.1475 230 c 0
101.4975 230 m 0
 86.615 128.65 136.17 39.6275 237.9025 39.825 c 0
 332.1225 40.0225 416.06 131.18 431.745 231.975 c 0
 444.7325 322.7275 398.745 418.175 306.815 420.175 c 0
 204.675 422.3725 118.0775 336.64 101.4975 230 c 0
EndSplineSet
EndChar

StartChar: f
Encoding: 102 102 42
Width: 273
VWidth: 0
Flags: HMW
LayerCount: 2
Fore
SplineSet
93.6475 460 m 1
 304.4275 460 l 1
 295.6675 410.675 l 1
 84.69 410.675 l 1
 93.6475 460 l 1
356.0725 703.6575 m 1
 343.19 722.54 326.82 736.57 303.5 736.965 c 0
 251.7925 737.4525 226.9475 683.9175 218.67 631.85 c 2
 110.195 0 l 1
 58.1475 0 l 1
 167.03 638.2025 l 2
 180.0425 719.84 227.025 790.9075 311.865 788.71 c 0
 349.97 788.0125 373.785 767.34 390.7975 745.1425 c 1
 356.0725 703.6575 l 1
EndSplineSet
EndChar

StartChar: s
Encoding: 115 115 43
Width: 391
VWidth: 0
Flags: HMW
LayerCount: 2
Fore
SplineSet
76.6875 155.7725 m 1
 92.88 98.3725 124.3375 40.43 189.625 39.6275 c 0
 240.6725 39.1275 288.165 70.4775 295.0475 119.7225 c 0
 303.14 174.24 252.56 199.005 202.4375 218.9 c 0
 140.0675 244.1225 83.3225175 273.2367375 93.6225 352.6475 c 0
 103.8360325 428.17706 173.1725 468.9075 248.2225 468.71 c 0
 317.9075 468.5125 362.9275 428.155 384.595 374.655 c 1
 340.11 349.5725 l 1
 323.0725 387.67 292.85 420.095 244.395 420.595 c 0
 198.0325 421.0983575 150.935 397.8125 144.1575 352.6475 c 0
 135.38 295.995 194.535 277.335 243.725 258.15 c 0
 304.225 233.415 357.6075 193.5625 348.91 123.05 c 0
 338.805 38.5675 270.57 -10.105 185.1925 -9.8025 c 0
 96.1621975 -9.538698825 51.1175 58.005 32.8075 131.9 c 1
 76.6875 155.7725 l 1
EndSplineSet
EndChar

StartChar: y
Encoding: 121 121 44
Width: 420
VWidth: 0
Flags: HMW
LayerCount: 2
Fore
SplineSet
470.73 459.5 m 1
 62.23 -219.5 l 1
 2.83 -219.3025 l 1
 165.375 48.935 l 1
 55.555 460 l 1
 112.8375 460 l 1
 210.965 68.4 l 1
 186.76 71.32 l 1
 411.33 459.5 l 1
 470.73 459.5 l 1
EndSplineSet
EndChar

StartChar: w
Encoding: 119 119 45
Width: 636
VWidth: 0
Flags: HMW
LayerCount: 2
Fore
SplineSet
60.7525 460 m 1
 116.8375 460 l 1
 175.1525 106.4225 l 1
 370.1625 488.5075 l 1
 440.3725 105.015 l 1
 622.5425 459.5 l 1
 681.5475 459.5 l 1
 422.1675 -28.5075 l 1
 348.9325 354.2875 l 1
 150.095 -28.5075 l 1
 60.7525 460 l 1
EndSplineSet
EndChar

StartChar: v
Encoding: 118 118 46
Width: 418
VWidth: 0
Flags: HMW
LayerCount: 2
Fore
SplineSet
57.7525 460 m 1
 114.93 460 l 1
 205.3475 87.6375 l 1
 411.1575 459.5 l 1
 470.9525 459.5 l 1
 188.235 -28.0075 l 1
 57.7525 460 l 1
EndSplineSet
EndChar

StartChar: x
Encoding: 120 120 47
Width: 391
VWidth: 0
Flags: HMW
LayerCount: 2
Fore
SplineSet
372.9675 459.3025 m 1
 434.1575 459.3025 l 1
 244.38 234.3825 l 1
 370.7375 0 l 1
 313.6775 0 l 1
 210.26 196.6325 l 1
 46.325 0 l 1
 -15.26 0 l 1
 188.1225 240.2225 l 1
 67.555 460 l 1
 124.615 460 l 1
 221.94 277.9725 l 1
 372.9675 459.3025 l 1
EndSplineSet
EndChar

StartChar: z
Encoding: 122 122 48
Width: 434
VWidth: 0
Flags: HMW
LayerCount: 2
Fore
SplineSet
362.8525 410.4775 m 1
 83.9625 410.4775 l 1
 92.7225 459.8025 l 1
 467.83 459.8025 l 1
 92.2425 49.5225 l 1
 388.835 49.5225 l 1
 380.075 0 l 1
 -12.4325 0 l 1
 362.8525 410.4775 l 1
EndSplineSet
EndChar

StartChar: j
Encoding: 106 106 49
Width: 215
VWidth: 0
Flags: HMW
LayerCount: 2
Fore
SplineSet
152.8075 667.775 m 0
 152.8075 688.295 169.0125 704.6975 189.73 704.6975 c 0
 210.4475 704.6975 226.6525 688.295 226.6525 667.775 c 0
 226.6525 647.255 210.4475 630.8525 189.73 630.8525 c 0
 169.0125 630.8525 152.8075 647.255 152.8075 667.775 c 0
-98.18 -134.4475 m 1
 -86.1925 -153.04 -67.31 -167.4525 -46.0025 -167.755 c 0
 5.7444515 -168.965 31.945 -113.01 39.2225 -62.64 c 2
 128.895 459.8025 l 1
 180.9425 459.8025 l 1
 90.665 -68.9925 l 2
 77.6525 -150.63 33.9975 -220.71 -50.8425 -219.5 c 0
 -88.959745 -219.1975 -115.7875 -198.13 -133.1025 -175.9325 c 1
 -98.18 -134.4475 l 1
EndSplineSet
EndChar

StartChar: P
Encoding: 80 80 50
Width: 504
VWidth: 0
Flags: HMW
LayerCount: 2
Fore
SplineSet
173.0425 699.5 m 1
 229.115 699.8025 l 1
 108.3125 0 l 1
 54.3575 0 l 1
 173.0425 699.5 l 1
194.18 647.65 m 1
 203.7425 700 l 1
 331.355 700 l 2
 455.7875 700 539.6775 614.79 520.875 492.4625 c 0
 501.375 367.0425 392.405 285.53 264.3675 285.53 c 2
 132.4275 285.53 l 1
 141.7925 337.88 l 1
 269.6025 337.88 l 1
 368.7425 339.09 449.13 396.0325 465.71 492.765 c 0
 481.29 586.905 421.9575 647.045 326.12 647.3475 c 2
 194.18 647.65 l 1
EndSplineSet
EndChar

StartChar: U
Encoding: 85 85 51
Width: 587
VWidth: 0
Flags: HMW
LayerCount: 2
Fore
SplineSet
169.1475 699.8025 m 1
 224.115 699.8025 l 1
 142.22 226.05 l 2
 129.3375 128.5025 165.2936475 43.4425 272.57 43.245 c 0
 386.495 43.0475 451.7423125 123.3032175 468.4375 226.05 c 2
 550.03 699.8025 l 1
 605.195 699.8025 l 1
 524.1025 226.05 l 2
 502.66085 95.261825 417.1575 -9.6975 268.1375 -9.5 c 0
 129.705 -9.3025 69.4375 100.6175 87.8575 226.05 c 2
 169.1475 699.8025 l 1
EndSplineSet
EndChar

StartChar: S
Encoding: 83 83 52
Width: 508
VWidth: 0
Flags: HMW
LayerCount: 2
Fore
SplineSet
93.72 214.545 m 1
 113.98 129.465 150.875 44.7325 249.04 44.035 c 0
 340.3275 43.3375 399.24 100.7925 412.6225 179.84 c 0
 427.03 268.895 356.2025 314.9125 283.215 346.295 c 0
 206.7275 379.2825 123.66 430.0475 138.8575 538.2025 c 0
 154.5675 637.87 244.895 708.9075 352.1125 708.71 c 0
 455.7175 708.5125 506.1875 635.68 526.38 555.445 c 1
 477.9625 527.7325 l 1
 461.2025 590.565 423.3075 654.86 341.63 655.36 c 0
 267.8475 655.86 207.115 605.67 195.8375 537.295 c 0
 181.955 456.6175 260.22 416.415 332.9725 384.94 c 0
 411.7625 350.2425 484.51 290.0325 470.2075 183.7725 c 0
 453.6025 74.1975 365.175 -9.105 241.28 -8.71 c 0
 125.0025 -8.315 66.26 84.69 43.4875 187.555 c 1
 93.72 214.545 l 1
EndSplineSet
EndChar

StartChar: at
Encoding: 64 64 53
Width: 747
VWidth: 0
Flags: HMW
LayerCount: 2
Fore
SplineSet
266.3425 320 m 0
 258.355 262.3225 279.2925 210.1825 340.285 208.38 c 0
 413.8325 205.775 485.5975 281.55 497.1775 370 c 0
 504.665 425.0175 482.85 480.225 423.9625 482.015 c 0
 349.705 484.5025 277.9225 407.22 266.3425 320 c 0
216.6225 318.4875 m 0
 231.32 436.1975 330.185 531.71 428.29 528.71 c 0
 511.42 526.5125 532.21 441.1975 522.21 368.5125 c 0
 507.4075 258.4125 425 160.58 324.95 161.685 c 0
 244.8575 162.79 206.1225 234.7775 216.6225 318.4875 c 0
60.6975 320 m 0
 94.0925 530.3025 271.4875 710.4075 494.4875 709.21 c 0
 688.2225 708.21 779.8025 547.21 753.605 390 c 0
 737.3025 256.45 637.42 145.6975 539.71 150.9875 c 0
 472.525 154.08 464.7275 216.74 478.8075 278.2025 c 1
 473.7825 278.4 l 1
 551.5725 519.5 l 1
 601.99 519.5 l 1
 520.885 289 l 2
 518.1875 280.605 514.885 267.9325 513.49 258.84 c 0
 509.805 232.0075 511.7125 198.96 549.785 195.565 c 0
 616.1775 186.2625 695.8425 291.44 707.2125 390 c 0
 731.095 526.085 658.1275 663.7375 491.0675 665.2375 c 0
 292.125 666.935 137.8675 506.64 107.09 320 c 0
 83.01 163.045 158.355 36.7625 327.18 34.96 c 0
 409.2525 33.96 481.8875 55.1075 548.2825 88.6325 c 1
 565.79 49.29 l 1
 497.3025 15.765 423.05 -9.21 323.76 -8.71 c 0
 123.13 -7.21 33.1975 137.3825 60.6975 320 c 0
EndSplineSet
EndChar

StartChar: period
Encoding: 46 46 54
Width: 275
VWidth: 0
Flags: HMW
LayerCount: 2
Fore
SplineSet
77.4125 24.595 m 0
 77.4125 45.3125 94.21 61.9125 114.73 61.9125 c 0
 135.25 61.9125 152.0475 45.3125 152.0475 24.595 c 0
 152.0475 3.8775 135.25 -12.7225 114.73 -12.7225 c 0
 94.21 -12.7225 77.4125 3.8775 77.4125 24.595 c 0
EndSplineSet
EndChar

StartChar: comma
Encoding: 44 44 55
Width: 285
VWidth: 0
Flags: HMW
LayerCount: 2
Fore
SplineSet
143.77 102.68 m 1
 193.7 81.95 l 1
 43.6075 -165.445 l 1
 7.66 -151.95 l 1
 143.77 102.68 l 1
EndSplineSet
EndChar

StartChar: colon
Encoding: 58 58 56
Width: 291
VWidth: 0
Flags: HMW
LayerCount: 2
Fore
SplineSet
77.4125 24.595 m 0
 77.4125 45.3125 94.21 61.9125 114.73 61.9125 c 0
 135.25 61.9125 152.0475 45.3125 152.0475 24.595 c 0
 152.0475 3.8775 135.25 -12.7225 114.73 -12.7225 c 0
 94.21 -12.7225 77.4125 3.8775 77.4125 24.595 c 0
140.24 391.955 m 0
 140.24 412.6725 157.0375 429.2725 177.5575 429.2725 c 0
 198.0775 429.2725 214.875 412.6725 214.875 391.955 c 0
 214.875 371.2375 198.0775 354.6375 177.5575 354.6375 c 0
 157.0375 354.6375 140.24 371.2375 140.24 391.955 c 0
EndSplineSet
EndChar

StartChar: semicolon
Encoding: 59 59 57
Width: 299
VWidth: 0
Flags: HMW
LayerCount: 2
Fore
SplineSet
169.5425 391.955 m 0
 169.5425 412.6725 186.34 429.2725 206.86 429.2725 c 0
 227.38 429.2725 244.1775 412.6725 244.1775 391.955 c 0
 244.1775 371.2375 227.38 354.6375 206.86 354.6375 c 0
 186.34 354.6375 169.5425 371.2375 169.5425 391.955 c 0
143.77 102.68 m 1
 193.7 81.95 l 1
 43.6075 -165.445 l 1
 7.66 -151.95 l 1
 143.77 102.68 l 1
EndSplineSet
EndChar

StartChar: quotedbl
Encoding: 34 34 58
Width: 427
VWidth: 0
Flags: HMW
LayerCount: 2
Fore
SplineSet
220.0425 699.5 m 1
 283.2575 699.5 l 1
 162.4775 408.7025 l 1
 126.4375 408.4 l 1
 220.0425 699.5 l 1
394.74 699.5 m 1
 457.955 699.5 l 1
 336.9775 408.7025 l 1
 300.9375 408.4 l 1
 394.74 699.5 l 1
EndSplineSet
EndChar

StartChar: exclam
Encoding: 33 33 59
Width: 276
VWidth: 0
Flags: HMW
LayerCount: 2
Fore
SplineSet
197.875 699.8025 m 1
 263.905 699.8025 l 1
 165.1325 200.5 l 1
 126.4625 200.5 l 1
 197.875 699.8025 l 1
77.61 24.595 m 0
 77.61 45.51 94.71 62.215 115.23 62.215 c 0
 135.75 62.215 152.85 45.51 152.85 24.595 c 0
 152.85 3.68 135.75 -13.025 115.23 -13.025 c 0
 94.71 -13.025 77.61 3.68 77.61 24.595 c 0
EndSplineSet
EndChar

StartChar: quotesingle
Encoding: 39 39 60
Width: 252
VWidth: 0
Flags: HMW
LayerCount: 2
Fore
SplineSet
220.0425 699.5 m 1
 283.2575 699.5 l 1
 162.4775 408.7025 l 1
 126.4375 408.4 l 1
 220.0425 699.5 l 1
EndSplineSet
EndChar

StartChar: numbersign
Encoding: 35 35 61
Width: 573
VWidth: 0
Flags: HMW
LayerCount: 2
Fore
SplineSet
121.4875 445.8325 m 1
 128.63 488.8975 l 1
 596.7 488.8975 l 1
 589.5575 445.8325 l 1
 464.2475 445.53 l 1
 454.5 445.53 l 1
 262.075 445.53 l 1
 252.7225 445.53 l 1
 121.4875 445.8325 l 1
43.5675 216.1025 m 1
 50.4075 259.1675 l 1
 172.155 259.47 l 1
 183.5075 259.47 l 1
 378.6925 259.47 l 1
 392.86 259.47 l 1
 518.4775 259.1675 l 1
 511.835 216.1025 l 1
 43.5675 216.1025 l 1
538.715 699.5 m 1
 589.645 699.5 l 1
 303.645 0 l 1
 253.6225 0 l 1
 349.19 234.32 l 1
 354.6225 246 l 1
 441.03 460.42 l 1
 445.555 471.68 l 1
 538.715 699.5 l 1
334.715 699.5 m 1
 385.645 699.5 l 1
 292.985 474.1 l 1
 288.46 462.84 l 1
 199.645 244 l 1
 195.41 232.715 l 1
 99.8425 0.1975 l 1
 51.03 0 l 1
 334.715 699.5 l 1
EndSplineSet
EndChar

StartChar: hyphen
Encoding: 45 45 62
Width: 203
VWidth: 0
Flags: HMW
LayerCount: 2
Fore
SplineSet
16.345 225.9775 m 1
 24.5 275 l 1
 219.9075 275 l 1
 211.2525 225.9775 l 1
 16.345 225.9775 l 1
EndSplineSet
EndChar

StartChar: dollar
Encoding: 36 36 63
Width: 562
VWidth: 0
Flags: HMW
LayerCount: 2
Fore
SplineSet
355.7475 817.5 m 1
 403.8625 817.5 l 1
 381.9425 681.14 l 1
 334.13 681.14 l 1
 355.7475 817.5 l 1
235.3775 27.9475 m 1
 282.9925 27.9475 l 1
 260.7575 -111.6975 l 1
 212.945 -111.6975 l 1
 235.3775 27.9475 l 1
487.735 527.43 m 1
 470.3825 590.1575 436.4325 654.5575 355.0575 655.36 c 0
 278.145 656.1625 216.9 609.6025 206.0175 540.32 c 0
 192.7275 456.1175 271.7825 416.52 345.4425 384.94 c 0
 424.6275 350.545 498.6775 290.5325 485.6775 183.7725 c 0
 470.5725 73.5925 387.0775 -9.4075 260.0525 -8.71 c 0
 143.775 -8.0125 83.335 84.19 59.0625 187.2525 c 1
 108.8875 214.545 l 1
 130.6475 127.5825 169.5425 44.7325 267.7075 44.035 c 0
 358.495 43.64 416.71 100.7925 428.5925 179.84 c 0
 441.6975 269.395 368.975 314.8075 295.9875 346.295 c 0
 219.1975 379.3875 135.1425 437.005 149.34 544.2525 c 0
 163.2475 639.3825 257.6125 709.21 359.385 708.71 c 0
 462.385 708.21 517.985 632.655 535.85 555.445 c 1
 487.735 527.43 l 1
EndSplineSet
EndChar

StartChar: bar
Encoding: 124 124 64
Width: 240
VWidth: 0
Flags: HMW
LayerCount: 2
Fore
SplineSet
200.395 784.6975 m 1
 248.51 784.6975 l 1
 94.4175 -214.6975 l 1
 46.3025 -214.6975 l 1
 200.395 784.6975 l 1
EndSplineSet
EndChar

StartChar: zero
Encoding: 48 48 65
Width: 562
VWidth: 0
Flags: HMW
LayerCount: 2
Fore
SplineSet
131.7875 350 m 0
 116.8 220.6 125.7075 43.955 259.57 42.6525 c 0
 393.0375 41.35 475.87 204.2175 496.555 350 c 0
 511.5425 479.4 502.635 655.8475 368.7725 657.15 c 0
 235.305 658.4525 152.4725 495.7825 131.7875 350 c 0
76.6225 350 m 0
 101.3325 526.5625 209.1425 710.1975 373.5075 709.5 c 0
 539.8725 708.8025 571.035 511.18 551.72 350 c 0
 527.01 173.4375 419.2 -10.1975 254.835 -9.5 c 0
 88.47 -8.8025 57.3075 188.82 76.6225 350 c 0
EndSplineSet
Substitution2: "Tabular Numbers lookup" uniFF10
EndChar

StartChar: one
Encoding: 49 49 66
Width: 420
VWidth: 0
Flags: HMW
LayerCount: 2
Fore
SplineSet
157.14 598.235 m 1
 167.9125 656.7275 l 1
 388.0275 708.3275 l 1
 265.9225 0 l 1
 211.35 0 l 1
 321.0775 639.68 l 1
 157.14 598.235 l 1
EndSplineSet
Substitution2: "Tabular Numbers lookup" uniFF11
EndChar

StartChar: two
Encoding: 50 50 67
Width: 530
VWidth: 0
Flags: HMW
LayerCount: 2
Fore
SplineSet
3.975 0 m 1
 372.735 345.495 l 2
 422.6975 392.865 468.6225 443.1425 479.11 511.135 c 0
 490.3875 581.43 448.295 657.3475 356.0875 658.15 c 0
 249.0525 659.4525 182.9675 565.8375 163.795 460.5 c 1
 109.3275 460.5 l 1
 132.3275 595.525 219.8525 711.1975 360.52 710.5 c 0
 488.0825 709.8025 549.8925 605.9875 535.2875 512.95 c 0
 523.8925 434.87 471.72 368.8075 414.1025 315.295 c 2
 126.065 52.85 l 1
 477.33 52.35 l 1
 469.175 0 l 1
 3.975 0 l 1
EndSplineSet
Substitution2: "Tabular Numbers lookup" uniFF12
EndChar

StartChar: four
Encoding: 52 52 68
Width: 553
VWidth: 0
Flags: HMW
LayerCount: 2
Fore
SplineSet
18.2775 140.8025 m 1
 487.29 699.1975 l 1
 509.6625 699.5 l 1
 389.57 0 l 1
 334.6025 0 l 1
 362.93 162.57 l 1
 364.3375 171.2 l 1
 432.465 568.305 l 1
 117.4275 189.825 l 1
 388 189.325 l 1
 399.1675 189.325 l 1
 529.1325 189.325 l 1
 520.9775 140 l 1
 18.2775 140.8025 l 1
EndSplineSet
Substitution2: "Tabular Numbers lookup" uniFF14
EndChar

StartChar: slash
Encoding: 47 47 69
Width: 483
VWidth: 0
Flags: HMW
LayerCount: 2
Fore
SplineSet
509.35 699.5 m 1
 564.0025 699.3025 l 1
 13.8375 -149.5 l 1
 -38.6975 -149 l 1
 509.35 699.5 l 1
EndSplineSet
EndChar

StartChar: backslash
Encoding: 92 92 70
Width: 468
VWidth: 0
Flags: HMW
LayerCount: 2
Fore
SplineSet
106.395 700.3025 m 1
 161.5475 700 l 1
 426.7825 0 l 1
 373.7475 0 l 1
 106.395 700.3025 l 1
EndSplineSet
EndChar

StartChar: eight
Encoding: 56 56 71
Width: 517
VWidth: 0
Flags: HMW
LayerCount: 2
Fore
SplineSet
143.265 535.2525 m 0
 158.37 629.5 248.315 710 351.26 709.5 c 0
 452.4025 709 517.465 626.105 503.6625 534.45 c 0
 488.5575 434.19 397.675 360.4375 295.575 360.635 c 0
 194.975 360.8325 128.7525 437.585 143.265 535.2525 c 0
193.905 528.9 m 0
 183.72 460.3275 230.78 397.675 297.6925 396.675 c 0
 366 395.675 438.825 457.235 450.7075 528.9 c 0
 461.7875 596.2875 421.19 659.3725 346.8275 660.175 c 0
 271.2675 660.9775 205.7875 599.7875 193.905 528.9 c 0
61.555 188.3275 m 0
 78.8575 301.915 184.21 382.89 295.3775 382.39 c 0
 404.2425 382.1925 482.7125 298.915 466.7 187.7225 c 0
 449.595 79.4075 351.995 -10 232.285 -9.5 c 0
 114.5875 -9 45.3575 83.605 61.555 188.3275 c 0
114.51 194.075 m 0
 101.2325 110.1875 149.7075 40.6275 236.7175 39.825 c 0
 324.53 39.0225 401.98 106.595 415.8625 194.075 c 0
 427.745 273.0425 373.1475 345.5475 293.26 346.35 c 0
 211.675 347.1525 128.59 276.4375 114.51 194.075 c 0
EndSplineSet
Substitution2: "Tabular Numbers lookup" uniFF18
EndChar

StartChar: nine
Encoding: 57 57 72
Width: 542
VWidth: 0
Flags: HMW
LayerCount: 2
Fore
SplineSet
499.64 473.95 m 0
 513.5225 570.2075 460.69 658.465 357.9575 658.965 c 0
 253.9225 659.465 171.0225 575.3 155.8375 473.95 c 0
 142.745 381.2475 196.75 293.755 293.6625 292.86 c 0
 400.265 291.965 484.06 376.945 499.64 473.95 c 0
207.305 0 m 1
 136.9225 0 l 1
 407.075 310.8175 l 1
 411.9025 306.6875 l 1
 374.095 271.3925 328.035 250.505 272.5925 251.2025 c 0
 156.08 252.7025 89.29 361.1225 103.79 473.95 c 0
 121.395 605.895 227.7725 709.6975 362.0875 709.5 c 0
 495.6 709.3025 568.49 601.1975 551.49 473.95 c 0
 543.2 417.265 515.25 363.4075 481.7625 323.42 c 2
 207.305 0 l 1
EndSplineSet
Substitution2: "Tabular Numbers lookup" uniFF19
EndChar

StartChar: three
Encoding: 51 51 73
Width: 530
VWidth: 0
Flags: HMW
LayerCount: 2
Fore
SplineSet
280.5125 352.215 m 1
 285.445 388.3475 l 1
 372.58 394.15 455.41 441.705 469.99 525.74 c 0
 480.7675 594.4175 443.51 657.965 363.4875 658.965 c 0
 280.595 659.965 222.6025 598.51 204.93 526.5 c 1
 152.2775 526.8025 l 1
 172.975 629.9075 252.71 710 367.0125 709.5 c 0
 477.3275 709 539.865 621.79 525.6675 527.45 c 0
 508.1675 418.055 397.4025 356.9125 280.5125 352.215 c 1
255.735 -9.5 m 0
 129.235 -9.5 61.7775 75.9875 71.0675 185 c 1
 125.64 184.6975 l 1
 119.5725 103.99 165.9975 43.35 260.1675 42.85 c 0
 350.9925 42.35 424.6325 103.3425 437.2125 187.1 c 0
 452.2 286.4375 365.135 333.2325 278.1975 338.6275 c 1
 283.4325 374.76 l 1
 400.23 370.1675 510.0875 310.9025 491.9825 180.7475 c 0
 476.18 68.21 375.05 -9.5 255.735 -9.5 c 0
EndSplineSet
Substitution2: "Tabular Numbers lookup" uniFF13
EndChar

StartChar: five
Encoding: 53 53 74
Width: 544
VWidth: 0
Flags: HMW
LayerCount: 2
Fore
SplineSet
513.8725 230 m 0
 495.2675 85.8825 383.3225 -9.6975 248.285 -9.5 c 0
 139.1175 -9.5 76.1475 51.42 42.375 137.605 c 1
 92.2125 168.3175 l 1
 117.515 97.8375 169.435 43.35 252.7175 42.85 c 0
 360.475 42.35 442.2075 121.9225 457.7875 230 c 0
 470.88 324.4 418.825 405.565 322.32 407.67 c 0
 246.92 409.275 186.415 376.69 124.3775 328 c 1
 270.6675 700 l 1
 592.18 700 l 1
 584.025 650.675 l 1
 306.4175 650.4775 l 1
 207.785 408.2025 l 1
 244.9325 435.645 293.3625 457.995 347.625 457.6 c 0
 467.675 456.705 528.675 348.34 513.8725 230 c 0
EndSplineSet
Substitution2: "Tabular Numbers lookup" uniFF15
EndChar

StartChar: six
Encoding: 54 54 75
Width: 542
VWidth: 0
Flags: HMW
LayerCount: 2
Fore
SplineSet
117.6525 226.05 m 0
 103.77 129.7925 156.405 41.535 259.1375 41.035 c 0
 363.1725 40.535 446.27 124.7 461.455 226.05 c 0
 474.5475 318.7525 420.5425 406.245 323.63 407.14 c 0
 217.0275 408.035 133.2325 323.055 117.6525 226.05 c 0
409.79 699.3025 m 1
 480.37 699.3025 l 1
 209.8225 388.985 l 1
 205.1925 393.3125 l 1
 243 428.6075 289.06 449.495 344.5025 448.7975 c 0
 461.015 447.2975 527.805 338.8775 513.305 226.05 c 0
 495.7 94.105 389.3225 -9.6975 255.0075 -9.5 c 0
 121.495 -9.3025 48.605 98.8025 65.605 226.05 c 0
 73.895 282.735 101.845 336.5925 135.3325 376.58 c 2
 409.79 699.3025 l 1
EndSplineSet
Substitution2: "Tabular Numbers lookup" uniFF16
EndChar

StartChar: seven
Encoding: 55 55 76
Width: 505
VWidth: 0
Flags: HMW
LayerCount: 2
Fore
SplineSet
112.715 647.65 m 1
 121.1725 700 l 1
 591.18 699.5 l 1
 143.75 0 l 1
 84.955 0 l 1
 499.6725 647.15 l 1
 112.715 647.65 l 1
EndSplineSet
Substitution2: "Tabular Numbers lookup" uniFF17
EndChar

StartChar: plus
Encoding: 43 43 77
Width: 571
VWidth: 0
Flags: HMW
LayerCount: 2
Fore
SplineSet
75.1725 229.1275 m 1
 83.63 281.175 l 1
 526.9 281.175 l 1
 517.9425 228.825 l 1
 75.1725 229.1275 l 1
313.4075 491.6 m 1
 369.085 491.9025 l 1
 286.5475 18.0975 l 1
 232.9875 18.4 l 1
 313.4075 491.6 l 1
EndSplineSet
EndChar

StartChar: equal
Encoding: 61 61 78
Width: 596
VWidth: 0
Flags: HMW
LayerCount: 2
Fore
SplineSet
63.265 158.0775 m 1
 71.1175 207.1 l 1
 543.025 207.1 l 1
 534.5675 157.775 l 1
 63.265 158.0775 l 1
87.185 298.2025 m 1
 95.0375 347.225 l 1
 566.945 347.225 l 1
 558.5925 297.9 l 1
 87.185 298.2025 l 1
EndSplineSet
EndChar

StartChar: percent
Encoding: 37 37 79
Width: 709
VWidth: 0
Flags: HMW
LayerCount: 2
Fore
SplineSet
100.79 554.45 m 0
 113.79 638.2775 185.0125 709.6975 275.5375 709.5 c 0
 365.5625 709.3025 413.1925 634.7775 401.1925 553.45 c 0
 388.1925 469.6225 316.6675 398.2025 226.1425 398.4 c 0
 136.1175 398.5975 88.79 473.1225 100.79 554.45 c 0
146.7875 553.95 m 0
 138.01 498.575 166.015 442.385 229.97 441.28 c 0
 294.425 440.175 345.115 495.68 354.8925 553.95 c 0
 363.67 609.5225 335.77 665.12 272.0125 666.225 c 0
 207.5575 667.33 156.565 612.22 146.7875 553.95 c 0
373.9525 146.55 m 0
 386.9525 230.3775 458.175 301.7975 548.7 301.6 c 0
 638.725 301.4025 686.0525 226.8775 674.0525 145.55 c 0
 661.0525 61.7225 589.83 -9.6975 499.305 -9.5 c 0
 409.28 -9.3025 361.9525 65.2225 373.9525 146.55 c 0
419.95 146.05 m 0
 411.1725 90.675 438.98 34.485 502.935 33.38 c 0
 567.39 32.275 618.2775 87.78 628.055 146.05 c 0
 636.8325 201.6225 608.63 257.22 544.8725 258.325 c 0
 480.4175 259.43 429.7275 204.32 419.95 146.05 c 0
641.24 699.3025 m 1
 693.17 699.3025 l 1
 133.3 0 l 1
 82.9875 0 l 1
 641.24 699.3025 l 1
EndSplineSet
EndChar

StartChar: ampersand
Encoding: 38 38 80
Width: 655
VWidth: 0
Flags: HMW
LayerCount: 2
Fore
SplineSet
246.2675 400.985 m 2
 216.15 445.905 173.8825 496.85 182.3825 564.4 c 0
 194.2775 649.08 269.1675 711.395 362.5875 710.5 c 0
 454.2425 709.8025 504.7375 638.4875 493.33 561.5975 c 0
 480.6325 484.69 408.225 429.5475 324.62 381.85 c 0
 242.8675 335.7825 120.56 294.5175 103.6775 182.075 c 0
 91.0975 96.435 152.8125 40.325 239.6625 39.22 c 0
 395.2775 36.7075 512.34 195.7725 615.185 315.1975 c 1
 652.6325 289.1275 l 1
 539.3175 159.6275 416.205 -10.9075 232.81 -9.5 c 0
 122.205 -8.6975 33.4075 65.9325 48.605 179.05 c 0
 66.6975 315.8525 204.1975 366.26 291.1975 413.05 c 0
 362.8325 452.605 429.795 499.6725 441.2825 561.9 c 0
 449.165 613.535 420.715 662.3975 358.4575 663.595 c 0
 293.725 664.7925 245.0225 619.4975 236.245 563.9 c 0
 228.245 511.9625 259.7275 470.5675 288.45 428.95 c 2
 585.9 0 l 1
 526.5125 0 l 1
 246.2675 400.985 l 2
EndSplineSet
EndChar

StartChar: question
Encoding: 63 63 81
Width: 534
VWidth: 0
Flags: HMW
LayerCount: 2
Fore
SplineSet
476.905 507.9 m 0
 491.59 593.51 441.5475 659.675 346.58 660.175 c 0
 271.2975 660.675 216.36 618.7375 172.33 566.5225 c 1
 133.475 594.3025 l 1
 189.185 659.815 254.6975 710.3025 357.0625 709.5 c 0
 475.9825 708.5 546.255 616.845 529.255 507.5975 c 0
 509.86 395.0475 400.885 319.8925 284.3175 308.565 c 1
 255.515 170.5 l 1
 216.66 170.5 l 1
 232.1775 345 l 1
 247.395 345 l 1
 360.53 348.8825 458.22 415 476.905 507.9 c 0
172.9375 24.595 m 0
 172.9375 45.03583575 189.68055 61.9125 210.255 61.9125 c 0
 231.38 61.9125 247.375 44.309289 247.375 24.595 c 0
 247.375 3.853185775 230.5775 -12.7225 210.0575 -12.7225 c 0
 188.882285 -12.7225 172.9375 4.26544355 172.9375 24.595 c 0
EndSplineSet
EndChar

StartChar: parenleft
Encoding: 40 40 82
Width: 273
VWidth: 0
Flags: HMW
LayerCount: 2
Fore
SplineSet
301.29 779.1975 m 1
 348.3375 779.1975 l 1
 257.8625 628.1175 199.295 462.895 171.9925 290 c 0
 147.4925 125.5 151.85 -40.3275 197.4425 -200.3025 c 1
 151.605 -200.3025 l 1
 98 -42.8025 90 125.5 114.1975 290 c 0
 141.1975 464 202.5925 632.1975 301.29 779.1975 c 1
EndSplineSet
EndChar

StartChar: parenright
Encoding: 41 41 83
Width: 273
VWidth: 0
Flags: HMW
LayerCount: 2
Fore
SplineSet
27.85 -199.1975 m 1
 -19.1975 -199.1975 l 1
 71.2775 -48.1175 129.6475 117.105 156.95 290 c 0
 181.45 454.5 176.9875 620.3275 131.395 780.3025 c 1
 177.535 780.3025 l 1
 231.14 622.8025 239.14 454.5 214.9425 290 c 0
 187.9425 116 126.5475 -52.1975 27.85 -199.1975 c 1
EndSplineSet
EndChar

StartChar: asterisk
Encoding: 42 42 84
Width: 574
VWidth: 0
Flags: HMW
LayerCount: 2
Fore
SplineSet
527.26 592.97 m 1
 533.4025 547.695 l 1
 350.3025 497.695 l 1
 344.6725 529.4075 l 1
 527.26 592.97 l 1
449.755 374.5975 m 1
 408.4 347.935 l 1
 333.085 503.245 l 1
 360.575 522.765 l 1
 449.755 374.5975 l 1
232.2225 348.935 m 1
 197.8125 377.11 l 1
 335.7025 522.16 l 1
 358.865 501.43 l 1
 232.2225 348.935 l 1
173.6275 548.8 m 1
 194.3575 592.6675 l 1
 356.4325 528.3025 l 1
 341.135 497.9975 l 1
 173.6275 548.8 l 1
356.955 699.5 m 1
 403.44 699.5 l 1
 363.495 513.4 l 1
 331.1775 513.4 l 1
 356.955 699.5 l 1
EndSplineSet
EndChar

StartChar: less
Encoding: 60 60 85
Width: 621
VWidth: 0
Flags: HMW
LayerCount: 2
Fore
SplineSet
164.5625 257.71 m 1
 545.0375 76.78 l 1
 536.2775 27.6525 l 1
 76.8825 242.8075 l 1
 81.815 272.1 l 1
 615.5375 488.5575 l 1
 606.1725 434.09 l 1
 164.5625 257.71 l 1
EndSplineSet
EndChar

StartChar: greater
Encoding: 62 62 86
Width: 621
VWidth: 0
Flags: HMW
LayerCount: 2
Fore
SplineSet
490.135 257.0925 m 1
 109.765 438.22 l 1
 118.7225 487.3475 l 1
 577.6175 272.1925 l 1
 572.9875 242.9 l 1
 39.265 26.4425 l 1
 48.3275 80.91 l 1
 490.135 257.0925 l 1
EndSplineSet
EndChar

StartChar: bracketleft
Encoding: 91 91 87
Width: 275
VWidth: 0
Flags: HMW
LayerCount: 2
Fore
SplineSet
244.2875 730.28 m 1
 104.7825 -170.28 l 1
 213.75 -170.28 l 1
 205.8975 -220 l 1
 45.1975 -220 l 1
 199.6975 780 l 1
 360.2 780 l 1
 352.65 730.5825 l 1
 244.2875 730.28 l 1
EndSplineSet
EndChar

StartChar: bracketright
Encoding: 93 93 88
Width: 275
VWidth: 0
Flags: HMW
LayerCount: 2
Fore
SplineSet
83.8075 -170.28 m 1
 222.8125 730.28 l 1
 114.1475 730.28 l 1
 122.1975 780 l 1
 282.3975 780 l 1
 127.8975 -220 l 1
 -32.4075 -220 l 1
 -24.8575 -170.5825 l 1
 83.8075 -170.28 l 1
EndSplineSet
EndChar

StartChar: asciicircum
Encoding: 94 94 89
Width: 494
VWidth: 0
Flags: HMW
LayerCount: 2
Fore
SplineSet
332.7525 648.545 m 1
 168.1275 460.6975 l 1
 112.29 460.6975 l 1
 328.295 709.3025 l 1
 351.995 709.605 l 1
 483.395 459.6975 l 1
 432.0825 459.6975 l 1
 332.7525 648.545 l 1
EndSplineSet
EndChar

StartChar: underscore
Encoding: 95 95 90
Width: 485
VWidth: 0
Flags: HMW
LayerCount: 2
Fore
SplineSet
-48.42 -123.2175 m 1
 -42.4875 -86.2025 l 1
 443.6175 -86.2025 l 1
 437.685 -123.2175 l 1
 -48.42 -123.2175 l 1
EndSplineSet
EndChar

StartChar: grave
Encoding: 96 96 91
Width: 354
VWidth: 0
Flags: HMW
LayerCount: 2
Fore
SplineSet
168.1525 673.245 m 1
 218.7 699.8025 l 1
 349.31 539.395 l 1
 318.9 520.375 l 1
 168.1525 673.245 l 1
EndSplineSet
EndChar

StartChar: braceleft
Encoding: 123 123 92
Width: 289
VWidth: 0
Flags: HMW
LayerCount: 2
Fore
SplineSet
244.965 652.1 m 2
 216.595 466.3 l 2
 203.57 380.6075 178.3425 296.2525 95.1225 283.66 c 1
 97.03 296.84 l 1
 175.7625 280.55 172.125 192.3675 161.9025 113.7 c 2
 132.73 -72.4025 l 2
 127.045 -117.9675 134.8175 -153.095 179.92 -153.3975 c 2
 209.2975 -153.3975 l 1
 202.3525 -200 l 1
 159.8625 -200 l 2
 94.3575 -200.3025 75.405 -137.0925 83.905 -60 c 2
 116.405 150 l 2
 123.1025 210.9875 115.325 246.19 83.7325 269.875 c 1
 89.77 310.125 l 1
 127.6525 329.81 150.2075 366.42 158.8 430 c 2
 190.8 640.3025 l 2
 201.8 722.0925 243.4375 779.5 308.5475 779.5 c 2
 352.7475 779.5 l 1
 346.105 733.7 l 1
 318.135 733.7 l 2
 272.02 733.7 251.94 700.6525 244.965 652.1 c 2
EndSplineSet
EndChar

StartChar: braceright
Encoding: 125 125 93
Width: 289
VWidth: 0
Flags: HMW
LayerCount: 2
Fore
SplineSet
105.525 -72.1 m 2
 133.895 113.7 l 2
 147.1175 199.3925 172.45 283.7475 255.67 296.34 c 1
 253.6575 283.16 l 1
 174.925 299.45 178.365 387.6325 188.5875 466.3 c 2
 217.76 652.4025 l 2
 223.445 697.9675 215.6725 733.095 170.57 733.3975 c 2
 141.6925 733.7 l 1
 148.335 780 l 1
 190.6275 780 l 2
 256.1325 780 275.085 717.0925 266.585 640 c 2
 234.085 430 l 2
 227.3875 369.0125 235.3625 333.81 266.955 310.125 c 1
 260.9175 269.875 l 1
 223.035 250.19 200.48 213.58 191.8875 150 c 2
 159.8875 -60.3025 l 2
 148.8875 -142.0925 107.355 -199.6975 42.245 -199.6975 c 2
 -2.06 -199.6975 l 1
 4.885 -153.8975 l 1
 32.355 -153.8975 l 2
 78.47 -153.8975 98.55 -120.6525 105.525 -72.1 c 2
EndSplineSet
EndChar

StartChar: asciitilde
Encoding: 126 126 94
Width: 558
VWidth: 0
Flags: HMW
LayerCount: 2
Fore
SplineSet
127.565 176.9875 m 1
 80.2525 181.1975 l 1
 79.7525 188.6975 79.45 197 80.45 205.5 c 0
 84.845 232.055 96.9375 259.2275 116.1225 280.925 c 0
 141.055 308.975 177.395 326.5 216.0375 326.5 c 0
 261.1725 326.3025 293.7225 298.415 324.5875 267.545 c 0
 346.1 244.805 369.39 221.72 398.87 221.825 c 0
 438.4175 221.7325 463.225 255.175 469.41 293.4325 c 0
 471.2125 301.8275 470.91 312.315 469.1075 322.0125 c 1
 519.445 317.8025 l 1
 519.945 309.3025 520.7475 299 519.2475 289.5 c 0
 515.3525 263.84 504.655 235.26 486.5625 214.26 c 0
 464.025 188.0125 431.5925 172 397.4625 172.5 c 0
 356.525 173 326.58 199.4125 296.0175 229.085 c 0
 272.4 253.1275 246.8955975 277.9582725 211.605 277.78 c 0
 164.7675 277.675 134.355 242.4425 127.3675 198.9875 c 0
 126.065 191.9875 126.565 184.4875 127.565 176.9875 c 1
EndSplineSet
EndChar

StartChar: exclamdown
Encoding: 161 161 95
Width: 291
VWidth: 0
Flags: HMW
LayerCount: 2
Fore
SplineSet
116.625 -244.8025 m 1
 50.595 -244.8025 l 1
 150.17 254.5 l 1
 188.5375 254.5 l 1
 116.625 -244.8025 l 1
235.89 429.8 m 0
 233.8775 411.2925 212.2525 392.18 193.4425 393.0875 c 0
 174.0275 393.995 160.3475 411.7 162.36 431.01 c 0
 164.3725 449.5175 185.9975 468.63 204.8075 467.7225 c 0
 224.2225 466.815 237.9025 449.11 235.89 429.8 c 0
EndSplineSet
EndChar

StartChar: cent
Encoding: 162 162 96
Width: 562
VWidth: 0
Flags: HMW
LayerCount: 2
Fore
SplineSet
261.955 20.91 m 1
 301.9525 20.91 l 1
 280.2975 -111.5 l 1
 236.85 -111.5 l 1
 261.955 20.91 l 1
144.0225 230 m 0
 128.745 131.965 183.0275 40.93 287.445 39.825 c 0
 357.865 39.22 419.2975 75.06 455.2975 113.24 c 1
 445.13 48.105 l 1
 406.105 15.0675 346.79 -9.5 282.71 -9.5 c 0
 149.3025 -9.1975 73.6725 103.4875 92.1725 230 c 0
 112.5675 362.4075 225.58 469.1975 360.79 469.5 c 0
 420.975 469.5 474.4875 446.63 506.2225 411.0925 c 1
 495.7525 345.9575 l 1
 473.3825 389.045 421.2775 420.4775 356.3575 420.175 c 0
 250.2425 419.8725 161.4975 333.6275 144.0225 230 c 0
355.245 577.5 m 1
 398.89 577.5 l 1
 372.89 442.325 l 1
 333.195 442.325 l 1
 355.245 577.5 l 1
EndSplineSet
EndChar

StartChar: sterling
Encoding: 163 163 97
Width: 562
VWidth: 0
Flags: HMW
LayerCount: 2
Fore
SplineSet
103.8575 344.325 m 1
 435.305 344.325 l 1
 426.3475 295 l 1
 95.0975 295 l 1
 103.8575 344.325 l 1
504.64 486.8075 m 1
 510.22 558.745 491.035 653.4275 394.395 654.73 c 0
 317.7675 656.0325 251.0525 600.535 238.065 527.11 c 0
 221.46 423.2525 310.1375 363.4875 296.3475 263.6975 c 0
 279.965 157.63 181.0175 72.7725 108.355 31.0525 c 1
 111.4975 52.5475 l 1
 476.6625 52.35 l 1
 467.2975 0 l 1
 46.455 0 l 1
 132.9 88.4875 223.985 154.9375 242.485 254.925 c 0
 257.485 349.4925 167.4925 413.8875 182.085 526.2025 c 0
 197.9925 629.6175 288.6725 710.3025 399.735 709.5 c 0
 524.025 708.6975 559.3475 589.7725 553.36 504.05 c 1
 504.64 486.8075 l 1
EndSplineSet
EndChar

StartChar: currency
Encoding: 164 164 98
Width: 554
VWidth: 0
Flags: HMW
LayerCount: 2
Fore
SplineSet
103.085 511.8075 m 1
 141.5075 544.7975 l 1
 207.935 462.0425 l 1
 170.5125 430.0525 l 1
 103.085 511.8075 l 1
59.5875 55.4 m 1
 31.0175 90.705 l 1
 124.4825 169.75 l 1
 152.5525 135.445 l 1
 59.5875 55.4 l 1
482.765 430.25 m 1
 453.695 464.555 l 1
 547.4625 544.6 l 1
 575.23 509.295 l 1
 482.765 430.25 l 1
398.3125 137.9575 m 1
 436.5375 169.9475 l 1
 502.965 88.1925 l 1
 465.74 55.2025 l 1
 398.3125 137.9575 l 1
73.6975 300 m 0
 93.6975 431.21 207.4075 539.6975 340.5375 539.5 c 0
 472.1675 539.3025 547.9025 425.92 529.6 300 c 0
 509.6 168.79 395.89 60.3025 262.76 60.5 c 0
 131.13 60.6975 55.395 174.08 73.6975 300 c 0
126.0475 300 m 0
 110.9675 202.86 164.0525 110.325 267.1925 109.825 c 0
 371.53 109.325 460.4725 197.2675 477.25 300 c 0
 492.33 397.14 439.245 489.675 336.105 490.175 c 0
 231.7675 490.675 142.825 402.7325 126.0475 300 c 0
EndSplineSet
EndChar

StartChar: yen
Encoding: 165 165 99
Width: 556
VWidth: 0
Flags: HMW
LayerCount: 2
Fore
SplineSet
59.1925 282.4025 m 1
 67.3475 331.425 l 1
 535.7925 331.425 l 1
 527.6375 282.1 l 1
 59.1925 282.4025 l 1
35.2725 142.2775 m 1
 43.3225 191.3 l 1
 512.07 191.3 l 1
 503.915 141.975 l 1
 35.2725 142.2775 l 1
557.48 699.3025 m 1
 620.3925 699.3025 l 1
 321.6525 288.095 l 1
 272.22 0 l 1
 216.1475 0 l 1
 267.3825 290.7925 l 1
 113.3325 700 l 1
 173.0225 700 l 1
 301.0025 339.58 l 1
 557.48 699.3025 l 1
EndSplineSet
EndChar

StartChar: brokenbar
Encoding: 166 166 100
Width: 240
VWidth: 0
Flags: HMW
LayerCount: 2
Fore
SplineSet
188.5925 694.5 m 1
 236.7075 694.5 l 1
 194.9175 455.5 l 1
 146.8025 455.5 l 1
 188.5925 694.5 l 1
159.7075 244.5 m 1
 117.9175 5.5 l 1
 69.8025 5.5 l 1
 111.5925 244.5 l 1
 159.7075 244.5 l 1
EndSplineSet
EndChar

StartChar: section
Encoding: 167 167 101
Width: 391
VWidth: 0
Flags: HMW
LayerCount: 2
Fore
SplineSet
394.4475 593.9175 m 1
 375.75 635.435 334.9675 659.57 287.8825 659.57 c 0
 243.1125 659.57 189.3125 638.065 182.2325 592.6475 c 0
 173.745 541.6925 246.095 516.7975 289.3475 496.915 c 0
 347.4525 469.9025 408.155 431.6425 398.9575 365.55 c 0
 386.155 273.79 306.2475 244 215.7225 240.8025 c 1
 218.8525 261.3725 l 1
 278.69 273.5075 337.015 305.6625 345.3975 362.0125 c 0
 352.7925 415.8575 294.5475 441.9 247.9675 462.5975 c 0
 190.165 488.61 119.895 519.765 130.79 593.2525 c 0
 141.79 666.8575 219.605 709.1975 292.0125 709.5 c 0
 360.42 709.8025 419.6425 675 438.05 619.395 c 1
 394.4475 593.9175 l 1
68.1025 147.2675 m 1
 75.8 87.5525 119.57 40.325 186.445 39.6275 c 0
 237.95 38.93 293.7375 61.59 302.7125 114.2175 c 0
 313.095 173.9875 253.7325 199.0425 204.2025 222.11 c 0
 146.585 249.5175 80.395 288.975 90.6975 359.5 c 0
 104.3025 438.3525 177.4075 475.605 274.3275 479.1975 c 1
 271.8025 463.77 l 1
 207.1625 445.8625 152.64 417.2525 143.0475 364.8525 c 0
 133.3375 302.865 198.595 278.125 245.5825 256.125 c 0
 305.07 228.125 366.655 189.47 356.575 117.8475 c 0
 344.8775 31.5625 264.47 -10.3025 178.685 -9.5 c 0
 95.3825 -8.6975 31.3025 46.8025 22.6975 123.3025 c 1
 68.1025 147.2675 l 1
EndSplineSet
EndChar

StartChar: dieresis
Encoding: 168 168 102
Width: 437
VWidth: 0
Flags: HMW
LayerCount: 2
Fore
SplineSet
365.1775 672.06 m 0
 366.8875 690.5675 388.315 709.68 407.125 708.7725 c 0
 426.54 707.865 440.72 690.16 439.01 670.85 c 0
 437.3 652.3425 415.675 633.23 396.865 634.1375 c 0
 377.45 635.045 363.4675 652.75 365.1775 672.06 c 0
171.1775 672.06 m 0
 172.8875 690.5675 194.315 709.68 213.125 708.7725 c 0
 232.54 707.865 246.72 690.16 245.01 670.85 c 0
 243.3 652.3425 221.675 633.23 202.865 634.1375 c 0
 183.45 635.045 169.4675 652.75 171.1775 672.06 c 0
EndSplineSet
EndChar

StartChar: copyright
Encoding: 169 169 103
Width: 776
VWidth: 0
Flags: HMW
LayerCount: 2
Fore
SplineSet
253.2 350 m 0
 239.91 255.6 289.57 169.515 388.3525 168.515 c 0
 445.26 167.7125 491.9825 192.25 529.6675 224.67 c 1
 523.3275 180.685 l 1
 484.13 152.3825 442.5375 134.395 386.34 134.895 c 0
 269.6425 135.5925 202.87 236.9875 217.87 350 c 0
 234.0675 467.9075 331.6175 564.3025 449.42 565.105 c 0
 503.2225 565.605 540.8275 549.21 575.4325 518.71 c 1
 568.79 474.9225 l 1
 539.315 510.645 500.1175 531.485 447.605 531.485 c 0
 347.8225 531.2875 267.99 449.8875 253.2 350 c 0
112.12 350 m 0
 87.6325 179.2175 193.125 25.0025 372.92 24.5025 c 0
 555.9125 24.0025 710.8925 171.2175 737.88 350 c 0
 762.3675 520.7825 656.875 674.9975 477.08 675.4975 c 0
 294.0875 675.9975 139.1075 528.7825 112.12 350 c 0
74.895 350 m 0
 103.29 549.8025 273.5925 710.5 478.29 710 c 0
 679.4875 709.5 800.6975 542.105 774.8025 350 c 0
 746.4075 150.1975 576.21 -10.5 371.5125 -10 c 0
 170.315 -9.5 49 157.895 74.895 350 c 0
EndSplineSet
EndChar

StartChar: registered
Encoding: 174 174 104
Width: 776
VWidth: 0
Flags: HMW
LayerCount: 2
Fore
SplineSet
380.8325 350.5875 m 1
 417.2675 350.5875 l 1
 527.145 149.6975 l 1
 486.685 149.6975 l 1
 380.8325 350.5875 l 1
346.4675 569.6975 m 1
 379.785 569.6975 l 1
 314.6925 150.3025 l 1
 281.375 150.3025 l 1
 346.4675 569.6975 l 1
358.1725 540.01 m 1
 362.8025 569.6975 l 1
 438.785 570 l 1
 513.6925 568 570.5875 522.45 560.1925 447.45 c 0
 549.495 371.6475 480.39 328.4 403.285 326.4 c 1
 325.4875 326.2025 l 1
 329.6175 355.1925 l 1
 405.6 355.495 l 1
 465.685 357.495 518.19 388.76 526.875 447.95 c 0
 535.2575 505.8375 493.8575 537.2075 436.1675 539.51 c 1
 358.1725 540.01 l 1
112.12 350 m 0
 87.6325 179.2175 193.125 25.0025 372.92 24.5025 c 0
 555.9125 24.0025 710.8925 171.2175 737.88 350 c 0
 762.3675 520.7825 656.875 674.9975 477.08 675.4975 c 0
 294.0875 675.9975 139.1075 528.7825 112.12 350 c 0
74.895 350 m 0
 103.29 549.5 273.5925 710.5 478.29 710 c 0
 679.4875 709.5 800.6975 542.105 774.8025 350 c 0
 746.4075 150.5 576.21 -10.5 371.5125 -10 c 0
 170.315 -9.5 49 157.895 74.895 350 c 0
EndSplineSet
EndChar

StartChar: ordfeminine
Encoding: 170 170 105
Width: 230
VWidth: 0
Flags: HMW
LayerCount: 2
Fore
SplineSet
110.4525 530.1175 m 0
 106.7675 500.7175 125.7975 480.255 157.0625 479.255 c 0
 197.815 477.65 229.4875 508.97 240.8825 545.55 c 1
 244.685 529.925 l 1
 232.685 489.53 198.3825 454.5 149.1975 455.5 c 0
 108.3825 456.5 78.1725 486.7225 84.6725 531.2225 c 0
 91.975 577.4325 142.79 607.5625 189.21 607.365 c 0
 223.0375 607.1675 243.26 592.5375 257.155 580.7225 c 1
 254.34 564.135 l 1
 236.0125 577.1475 216.4075 588.0425 189.315 587.9375 c 0
 154.0625 588.03 115.1375 564.345 110.4525 530.1175 c 0
138.8525 652.5175 m 1
 129 673.4575 l 1
 150.5125 686.945 179.6175 703.7225 214.735 702.8275 c 0
 260.155 701.5375 284.9525 672.7725 280.9525 630.7475 c 1
 251.4525 460.5 l 1
 225.2775 460.5 l 1
 255.685 631.05 l 1
 255.45 658.37 243.74 677.375 213.2225 679.0725 c 0
 183.4325 680.5725 156.9325 664.2825 138.8525 652.5175 c 1
EndSplineSet
EndChar

StartChar: ordmasculine
Encoding: 186 186 106
Width: 269
VWidth: 0
Flags: HMW
LayerCount: 2
Fore
SplineSet
90.6975 580.5 m 0
 100.395 646 158.5925 700 225.79 699.5 c 0
 292.79 699 332 643.605 322.8025 579.5 c 0
 313.105 514 254.9075 460 187.71 460.5 c 0
 120.71 461 81.5 516.395 90.6975 580.5 c 0
118.3475 580 m 0
 110.86 531.9825 138.7975 488.1375 189.1175 487.44 c 0
 240.24 486.7425 286.8625 529.68 295.1525 580 c 0
 302.64 628.0175 274.7025 671.8625 224.3825 672.56 c 0
 173.26 673.2575 126.6375 630.32 118.3475 580 c 0
EndSplineSet
EndChar

StartChar: guillemotleft
Encoding: 171 171 107
Width: 484
VWidth: 0
Flags: HMW
LayerCount: 2
Fore
SplineSet
267.4925 257.1175 m 1
 399.255 49.385 l 1
 362.82 20 l 1
 210.3025 257.21 l 1
 441.005 489.3025 l 1
 469.39 458.7075 l 1
 267.4925 257.1175 l 1
111.9925 257.1175 m 1
 244.0575 49.385 l 1
 207.5175 20 l 1
 55 257.21 l 1
 285.7025 489.3025 l 1
 314.39 458.7075 l 1
 111.9925 257.1175 l 1
EndSplineSet
EndChar

StartChar: guillemotright
Encoding: 187 187 108
Width: 484
VWidth: 0
Flags: HMW
LayerCount: 2
Fore
SplineSet
250.5275 252.8825 m 1
 118.765 460.615 l 1
 155.0025 490 l 1
 308.02 252.79 l 1
 77.12 20.6975 l 1
 48.63 51.2925 l 1
 250.5275 252.8825 l 1
406.0275 252.8825 m 1
 274.265 460.615 l 1
 310.5025 490 l 1
 463.02 252.79 l 1
 232.3175 20.6975 l 1
 203.9325 51.2925 l 1
 406.0275 252.8825 l 1
EndSplineSet
EndChar

StartChar: uni00AD
Encoding: 173 173 109
Width: 203
VWidth: 0
Flags: HMW
LayerCount: 2
Fore
SplineSet
16.345 225.9775 m 1
 24.5 275 l 1
 219.9075 275 l 1
 211.2525 225.9775 l 1
 16.345 225.9775 l 1
EndSplineSet
EndChar

StartChar: logicalnot
Encoding: 172 172 110
Width: 601
VWidth: 0
Flags: HMW
LayerCount: 2
Fore
SplineSet
90.74 325.675 m 1
 99.6975 375 l 1
 576.605 375 l 1
 541.105 175.5 l 1
 492.385 175.5 l 1
 519.125 325.675 l 1
 90.74 325.675 l 1
EndSplineSet
EndChar

StartChar: macron
Encoding: 175 175 111
Width: 494
VWidth: 0
Flags: HMW
LayerCount: 2
Fore
SplineSet
156.95 625.675 m 1
 164.5 675 l 1
 504.9075 675 l 1
 497.3575 625.675 l 1
 156.95 625.675 l 1
EndSplineSet
EndChar

StartChar: degree
Encoding: 176 176 112
Width: 269
VWidth: 0
Flags: HMW
LayerCount: 2
Fore
SplineSet
94 600.5 m 0
 103.6975 666 162.0925 720 229.29 719.5 c 0
 296.29 719 335.5 663.605 326.3025 599.5 c 0
 316.605 534 258.4075 480 191.21 480.5 c 0
 124.21 481 84.8025 536.395 94 600.5 c 0
121.8475 600 m 0
 114.36 551.9825 142.2975 508.1375 192.6175 507.44 c 0
 243.74 506.7425 290.165 549.68 298.455 600 c 0
 305.9425 648.0175 278.005 691.8625 227.685 692.56 c 0
 176.5625 693.2575 130.1375 650.32 121.8475 600 c 0
EndSplineSet
EndChar

StartChar: plusminus
Encoding: 177 177 113
Width: 594
VWidth: 0
Flags: HMW
LayerCount: 2
Fore
SplineSet
46.3025 0 m 1
 53.8525 52.35 l 1
 523.785 52.35 l 1
 515.63 0 l 1
 46.3025 0 l 1
101.475 358.825 m 1
 109.3275 411.175 l 1
 578.9575 411.175 l 1
 570.8025 358.825 l 1
 101.475 358.825 l 1
348.22 620 m 1
 403.8975 620 l 1
 330.095 150 l 1
 276.535 150.3025 l 1
 348.22 620 l 1
EndSplineSet
EndChar

StartChar: uni00B2
Encoding: 178 178 114
Width: 329
VWidth: 0
Flags: HMW
LayerCount: 2
Fore
SplineSet
46.975 282.8025 m 1
 270.9075 489.655 l 2
 300.9875 517.735 330.345 548.42 337.135 589.16 c 0
 344.0175 630.295 323.1475 675.485 268.365 677.09 c 0
 203.6625 679.4975 161.3175 620.9 147.6325 559 c 1
 114.4075 559 l 1
 131.0125 638.6175 185.34 709.6975 270.4825 708.5 c 0
 348.0325 707.8025 379.6625 643.475 370.0575 586.4375 c 0
 362.5575 540.2525 330.78 503.0425 296.3725 471.135 c 2
 121.66 313.91 l 1
 330.73 313.1075 l 1
 325.495 282.3025 l 1
 46.975 282.8025 l 1
EndSplineSet
EndChar

StartChar: uni00B3
Encoding: 179 179 115
Width: 300
VWidth: 0
Flags: HMW
LayerCount: 2
Fore
SplineSet
192.6975 491.7525 m 1
 196.42 513.0875 l 1
 248.58 518.0875 299.5225 544.76 309.2075 595.765 c 0
 316.09 636.4925 293.77 673.9975 246.7775 675.3 c 0
 197.205 676.905 162.07 638.7825 149.7925 597 c 1
 117.475 597.3025 l 1
 132.6725 657.3025 179.895 706.5 248.895 705.5 c 0
 315.105 704.5 351.63 651.895 342.13 595.87 c 0
 330.4325 530.1725 262.55 496.2525 192.6975 491.7525 c 1
175.315 274.5 m 0
 98.0125 274.6975 61.2775 326.0925 65.37 391 c 1
 98.2925 391 l 1
 96.515 343.2175 119.8725 306.7125 177.13 305.91 c 0
 231.1225 305.1075 277.7325 342.65 285.4175 392.5625 c 0
 294.905 452.765 242.845 478.2025 191.3825 483.0975 c 1
 194.9075 504.735 l 1
 264.6675 500.1425 330.445 466.76 318.6425 388.13 c 0
 308.6425 321.4075 246.2225 274.3025 175.315 274.5 c 0
EndSplineSet
EndChar

StartChar: acute
Encoding: 180 180 116
Width: 354
VWidth: 0
Flags: HMW
LayerCount: 2
Fore
SplineSet
360.305 671.035 m 1
 164.885 520.875 l 1
 138 541.3025 l 1
 315.4925 699.3025 l 1
 360.305 671.035 l 1
EndSplineSet
EndChar

StartChar: mu
Encoding: 181 181 117
Width: 489
VWidth: 0
Flags: HMW
LayerCount: 2
Fore
SplineSet
334.6475 0 m 1
 414.1475 459.8025 l 1
 466.195 459.8025 l 1
 386.695 0 l 1
 334.6475 0 l 1
128.9175 168.15 m 2
 120.43 99.725 134.93 40.93 209.7125 39.825 c 0
 290.4825 38.5225 348.5675 107.44 366.345 179 c 1
 390.6 179 l 1
 370.4025 80.395 294.785 -9.895 193.285 -9.5 c 0
 95.26 -9.3025 64.9625 67.92 76.5675 162.1 c 1
 128.45 459.8025 l 1
 178.985 459.5 l 1
 128.9175 168.15 l 2
127.24 459.5 m 1
 180.195 459.8025 l 1
 45.3925 -319.8025 l 1
 -5.1425 -319.5 l 1
 127.24 459.5 l 1
EndSplineSet
EndChar

StartChar: paragraph
Encoding: 182 182 118
Width: 510
VWidth: 0
Flags: HMW
LayerCount: 2
Fore
SplineSet
364.2525 657.0275 m 1
 371.1975 699.6975 l 1
 527.685 699.6975 l 1
 520.74 657.0275 l 1
 364.2525 657.0275 l 1
500.035 699.5 m 1
 545.73 699.5 l 1
 388.6375 -219.5 l 1
 342.9425 -219.5 l 1
 500.035 699.5 l 1
371.1975 699.6975 m 1
 417.2875 699.5 l 1
 259.9975 -219.5 l 1
 214.3025 -219.5 l 1
 371.1975 699.6975 l 1
299.4075 270.3025 m 1
 176.9075 277 93.595805 356.066075 113.1975 485.3025 c 0
 134.395 619.4075 243.395 699.895 371.1975 699.6975 c 1
 299.4075 270.3025 l 1
EndSplineSet
EndChar

StartChar: periodcentered
Encoding: 183 183 119
Width: 268
VWidth: 0
Flags: HMW
LayerCount: 2
Fore
SplineSet
110.0425 233.1 m 0
 112.055 251.6075 133.68 270.72 152.49 269.8125 c 0
 171.905 268.905 186.085 251.2 184.0725 231.89 c 0
 182.06 213.3825 160.1325 194.27 141.3225 195.1775 c 0
 121.9075 196.085 108.03 213.79 110.0425 233.1 c 0
EndSplineSet
EndChar

StartChar: uni00B9
Encoding: 185 185 120
Width: 456
VWidth: 0
Flags: HMW
LayerCount: 2
Fore
SplineSet
225.1975 633.5275 m 1
 230.4325 667.7525 l 1
 363.725 699.1175 l 1
 289.725 274.5 l 1
 256.8025 274.5 l 1
 321.95 657.645 l 1
 225.1975 633.5275 l 1
EndSplineSet
EndChar

StartChar: cedilla
Encoding: 184 184 121
Width: 339
VWidth: 0
Flags: HMW
LayerCount: 2
Fore
SplineSet
160.94 35.695 m 1
 202.585 35.695 l 1
 125.9175 -61.2825 l 1
 136.91 -56.1475 145.625 -51.605 158.5925 -52.1975 c 0
 194.5925 -55.105 223.5 -83.395 218.8025 -126.8025 c 0
 212.105 -183.8025 153.4075 -220 99.71 -219.5 c 0
 64.605 -219.5 42.8025 -206.1975 18 -181.0925 c 1
 43.65 -155.7325 l 1
 62.6125 -172.195 77.47 -183.1825 103.13 -183.1825 c 0
 138.53 -183.1825 176.59 -160.1525 181.17 -125.6975 c 0
 184.7625 -97.47 164.3925 -80.23 136.4175 -79.1375 c 0
 115.3875 -77.7425 88.9125 -87.6125 67.135 -99.2975 c 1
 160.94 35.695 l 1
EndSplineSet
EndChar

StartChar: questiondown
Encoding: 191 191 122
Width: 534
VWidth: 0
Flags: HMW
LayerCount: 2
Fore
SplineSet
123.065 191.9025 m 0
 107.3925 106.49 159.015 40.325 253.1925 39.825 c 0
 328.475 39.325 383.715 81.2625 427.745 133.4775 c 1
 466.7975 105.6975 l 1
 411.0875 40.185 345.3775 -10.3025 243.0125 -9.5 c 0
 124.0925 -8.5 54.0175 83.155 71.0175 192.4025 c 0
 90.4125 304.9525 199.19 380.1075 315.56 391.435 c 1
 344.2575 529.6975 l 1
 383.2175 530 l 1
 368.2925 355 l 1
 353.47 355.1975 l 1
 225.9175 349.34 138.7875 274.5325 123.065 191.9025 c 0
426.835 674.8 m 0
 424.8225 656.2925 402.895 637.18 384.085 638.0875 c 0
 364.67 638.995 350.99 656.7 353.0025 676.01 c 0
 355.015 694.5175 376.64 713.63 395.45 712.7225 c 0
 414.865 711.815 428.8475 694.11 426.835 674.8 c 0
EndSplineSet
EndChar

StartChar: multiply
Encoding: 215 215 123
Width: 570
VWidth: 0
Flags: HMW
LayerCount: 2
Fore
SplineSet
83.8475 31.875 m 1
 53.345 70.335 l 1
 270.325 255.815 l 1
 116.8075 442.9925 l 1
 157.28 478.125 l 1
 306.075 288.6325 l 1
 520.635 477.73 l 1
 551.1375 439.27 l 1
 333.7625 253.395 l 1
 486.885 66.6125 l 1
 446.4125 31.48 l 1
 297.815 220.5775 l 1
 83.8475 31.875 l 1
EndSplineSet
EndChar

StartChar: Oslash
Encoding: 216 216 124
Width: 766
VWidth: 0
Flags: HMW
LayerCount: 2
Fore
SplineSet
132.8375 350 m 0
 109.06 194.1875 190.6825 47.665 359.0875 46.8625 c 0
 529.4925 46.06 666.065 185.3975 693.04 350 c 0
 716.8175 505.8125 635.195 652.335 466.79 653.1375 c 0
 296.385 653.94 159.8125 514.6025 132.8375 350 c 0
74.6475 350 m 0
 105.1475 545.8025 270.1975 709.71 472.13 709.21 c 0
 671.4575 708.71 778.5325 536.71 751.23 350 c 0
 720.73 154.1975 555.68 -9.71 353.7475 -9.21 c 0
 154.42 -8.71 47.345 163.29 74.6475 350 c 0
775.3875 742.785 m 1
 811.705 715.4125 l 1
 52.6125 -42.785 l 1
 17.0975 -15.4125 l 1
 775.3875 742.785 l 1
EndSplineSet
EndChar

StartChar: Thorn
Encoding: 222 222 125
Width: 521
VWidth: 0
Flags: HMW
LayerCount: 2
Fore
SplineSet
169.29 699.5 m 1
 224.9675 699.8025 l 1
 103.9675 0 l 1
 50.605 0 l 1
 169.29 699.5 l 1
165.2425 507.65 m 1
 174.805 560 l 1
 317.0325 560 l 1
 444.0325 557.5 534.2425 473.8025 514.8475 349.6975 c 0
 494.755 222.895 380.255 142.5 249.0575 140 c 1
 102.5025 140 l 1
 112.065 192.35 l 1
 254.2925 192.35 l 1
 355.0125 194.745 443.01 253.6625 459.985 350 c 0
 476.1575 446.3125 409.0175 504.65 311.7975 507.3475 c 1
 165.2425 507.65 l 1
EndSplineSet
EndChar

StartChar: divide
Encoding: 247 247 126
Width: 604
VWidth: 0
Flags: HMW
LayerCount: 2
Fore
SplineSet
313.6825 451 m 0
 315.695 469.5075 337.32 488.62 356.13 487.7125 c 0
 375.545 486.805 389.5275 469.1 387.515 449.79 c 0
 385.5025 431.2825 363.8775 412.17 345.0675 413.0775 c 0
 325.6525 413.985 311.67 431.69 313.6825 451 c 0
246.22 55.2 m 0
 248.2325 73.7075 269.8575 92.82 288.6675 91.9125 c 0
 308.0825 91.005 321.96 73.3 319.9475 53.99 c 0
 317.935 35.4825 296.31 16.37 277.5 17.2775 c 0
 258.085 18.185 244.2075 35.89 246.22 55.2 c 0
70.395 229.2525 m 1
 79.05 281.3 l 1
 565.26 281.3 l 1
 556.5 228.95 l 1
 70.395 229.2525 l 1
EndSplineSet
EndChar

StartChar: oslash
Encoding: 248 248 127
Width: 529
VWidth: 0
Flags: HMW
LayerCount: 2
Fore
SplineSet
49.1475 230 m 0
 69.345 361.605 182.8575 469.6975 317.765 469.5 c 0
 451.1725 469.3025 527.3025 356.5125 508.8025 230 c 0
 488.605 98.395 374.895 -9.6975 239.9875 -9.5 c 0
 106.58 -9.3025 30.6475 103.4875 49.1475 230 c 0
101.4975 230 m 0
 86.22 131.4775 139.8975 40.325 244.42 39.825 c 0
 350.14 39.325 439.4775 126.0825 456.4525 230 c 0
 471.73 328.5225 418.0525 419.675 313.53 420.175 c 0
 207.81 420.675 118.4725 333.9175 101.4975 230 c 0
490.61 496.4325 m 1
 519.9825 481.4625 l 1
 52.1925 -40.4325 l 1
 23.0175 -25.4625 l 1
 490.61 496.4325 l 1
EndSplineSet
EndChar

StartChar: circumflex
Encoding: 710 710 128
Width: 465
VWidth: 0
Flags: HMW
LayerCount: 2
Fore
SplineSet
322.6475 673.335 m 1
 179.49 563.7325 l 1
 150.5 591.3025 l 1
 329.0925 729.8025 l 1
 462.3025 589.395 l 1
 426.9725 563.3375 l 1
 322.6475 673.335 l 1
EndSplineSet
EndChar

StartChar: ogonek
Encoding: 731 731 129
Width: 248
VWidth: 0
Flags: HMW
LayerCount: 2
Fore
SplineSet
154.2525 -147.1825 m 1
 172.05 -180.8025 l 1
 149.76 -200.5 117.495 -219.395 77.705 -219.5 c 0
 12.2225 -219.9075 -29.5 -183.7525 -21.9875 -127.4 c 0
 -12.185 -58.24 69.8075 -14.2275 136.4 18.575 c 1
 161.865 0 l 1
 108.5575 -25.8575 38.2575 -63.11 31.0725 -115.8 c 0
 27.585 -151.12 50.75 -171.7925 85.1625 -173.2 c 0
 113.4825 -174.305 136.5925 -160.645 154.2525 -147.1825 c 1
EndSplineSet
EndChar

StartChar: tilde
Encoding: 732 732 130
Width: 514
VWidth: 0
Flags: HMW
LayerCount: 2
Fore
SplineSet
192.775 635.585 m 1
 207.825 672.66 242.555 707.4075 287.79 706.5 c 0
 338.0125 705.895 354.0925 659.1975 401.29 660.5 c 0
 426.66 661.3025 445.2775 682.605 463.5925 707.5 c 1
 491.65 679.695 l 1
 470.73 647.17 437.0375 614.99 394.95 616.2 c 0
 348.2525 617.1075 326.6475 662.6075 284.6475 662.2 c 0
 248.555 661.7925 233.87 633.07 225.6725 612.2 c 1
 192.775 635.585 l 1
EndSplineSet
EndChar

StartChar: ring
Encoding: 730 730 131
Width: 269
VWidth: 0
Flags: HMW
LayerCount: 2
Fore
SplineSet
142.1975 785.8025 m 0
 150.0925 841 204.395 885 257.5925 884.5 c 0
 310.5925 884 349 838.5 341.3025 784.1975 c 0
 333.4075 729 279.105 685 225.9075 685.5 c 0
 172.9075 686 134.5 731.5 142.1975 785.8025 c 0
176.2 784.6975 m 0
 171.62 749.9025 195.3475 719.1875 228.8275 717.885 c 0
 262.8075 716.28 302.5225 749.31 307.3 785.3025 c 0
 311.88 820.0975 288.1525 850.8125 254.6725 852.115 c 0
 220.6925 853.72 180.9775 820.69 176.2 784.6975 c 0
EndSplineSet
EndChar

StartChar: dotaccent
Encoding: 729 729 132
Width: 268
VWidth: 0
Flags: HMW
LayerCount: 2
Fore
SplineSet
202.66 775.2 m 0
 204.6725 793.7075 226.2975 812.82 245.1075 811.9125 c 0
 264.5225 811.005 278.2025 793.3 276.19 773.99 c 0
 274.1775 755.4825 252.75 736.37 233.94 737.2775 c 0
 214.525 738.185 200.6475 755.89 202.66 775.2 c 0
EndSplineSet
EndChar

StartChar: uni2010
Encoding: 8208 8208 133
Width: 203
VWidth: 0
Flags: HMW
LayerCount: 2
Fore
SplineSet
16.345 225.9775 m 1
 24.5 275 l 1
 219.9075 275 l 1
 211.2525 225.9775 l 1
 16.345 225.9775 l 1
EndSplineSet
EndChar

StartChar: endash
Encoding: 8211 8211 134
Width: 718
VWidth: 0
Flags: HMW
LayerCount: 2
Fore
SplineSet
79.6475 225.9775 m 1
 87.5 275 l 1
 670.9075 275 l 1
 662.7525 225.675 l 1
 79.6475 225.9775 l 1
EndSplineSet
EndChar

StartChar: figuredash
Encoding: 8210 8210 135
Width: 572
VWidth: 0
Flags: HMW
LayerCount: 2
Fore
SplineSet
79.6475 225.9775 m 1
 87.5 275 l 1
 525.4075 275 l 1
 517.2525 225.675 l 1
 79.6475 225.9775 l 1
EndSplineSet
EndChar

StartChar: emdash
Encoding: 8212 8212 136
Width: 863
VWidth: 0
Flags: HMW
LayerCount: 2
Fore
SplineSet
79.6475 225.9775 m 1
 87.5 275 l 1
 816.4075 275 l 1
 808.2525 225.675 l 1
 79.6475 225.9775 l 1
EndSplineSet
EndChar

StartChar: minus
Encoding: 8722 8722 137
Width: 572
VWidth: 0
Flags: HMW
LayerCount: 2
Fore
SplineSet
79.6475 225.9775 m 1
 87.5 275 l 1
 525.4075 275 l 1
 517.2525 225.675 l 1
 79.6475 225.9775 l 1
EndSplineSet
EndChar

StartChar: quoteright
Encoding: 8217 8217 138
Width: 254
VWidth: 0
Flags: HMW
LayerCount: 2
Fore
SplineSet
222.5825 699.3025 m 1
 285.705 699.3025 l 1
 149.4825 471 l 1
 112.2575 471 l 1
 222.5825 699.3025 l 1
EndSplineSet
EndChar

StartChar: quoteleft
Encoding: 8216 8216 139
Width: 247
VWidth: 0
Flags: HMW
LayerCount: 2
Fore
SplineSet
178.4625 470.6975 m 1
 114.84 470.6975 l 1
 251.0625 699 l 1
 288.59 699 l 1
 178.4625 470.6975 l 1
EndSplineSet
EndChar

StartChar: quotesinglbase
Encoding: 8218 8218 140
Width: 254
VWidth: 0
Flags: HMW
LayerCount: 2
Fore
SplineSet
114.93 79.3025 m 1
 178.25 79.3025 l 1
 42.0275 -149 l 1
 4.8025 -149 l 1
 114.93 79.3025 l 1
EndSplineSet
EndChar

StartChar: quotedblleft
Encoding: 8220 8220 141
Width: 425
VWidth: 0
Flags: HMW
LayerCount: 2
Fore
SplineSet
185.9675 470.6975 m 1
 122.5425 470.6975 l 1
 258.765 699 l 1
 296.2925 699 l 1
 185.9675 470.6975 l 1
357.0575 470.6975 m 1
 293.6325 470.6975 l 1
 429.6575 699 l 1
 467.3825 699 l 1
 357.0575 470.6975 l 1
EndSplineSet
EndChar

StartChar: quotedblright
Encoding: 8221 8221 142
Width: 425
VWidth: 0
Flags: HMW
LayerCount: 2
Fore
SplineSet
214.88 699.3025 m 1
 278.0025 699.3025 l 1
 141.9775 471 l 1
 104.555 471 l 1
 214.88 699.3025 l 1
385.97 699.3025 m 1
 449.395 699.3025 l 1
 313.1725 471 l 1
 275.645 471 l 1
 385.97 699.3025 l 1
EndSplineSet
EndChar

StartChar: perthousand
Encoding: 8240 8240 143
Width: 1074
VWidth: 0
Flags: HMW
LayerCount: 2
Fore
SplineSet
738.7 146.55 m 0
 751.7 230.3775 823.225 301.7975 913.75 301.6 c 0
 1003.775 301.4025 1051.1025 226.8775 1039.1025 145.55 c 0
 1026.1025 61.7225 954.5775 -9.6975 864.0525 -9.5 c 0
 774.0275 -9.3025 726.7 65.2225 738.7 146.55 c 0
785 146.05 m 0
 776.2225 90.675 803.925 34.485 867.88 33.38 c 0
 932.335 32.275 983.025 87.78 992.8025 146.05 c 0
 1001.58 201.6225 973.68 257.22 909.9225 258.325 c 0
 845.4675 259.43 794.7775 204.32 785 146.05 c 0
100.79 554.45 m 0
 113.79 638.2775 185.0125 709.6975 275.5375 709.5 c 0
 365.5625 709.3025 413.1925 634.7775 401.1925 553.45 c 0
 388.1925 469.6225 316.6675 398.2025 226.1425 398.4 c 0
 136.1175 398.5975 88.79 473.1225 100.79 554.45 c 0
146.7875 553.95 m 0
 138.01 498.575 166.015 442.385 229.97 441.28 c 0
 294.425 440.175 345.115 495.68 354.8925 553.95 c 0
 363.67 609.5225 335.77 665.12 272.0125 666.225 c 0
 207.5575 667.33 156.565 612.22 146.7875 553.95 c 0
373.9525 146.55 m 0
 386.9525 230.3775 458.175 301.7975 548.7 301.6 c 0
 638.725 301.4025 686.0525 226.8775 674.0525 145.55 c 0
 661.0525 61.7225 589.83 -9.6975 499.305 -9.5 c 0
 409.28 -9.3025 361.9525 65.2225 373.9525 146.55 c 0
419.95 146.05 m 0
 411.1725 90.675 438.98 34.485 502.935 33.38 c 0
 567.39 32.275 618.2775 87.78 628.055 146.05 c 0
 636.8325 201.6225 608.63 257.22 544.8725 258.325 c 0
 480.4175 259.43 429.7275 204.32 419.95 146.05 c 0
641.24 699.3025 m 1
 693.17 699.3025 l 1
 133.3 0 l 1
 82.9875 0 l 1
 641.24 699.3025 l 1
EndSplineSet
EndChar

StartChar: guilsinglleft
Encoding: 8249 8249 144
Width: 329
VWidth: 0
Flags: HMW
LayerCount: 2
Fore
SplineSet
111.9925 257.1175 m 1
 244.0575 49.385 l 1
 207.5175 20 l 1
 55 257.21 l 1
 285.7025 489.3025 l 1
 314.39 458.7075 l 1
 111.9925 257.1175 l 1
EndSplineSet
EndChar

StartChar: guilsinglright
Encoding: 8250 8250 145
Width: 339
VWidth: 0
Flags: HMW
LayerCount: 2
Fore
SplineSet
260.205 252.8825 m 1
 128.245 460.615 l 1
 164.68 490 l 1
 317.5 252.79 l 1
 86.7975 20.6975 l 1
 58.11 51.2925 l 1
 260.205 252.8825 l 1
EndSplineSet
EndChar

StartChar: uni2031
Encoding: 8241 8241 146
Width: 1439
VWidth: 0
Flags: HMW
LayerCount: 2
Fore
SplineSet
1103.75 146.55 m 0
 1116.75 230.3775 1188.17 301.7975 1278.695 301.6 c 0
 1368.72 301.4025 1416.1525 226.8775 1404.1525 145.55 c 0
 1391.1525 61.7225 1319.6275 -9.6975 1229.1025 -9.5 c 0
 1139.0775 -9.3025 1091.75 65.2225 1103.75 146.55 c 0
1149.7475 146.05 m 0
 1140.97 90.675 1168.975 34.485 1232.93 33.38 c 0
 1297.385 32.275 1348.2725 87.78 1358.05 146.05 c 0
 1366.8275 201.6225 1338.4275 257.22 1274.67 258.325 c 0
 1210.215 259.43 1159.525 204.32 1149.7475 146.05 c 0
738.7 146.55 m 0
 751.7 230.3775 823.225 301.7975 913.75 301.6 c 0
 1003.775 301.4025 1051.1025 226.8775 1039.1025 145.55 c 0
 1026.1025 61.7225 954.5775 -9.6975 864.0525 -9.5 c 0
 774.0275 -9.3025 726.7 65.2225 738.7 146.55 c 0
785 146.05 m 0
 776.2225 90.675 803.925 34.485 867.88 33.38 c 0
 932.335 32.275 983.025 87.78 992.8025 146.05 c 0
 1001.58 201.6225 973.68 257.22 909.9225 258.325 c 0
 845.4675 259.43 794.7775 204.32 785 146.05 c 0
100.79 554.45 m 0
 113.79 638.2775 185.0125 709.6975 275.5375 709.5 c 0
 365.5625 709.3025 413.1925 634.7775 401.1925 553.45 c 0
 388.1925 469.6225 316.6675 398.2025 226.1425 398.4 c 0
 136.1175 398.5975 88.79 473.1225 100.79 554.45 c 0
146.7875 553.95 m 0
 138.01 498.575 166.015 442.385 229.97 441.28 c 0
 294.425 440.175 345.115 495.68 354.8925 553.95 c 0
 363.67 609.5225 335.77 665.12 272.0125 666.225 c 0
 207.5575 667.33 156.565 612.22 146.7875 553.95 c 0
373.9525 146.55 m 0
 386.9525 230.3775 458.175 301.7975 548.7 301.6 c 0
 638.725 301.4025 686.0525 226.8775 674.0525 145.55 c 0
 661.0525 61.7225 589.83 -9.6975 499.305 -9.5 c 0
 409.28 -9.3025 361.9525 65.2225 373.9525 146.55 c 0
419.95 146.05 m 0
 411.1725 90.675 438.98 34.485 502.935 33.38 c 0
 567.39 32.275 618.2775 87.78 628.055 146.05 c 0
 636.8325 201.6225 608.63 257.22 544.8725 258.325 c 0
 480.4175 259.43 429.7275 204.32 419.95 146.05 c 0
641.24 699.3025 m 1
 693.17 699.3025 l 1
 133.3 0 l 1
 82.9875 0 l 1
 641.24 699.3025 l 1
EndSplineSet
EndChar

StartChar: uni203D
Encoding: 8253 8253 147
Width: 540
VWidth: 0
Flags: HMW
LayerCount: 2
Fore
SplineSet
476.905 507.9 m 0
 491.59 593.51 441.5475 659.675 346.58 660.175 c 0
 271.2975 660.675 216.36 618.7375 172.33 566.5225 c 1
 133.475 594.3025 l 1
 189.185 659.815 254.6975 710.3025 357.0625 709.5 c 0
 475.9825 708.5 546.255 616.845 529.255 507.5975 c 0
 509.9525 393.8125 401.9825 315.7625 287.235 308.46 c 1
 259.3625 345.8025 l 1
 367.165 351.1975 458.51 415.87 476.905 507.9 c 0
272.25 509.8025 m 1
 337.595 509.5 l 1
 265.415 170.5 l 1
 227.0475 170.5 l 1
 272.25 509.8025 l 1
184.695 25.2 m 0
 186.7075 43.7075 208.3325 62.82 227.1425 61.9125 c 0
 246.5575 61.005 260.435 43.3 258.4225 23.99 c 0
 256.41 5.4825 234.785 -13.63 215.975 -12.7225 c 0
 196.56 -11.815 182.6825 5.89 184.695 25.2 c 0
EndSplineSet
EndChar

StartChar: Euro
Encoding: 8364 8364 148
Width: 608
VWidth: 0
Flags: HMW
LayerCount: 2
Fore
SplineSet
82.175 422.3125 m 1
 87.6075 454.6975 l 1
 574.41 454.6975 l 1
 569.28 422.3125 l 1
 82.175 422.3125 l 1
61.675 302.3125 m 1
 67.1075 334.6975 l 1
 528.91 334.6975 l 1
 523.28 302.3125 l 1
 61.675 302.3125 l 1
185.2775 350 m 0
 165.6975 204.4775 207.8325 44.0475 360.1575 42.85 c 0
 418.17 42.35 471.275 65.3875 517.0775 97.2275 c 1
 506.515 30.8025 l 1
 459.8175 7 408.8175 -9.6975 355.12 -9.5 c 0
 170.62 -8.8025 107.205 174.7775 130.5075 350 c 0
 158.0075 538.21 290.2925 709.8025 474.3975 709.5 c 0
 525.7 709.5 572.0025 694.1975 615.1075 669.1975 c 1
 604.44 602.1675 l 1
 566.755 637.1125 522.57 657.65 469.1625 657.65 c 0
 314.9675 657.9525 209.2525 509.2075 185.2775 350 c 0
EndSplineSet
EndChar

StartChar: fraction
Encoding: 8260 8260 149
Width: 684
VWidth: 0
Flags: HMW
LayerCount: 2
Fore
SplineSet
674.1325 699 m 1
 718.6975 698.6975 l 1
 74.8675 0 l 1
 30.5 0 l 1
 674.1325 699 l 1
EndSplineSet
EndChar

StartChar: onequarter
Encoding: 188 188 150
Width: 731
VWidth: 0
Flags: HMW
LayerCount: 2
Fore
SplineSet
711.1325 699 m 1
 755.5 698.6975 l 1
 111.8675 0 l 1
 67.5 0 l 1
 711.1325 699 l 1
106.6975 633.5275 m 1
 111.9325 667.7525 l 1
 245.225 699.1175 l 1
 171.5275 274.5 l 1
 138.3025 274.5 l 1
 203.45 657.645 l 1
 106.6975 633.5275 l 1
374.685 84.605 m 1
 405.0825 112.99 l 1
 596.1975 113.595 l 1
 603.0375 113.595 l 1
 681.1375 113.2925 l 1
 676.4025 84.3025 l 1
 374.685 84.605 l 1
409.725 85 m 1
 373.9875 85.3025 l 1
 656.0925 418.8025 l 1
 669.205 419.5 l 1
 598.0075 0 l 1
 564.7825 0 l 1
 581.5975 97.705 l 1
 582.2025 102.52 l 1
 623.195 339.815 l 1
 409.725 85 l 1
EndSplineSet
EndChar

StartChar: onehalf
Encoding: 189 189 151
Width: 794
VWidth: 0
Flags: HMW
LayerCount: 2
Fore
SplineSet
711.1325 699 m 1
 755.5 698.6975 l 1
 111.8675 0 l 1
 67.5 0 l 1
 711.1325 699 l 1
106.6975 633.5275 m 1
 111.9325 667.7525 l 1
 245.225 699.1175 l 1
 171.5275 274.5 l 1
 138.3025 274.5 l 1
 203.45 657.645 l 1
 106.6975 633.5275 l 1
452.685 2.8025 m 1
 676.6175 209.26 l 2
 706.6975 237.34 736.055 268.025 742.845 308.765 c 0
 749.7275 349.9 728.8575 394.985 674.075 396.7875 c 0
 609.3725 399.195 567.0275 340.9 553.3425 279 c 1
 520.1175 279 l 1
 536.7225 358.6175 590.7475 429.6975 675.89 428.5 c 0
 753.44 427.605 785.7675 363.08 776.1625 306.0425 c 0
 768.6625 259.8575 736.2925 223.0425 701.885 191.135 c 2
 527.37 33.91 l 1
 736.44 33.1075 l 1
 731.205 2.3025 l 1
 452.685 2.8025 l 1
EndSplineSet
EndChar

StartChar: threequarters
Encoding: 190 190 152
Width: 795
VWidth: 0
Flags: HMW
LayerCount: 2
Fore
SplineSet
776.1325 699 m 1
 820.6975 698.6975 l 1
 176.8675 0 l 1
 132.5 0 l 1
 776.1325 699 l 1
197.6975 491.7525 m 1
 201.1175 513.0875 l 1
 253.2775 518.0875 304.22 544.76 313.905 595.765 c 0
 320.7875 636.4925 298.5725 673.9975 251.58 675.3 c 0
 202.0075 676.905 166.57 638.7825 154.2925 597 c 1
 122.2775 597.3025 l 1
 137.475 657.3025 184.5925 706.5 253.5925 705.5 c 0
 319.8025 704.5 356.63 651.895 347.13 595.87 c 0
 335.4325 530.1725 267.55 496.2525 197.6975 491.7525 c 1
180.1175 274.5 m 0
 102.815 274.6975 66.08 326.0925 70.1725 391 c 1
 103.095 391 l 1
 101.3175 343.2175 124.675 306.7125 181.9325 305.91 c 0
 235.925 305.1075 282.7325 342.65 290.4175 392.5625 c 0
 299.905 452.765 247.6475 478.2025 196.185 483.0975 c 1
 199.9075 504.735 l 1
 269.6675 500.1425 335.445 466.76 323.6425 388.13 c 0
 313.6425 321.4075 251.025 274.3025 180.1175 274.5 c 0
439.685 84.605 m 1
 470.0825 112.99 l 1
 661.1975 113.595 l 1
 668.0375 113.595 l 1
 746.1375 113.2925 l 1
 741.4025 84.3025 l 1
 439.685 84.605 l 1
474.9225 85 m 1
 438.9875 85.3025 l 1
 721.0925 418.8025 l 1
 734.205 419.5 l 1
 663.0075 0 l 1
 629.7825 0 l 1
 646.5975 97.705 l 1
 647.4 102.52 l 1
 688.195 339.815 l 1
 474.9225 85 l 1
EndSplineSet
EndChar

StartChar: uni2150
Encoding: 8528 8528 153
Width: 817
VWidth: 0
Flags: HMW
LayerCount: 2
Fore
SplineSet
662.6325 699 m 1
 707 698.6975 l 1
 63.3675 0 l 1
 19 0 l 1
 662.6325 699 l 1
106.6975 633.5275 m 1
 111.9325 667.7525 l 1
 245.225 699.1175 l 1
 171.5275 274.5 l 1
 138.3025 274.5 l 1
 203.45 657.645 l 1
 106.6975 633.5275 l 1
543.74 388.8925 m 1
 548.6725 419.6975 l 1
 831.6425 419.5 l 1
 556.045 0 l 1
 520.715 0 l 1
 774.7675 388.09 l 1
 543.74 388.8925 l 1
EndSplineSet
EndChar

StartChar: uni2151
Encoding: 8529 8529 154
Width: 760
VWidth: 0
Flags: HMW
LayerCount: 2
Fore
SplineSet
662.6325 699 m 1
 707 698.6975 l 1
 63.3675 0 l 1
 19 0 l 1
 662.6325 699 l 1
106.6975 633.5275 m 1
 111.9325 667.7525 l 1
 245.225 699.1175 l 1
 171.5275 274.5 l 1
 138.3025 274.5 l 1
 203.45 657.645 l 1
 106.6975 633.5275 l 1
720.16 286.37 m 0
 728.845 343.7825 699.4875 396.4975 637.89 397.3 c 0
 575.99 398.405 523.25 346.48 513.7625 286.37 c 0
 505.67 231.13 536.6075 179.495 594.4525 177.995 c 0
 657.9325 176.495 710.475 228.8275 720.16 286.37 c 0
540.6875 3 m 1
 498.0975 3.5 l 1
 663.09 187.7325 l 1
 666.01 184.905 l 1
 642.9675 165.27 615.055 152.0425 582.05 152.74 c 0
 512.445 153.74 473.3525 220.055 482.55 286.87 c 0
 493.8525 365.1975 559.995 427.895 639.705 427.5 c 0
 719.6125 427.105 763.175 362.1975 751.8725 286.0675 c 0
 746.4775 252.2775 728.41 220.105 708.3175 196.21 c 1
 540.6875 3 l 1
EndSplineSet
EndChar

StartChar: uni2152
Encoding: 8530 8530 155
Width: 1048
VWidth: 0
Flags: HMW
LayerCount: 2
Fore
SplineSet
662.6325 699 m 1
 707 698.6975 l 1
 63.3675 0 l 1
 19 0 l 1
 662.6325 699 l 1
106.6975 633.5275 m 1
 111.9325 667.7525 l 1
 245.225 699.1175 l 1
 171.5275 274.5 l 1
 138.3025 274.5 l 1
 203.45 657.645 l 1
 106.6975 633.5275 l 1
487.12 360.5275 m 1
 492.355 394.7525 l 1
 625.45 426.1175 l 1
 551.6475 1.5 l 1
 518.725 1.5 l 1
 583.8725 384.645 l 1
 487.12 360.5275 l 1
759.7925 210 m 0
 750.7 132.26 755.8975 27.2125 835.7175 25.91 c 0
 915.34 24.6075 965.8025 123.47 978.395 210 c 0
 987.4875 287.74 982.4875 392.7875 902.6675 394.09 c 0
 823.045 395.3925 772.385 296.53 759.7925 210 c 0
726.1725 210 m 0
 740.475 315.0375 806.445 426 904.18 425.5 c 0
 1003.52 424.8025 1023.62 306.8525 1011.91 210 c 0
 997.6075 104.9625 931.6375 -6 833.9025 -5.5 c 0
 734.5625 -4.8025 714.4625 113.1475 726.1725 210 c 0
EndSplineSet
EndChar

StartChar: onethird
Encoding: 8531 8531 156
Width: 732
VWidth: 0
Flags: HMW
LayerCount: 2
Fore
SplineSet
662.6325 699 m 1
 707 698.6975 l 1
 63.3675 0 l 1
 19 0 l 1
 662.6325 699 l 1
106.6975 633.5275 m 1
 111.9325 667.7525 l 1
 245.225 699.1175 l 1
 171.5275 274.5 l 1
 138.3025 274.5 l 1
 203.45 657.645 l 1
 106.6975 633.5275 l 1
569.895 211.7525 m 1
 573.6175 233.0875 l 1
 625.7775 238.0875 676.72 264.76 686.405 315.765 c 0
 693.2875 356.4925 671.0725 393.9975 624.08 395.3 c 0
 574.5075 396.905 539.07 358.7825 526.7925 317 c 1
 494.7775 317.3025 l 1
 509.975 377.3025 556.895 426.5 625.895 425.5 c 0
 692.105 424.5 729.13 371.895 719.63 315.87 c 0
 707.9325 250.1725 639.7475 216.2525 569.895 211.7525 c 1
552.315 -5.5 m 0
 475.0125 -5.3025 438.58 46.0925 442.6725 111 c 1
 475.595 111 l 1
 473.8175 63.2175 497.175 26.7125 554.4325 25.91 c 0
 608.425 25.1075 655.2325 62.65 662.9175 112.5625 c 0
 672.405 172.765 619.845 198.2025 568.3825 203.0975 c 1
 572.4075 224.735 l 1
 642.1675 220.1425 707.6425 186.76 695.84 108.13 c 0
 685.84 41.4075 623.2225 -5.6975 552.315 -5.5 c 0
EndSplineSet
EndChar

StartChar: twothirds
Encoding: 8532 8532 157
Width: 855
VWidth: 0
Flags: HMW
LayerCount: 2
Fore
SplineSet
786.1325 699 m 1
 830.5 698.6975 l 1
 186.3675 0 l 1
 142 0 l 1
 786.1325 699 l 1
51.185 282.8025 m 1
 275.1175 489.655 l 2
 305.1975 517.735 334.555 548.42 341.345 589.16 c 0
 348.2275 630.295 327.3575 675.1825 272.575 676.7875 c 0
 207.8725 679.195 165.5275 620.9 151.8425 559 c 1
 118.6175 559 l 1
 135.2225 638.6175 189.2475 709.6975 274.39 708.5 c 0
 351.94 707.8025 383.8725 643.475 374.2675 586.4375 c 0
 366.7675 540.2525 334.49 503.0425 300.0825 471.135 c 2
 125.87 313.91 l 1
 334.94 313.1075 l 1
 329.705 282.3025 l 1
 51.185 282.8025 l 1
693.1975 211.7525 m 1
 696.92 233.0875 l 1
 749.08 238.0875 800.0225 264.76 809.7075 315.765 c 0
 816.59 356.4925 794.27 393.9975 747.2775 395.3 c 0
 697.705 396.905 662.57 358.7825 650.2925 317 c 1
 617.975 317.3025 l 1
 633.1725 377.3025 680.395 426.5 749.395 425.5 c 0
 815.605 424.5 852.13 371.895 842.63 315.87 c 0
 830.9325 250.1725 763.05 216.2525 693.1975 211.7525 c 1
675.815 -5.5 m 0
 598.5125 -5.3025 561.7775 46.0925 565.87 111 c 1
 598.7925 111 l 1
 597.015 63.2175 620.3725 26.7125 677.63 25.91 c 0
 731.6225 25.1075 778.2325 62.65 785.9175 112.5625 c 0
 795.405 172.765 743.345 198.2025 691.8825 203.0975 c 1
 695.4075 224.735 l 1
 765.1675 220.1425 830.945 186.76 819.1425 108.13 c 0
 809.1425 41.4075 746.7225 -5.6975 675.815 -5.5 c 0
EndSplineSet
EndChar

StartChar: uni2155
Encoding: 8533 8533 158
Width: 722
VWidth: 0
Flags: HMW
LayerCount: 2
Fore
SplineSet
662.6325 699 m 1
 707 698.6975 l 1
 63.3675 0 l 1
 19 0 l 1
 662.6325 699 l 1
106.6975 633.5275 m 1
 111.9325 667.7525 l 1
 245.225 699.1175 l 1
 171.5275 274.5 l 1
 138.3025 274.5 l 1
 203.45 657.645 l 1
 106.6975 633.5275 l 1
677.9525 135.5 m 0
 665.9525 49.9875 596.625 -7.6975 516.205 -7.5 c 0
 450.365 -7.5 414.815 29.21 393.6725 80.605 c 1
 423.175 99.335 l 1
 439.175 57.6075 467.99 24.41 518.02 23.91 c 0
 582.4325 23.41 634.135 71.5325 643.82 136 c 0
 652.215 192.24 622.4375 240.1525 565 242.56 c 0
 519.76 244.3625 482.6125 223.4375 444.995 195.3025 c 1
 470.7 225.6 l 1
 497.3175 253.1925 538.5825 273.4575 579.8225 272.76 c 0
 651.9525 271.5625 687.755 206.3275 677.9525 135.5 c 0
558.2375 388.2075 m 1
 492.585 233.465 l 1
 441.47 191.975 l 1
 536.5875 417.5 l 1
 729.1925 417.6975 l 1
 724.5625 388.7075 l 1
 558.2375 388.2075 l 1
EndSplineSet
EndChar

StartChar: uni2156
Encoding: 8534 8534 159
Width: 845
VWidth: 0
Flags: HMW
LayerCount: 2
Fore
SplineSet
786.1325 699 m 1
 830.5 698.6975 l 1
 186.3675 0 l 1
 142 0 l 1
 786.1325 699 l 1
51.185 282.8025 m 1
 275.1175 489.655 l 2
 305.1975 517.735 334.555 548.42 341.345 589.16 c 0
 348.2275 630.295 327.3575 675.1825 272.575 676.7875 c 0
 207.8725 679.195 165.5275 620.9 151.8425 559 c 1
 118.6175 559 l 1
 135.2225 638.6175 189.2475 709.6975 274.39 708.5 c 0
 351.94 707.8025 383.8725 643.475 374.2675 586.4375 c 0
 366.7675 540.2525 334.49 503.0425 300.0825 471.135 c 2
 125.87 313.91 l 1
 334.94 313.1075 l 1
 329.705 282.3025 l 1
 51.185 282.8025 l 1
800.9525 135.5 m 0
 788.9525 49.9875 719.8225 -7.6975 639.4025 -7.5 c 0
 573.5625 -7.5 538.1175 29.21 516.975 80.605 c 1
 546.675 99.335 l 1
 562.675 57.6075 591.1875 24.41 641.2175 23.91 c 0
 705.63 23.41 757.135 71.5325 766.82 136 c 0
 775.215 192.24 745.9375 240.1525 688.5 242.56 c 0
 643.26 244.3625 606.1125 223.4375 568.495 195.3025 c 1
 593.7 225.6 l 1
 620.3175 253.1925 661.78 273.4575 703.02 272.76 c 0
 775.15 271.5625 810.755 206.3275 800.9525 135.5 c 0
681.2375 388.2075 m 1
 616.085 233.465 l 1
 564.47 191.975 l 1
 659.5875 417.5 l 1
 852.495 417.6975 l 1
 847.5625 388.7075 l 1
 681.2375 388.2075 l 1
EndSplineSet
EndChar

StartChar: uni2157
Encoding: 8535 8535 160
Width: 806
VWidth: 0
Flags: HMW
LayerCount: 2
Fore
SplineSet
747.1325 699 m 1
 791.5 698.6975 l 1
 147.8675 0 l 1
 103.3025 0 l 1
 747.1325 699 l 1
197.6975 491.7525 m 1
 201.1175 513.0875 l 1
 253.2775 518.0875 304.22 544.76 313.905 595.765 c 0
 320.7875 636.4925 298.5725 673.9975 251.58 675.3 c 0
 202.0075 676.905 166.57 638.7825 154.2925 597 c 1
 122.2775 597.3025 l 1
 137.475 657.3025 184.5925 706.5 253.5925 705.5 c 0
 319.8025 704.5 356.63 651.895 347.13 595.87 c 0
 335.4325 530.1725 267.55 496.2525 197.6975 491.7525 c 1
180.1175 274.5 m 0
 102.815 274.6975 66.08 326.0925 70.1725 391 c 1
 103.095 391 l 1
 101.3175 343.2175 124.675 306.7125 181.9325 305.91 c 0
 235.925 305.1075 282.7325 342.65 290.4175 392.5625 c 0
 299.905 452.765 247.6475 478.2025 196.185 483.0975 c 1
 199.9075 504.735 l 1
 269.6675 500.1425 335.445 466.76 323.6425 388.13 c 0
 313.6425 321.4075 251.025 274.3025 180.1175 274.5 c 0
762.4525 135.5 m 0
 750.4525 49.9875 681.125 -7.6975 600.705 -7.5 c 0
 534.865 -7.5 499.315 29.21 478.1725 80.605 c 1
 507.675 99.335 l 1
 523.675 57.6075 552.1875 24.41 602.2175 23.91 c 0
 666.63 23.41 718.635 71.5325 728.32 136 c 0
 736.715 192.24 706.9375 240.1525 649.5 242.56 c 0
 604.26 244.3625 567.1125 223.4375 529.495 195.3025 c 1
 555.2 225.6 l 1
 581.8175 253.1925 623.0825 273.4575 664.3225 272.76 c 0
 736.4525 271.5625 772.255 206.3275 762.4525 135.5 c 0
642.2375 388.2075 m 1
 577.085 233.465 l 1
 525.97 191.975 l 1
 620.785 417.5 l 1
 813.6925 417.6975 l 1
 808.76 388.7075 l 1
 642.2375 388.2075 l 1
EndSplineSet
EndChar

StartChar: uni2158
Encoding: 8536 8536 161
Width: 840
VWidth: 0
Flags: HMW
LayerCount: 2
Fore
SplineSet
781.1325 699 m 1
 825.5 698.6975 l 1
 181.8675 0 l 1
 137.3025 0 l 1
 781.1325 699 l 1
65.975 364.605 m 1
 96.3725 392.99 l 1
 287.4875 393.595 l 1
 294.3275 393.595 l 1
 372.625 393.2925 l 1
 367.995 364.3025 l 1
 65.975 364.605 l 1
101.515 365 m 1
 65.2775 365.3025 l 1
 347.58 699.1975 l 1
 361.285 699.5 l 1
 289.495 280.5 l 1
 256.1775 280.5 l 1
 273.19 377.705 l 1
 273.4925 382.52 l 1
 314.485 619.815 l 1
 101.515 365 l 1
796.4525 135.5 m 0
 784.4525 49.9875 715.125 -7.6975 634.705 -7.5 c 0
 568.865 -7.5 533.315 29.21 512.1725 80.605 c 1
 541.675 99.335 l 1
 557.675 57.6075 586.1875 24.41 636.2175 23.91 c 0
 700.63 23.41 752.4375 71.5325 762.1225 136 c 0
 770.5175 192.24 740.9375 240.1525 683.5 242.56 c 0
 638.26 244.3625 601.1125 223.4375 563.495 195.3025 c 1
 589.0025 225.6 l 1
 615.62 253.1925 657.0825 273.4575 698.3225 272.76 c 0
 770.4525 271.5625 806.255 206.3275 796.4525 135.5 c 0
676.2375 388.2075 m 1
 611.085 233.465 l 1
 559.97 191.975 l 1
 654.785 417.5 l 1
 847.495 417.6975 l 1
 842.76 388.7075 l 1
 676.2375 388.2075 l 1
EndSplineSet
EndChar

StartChar: uni2159
Encoding: 8537 8537 162
Width: 712
VWidth: 0
Flags: HMW
LayerCount: 2
Fore
SplineSet
662.6325 699 m 1
 707 698.6975 l 1
 63.3675 0 l 1
 19 0 l 1
 662.6325 699 l 1
106.6975 633.5275 m 1
 111.9325 667.7525 l 1
 245.225 699.1175 l 1
 171.5275 274.5 l 1
 138.3025 274.5 l 1
 203.45 657.645 l 1
 106.6975 633.5275 l 1
439.595 133.63 m 0
 430.91 76.2175 460.465 23.5025 522.0625 22.7 c 0
 583.9625 21.595 636.505 73.52 645.9925 133.63 c 0
 654.085 188.87 623.5425 240.505 565.6975 242.005 c 0
 502.2175 243.505 449.28 191.1725 439.595 133.63 c 0
619.37 417 m 1
 662.355 416.5 l 1
 497.165 232.2675 l 1
 494.245 235.095 l 1
 517.2875 254.73 544.8975 267.9575 578.1 267.26 c 0
 647.705 266.26 686.9025 199.945 677.705 133.13 c 0
 666.4025 54.8025 600.4575 -7.895 520.55 -7.5 c 0
 440.6425 -7.105 396.58 57.8025 407.8825 133.9325 c 0
 413.2775 167.7225 431.845 199.895 451.9375 223.79 c 1
 619.37 417 l 1
EndSplineSet
EndChar

StartChar: uni215A
Encoding: 8538 8538 163
Width: 830
VWidth: 0
Flags: HMW
LayerCount: 2
Fore
SplineSet
781.1325 699 m 1
 825.5 698.6975 l 1
 181.8675 0 l 1
 137.3025 0 l 1
 781.1325 699 l 1
348.9525 415.5 m 0
 336.9525 329.9875 267.8225 272.3025 187.4025 272.5 c 0
 121.5625 272.5 86.1175 309.21 64.975 360.605 c 1
 94.675 379.335 l 1
 110.675 337.6075 139.1875 304.41 189.2175 303.91 c 0
 253.63 303.41 305.135 351.5325 314.82 416 c 0
 323.215 472.24 293.9375 520.1525 236.5 522.56 c 0
 191.26 524.3625 154.1125 503.4375 116.495 475.3025 c 1
 141.7 505.6 l 1
 168.3175 533.1925 209.78 553.4575 251.02 552.76 c 0
 323.15 551.5625 358.755 486.3275 348.9525 415.5 c 0
229.2375 668.2075 m 1
 164.085 513.465 l 1
 112.47 471.975 l 1
 207.5875 697.5 l 1
 400.495 697.6975 l 1
 395.5625 668.7075 l 1
 229.2375 668.2075 l 1
558.095 133.63 m 0
 549.41 76.2175 578.7675 23.5025 640.365 22.7 c 0
 702.265 21.595 755.005 73.52 764.4925 133.63 c 0
 772.585 188.87 742.0425 240.505 684.1975 242.005 c 0
 620.7175 243.505 567.78 191.1725 558.095 133.63 c 0
737.5675 417 m 1
 780.5525 416.5 l 1
 615.4675 232.2675 l 1
 612.5475 235.095 l 1
 635.59 254.73 663.3975 267.9575 696.6 267.26 c 0
 766.205 266.26 805.1 199.945 795.9025 133.13 c 0
 784.6 54.8025 718.76 -7.895 638.8525 -7.5 c 0
 558.945 -7.105 515.08 57.8025 526.3825 133.9325 c 0
 531.7775 167.7225 549.845 199.895 569.9375 223.79 c 1
 737.5675 417 l 1
EndSplineSet
EndChar

StartChar: oneeighth
Encoding: 8539 8539 164
Width: 737
VWidth: 0
Flags: HMW
LayerCount: 2
Fore
SplineSet
662.6325 699 m 1
 707 698.6975 l 1
 63.3675 0 l 1
 19 0 l 1
 662.6325 699 l 1
106.6975 633.5275 m 1
 111.9325 667.7525 l 1
 245.225 699.1175 l 1
 171.5275 274.5 l 1
 138.3025 274.5 l 1
 203.45 657.645 l 1
 106.6975 633.5275 l 1
496.685 321.87 m 0
 505.4875 377.5 560.71 426 621.5375 425.5 c 0
 681.865 425 721.9025 375.605 713.9025 320.87 c 0
 705.4025 261.635 648.81 215.9625 588.55 216.66 c 0
 528.4875 217.16 488.2775 263.425 496.685 321.87 c 0
527.49 317.635 m 0
 521.5025 276.815 549.915 239.5075 589.26 238.205 c 0
 629.105 236.9025 675.0975 275.3275 681.585 317.845 c 0
 687.5725 358.375 663.4375 394.6025 619.7225 395.905 c 0
 575.5075 397.2075 533.9775 359.4675 527.49 317.635 c 0
447.475 113.315 m 0
 457.475 180.6675 522.105 229.655 587.945 229.155 c 0
 653.285 228.9575 700.835 178.7725 691.625 112.315 c 0
 682.02 48.105 621.6675 -6.1975 550.76 -5.5 c 0
 480.4575 -4.8025 437.7775 50.5 447.475 113.315 c 0
479.7925 116.445 m 0
 471.805 66.415 500.99 25.095 552.575 24.095 c 0
 604.765 23.095 653.03 64.2175 660.82 116.445 c 0
 667.61 163.765 635.1725 206.61 587.6425 207.61 c 0
 539.1125 208.61 487.9775 165.4625 479.7925 116.445 c 0
EndSplineSet
EndChar

StartChar: threeeighths
Encoding: 8540 8540 165
Width: 821
VWidth: 0
Flags: HMW
LayerCount: 2
Fore
SplineSet
747.1325 699 m 1
 791.5 698.6975 l 1
 147.8675 0 l 1
 103.3025 0 l 1
 747.1325 699 l 1
197.6975 491.7525 m 1
 201.1175 513.0875 l 1
 253.2775 518.0875 304.22 544.76 313.905 595.765 c 0
 320.7875 636.4925 298.5725 673.9975 251.58 675.3 c 0
 202.0075 676.905 166.57 638.7825 154.2925 597 c 1
 122.2775 597.3025 l 1
 137.475 657.3025 184.5925 706.5 253.5925 705.5 c 0
 319.8025 704.5 356.63 651.895 347.13 595.87 c 0
 335.4325 530.1725 267.55 496.2525 197.6975 491.7525 c 1
180.1175 274.5 m 0
 102.815 274.6975 66.08 326.0925 70.1725 391 c 1
 103.095 391 l 1
 101.3175 343.2175 124.675 306.7125 181.9325 305.91 c 0
 235.925 305.1075 282.7325 342.65 290.4175 392.5625 c 0
 299.905 452.765 247.6475 478.2025 196.185 483.0975 c 1
 199.9075 504.735 l 1
 269.6675 500.1425 335.445 466.76 323.6425 388.13 c 0
 313.6425 321.4075 251.025 274.3025 180.1175 274.5 c 0
580.8825 321.87 m 0
 589.685 377.5 645.21 426 706.0375 425.5 c 0
 766.365 425 806.4025 375.605 798.4025 320.87 c 0
 789.9025 261.635 733.31 215.9625 673.05 216.66 c 0
 612.9875 217.16 572.475 263.425 580.8825 321.87 c 0
611.99 317.635 m 0
 606.0025 276.815 634.415 239.5075 673.76 238.205 c 0
 713.605 236.9025 759.5975 275.3275 766.085 317.845 c 0
 772.0725 358.375 747.635 394.6025 703.92 395.905 c 0
 659.705 397.2075 618.4775 359.4675 611.99 317.635 c 0
531.975 113.315 m 0
 541.975 180.6675 606.605 229.655 672.445 229.155 c 0
 737.785 228.9575 785.335 178.7725 776.125 112.315 c 0
 766.52 48.105 706.1675 -6.1975 635.26 -5.5 c 0
 564.9575 -4.8025 522.2775 50.5 531.975 113.315 c 0
564.2925 116.445 m 0
 556.305 66.415 585.49 24.8975 637.075 24.095 c 0
 689.265 23.095 737.2275 64.2175 745.0175 116.445 c 0
 751.8075 163.765 719.6725 206.61 672.1425 207.61 c 0
 623.6125 208.61 572.4775 165.4625 564.2925 116.445 c 0
EndSplineSet
EndChar

StartChar: fiveeighths
Encoding: 8541 8541 166
Width: 855
VWidth: 0
Flags: HMW
LayerCount: 2
Fore
SplineSet
781.1325 699 m 1
 825.5 698.6975 l 1
 181.8675 0 l 1
 137.3025 0 l 1
 781.1325 699 l 1
348.9525 415.5 m 0
 336.9525 329.9875 267.8225 272.3025 187.4025 272.5 c 0
 121.5625 272.5 86.1175 309.21 64.975 360.605 c 1
 94.675 379.335 l 1
 110.675 337.6075 139.1875 304.41 189.2175 303.91 c 0
 253.63 303.41 305.135 351.5325 314.82 416 c 0
 323.215 472.24 293.9375 520.1525 236.5 522.56 c 0
 191.26 524.3625 154.1125 503.4375 116.495 475.3025 c 1
 141.7 505.6 l 1
 168.3175 533.1925 209.78 553.4575 251.02 552.76 c 0
 323.15 551.5625 358.755 486.3275 348.9525 415.5 c 0
229.2375 668.2075 m 1
 164.085 513.465 l 1
 112.47 471.975 l 1
 207.5875 697.5 l 1
 400.495 697.6975 l 1
 395.5625 668.7075 l 1
 229.2375 668.2075 l 1
614.8825 321.87 m 0
 623.685 377.5 679.21 426 740.0375 425.5 c 0
 800.365 425 840.4025 375.605 832.4025 320.87 c 0
 823.9025 261.635 767.1125 215.9625 706.8525 216.66 c 0
 646.79 217.16 606.475 263.425 614.8825 321.87 c 0
645.99 317.635 m 0
 640.0025 276.815 668.415 239.5075 707.76 238.205 c 0
 747.605 236.9025 793.5975 275.3275 800.085 317.845 c 0
 806.0725 358.375 781.635 394.6025 737.92 395.905 c 0
 693.705 397.2075 652.4775 359.4675 645.99 317.635 c 0
565.975 113.315 m 0
 575.975 180.6675 640.4075 229.655 706.2475 229.155 c 0
 771.5875 228.9575 819.335 178.7725 810.125 112.315 c 0
 800.52 48.105 740.1675 -6.1975 669.26 -5.5 c 0
 598.9575 -4.8025 556.2775 50.5 565.975 113.315 c 0
598.2925 116.445 m 0
 590.305 66.415 619.49 24.8975 671.075 24.095 c 0
 723.265 23.095 771.2275 64.2175 779.0175 116.445 c 0
 785.8075 163.765 753.37 206.61 705.84 207.61 c 0
 657.31 208.61 606.4775 165.4625 598.2925 116.445 c 0
EndSplineSet
EndChar

StartChar: seveneighths
Encoding: 8542 8542 167
Width: 749
VWidth: 0
Flags: HMW
LayerCount: 2
Fore
SplineSet
674.1325 699 m 1
 718.6975 698.6975 l 1
 74.8675 0 l 1
 30.5 0 l 1
 674.1325 699 l 1
117.9375 668.8925 m 1
 122.6725 699.6975 l 1
 405.6425 699.5 l 1
 130.045 281 l 1
 94.9125 281 l 1
 349.07 668.09 l 1
 117.9375 668.8925 l 1
508.185 321.87 m 0
 516.9875 377.5 572.5125 426 633.34 425.5 c 0
 693.6675 425 733.4025 375.605 725.4025 320.87 c 0
 716.9025 261.635 660.6125 215.9625 600.3525 216.66 c 0
 540.29 217.16 499.7775 263.425 508.185 321.87 c 0
538.99 317.635 m 0
 533.0025 276.815 561.6125 239.5075 600.9575 238.205 c 0
 640.8025 236.9025 686.9 275.3275 693.3875 317.845 c 0
 699.375 358.375 674.9375 394.6025 631.2225 395.905 c 0
 587.0075 397.2075 545.4775 359.4675 538.99 317.635 c 0
459.2775 113.315 m 0
 469.2775 180.6675 533.9075 229.655 599.7475 229.155 c 0
 665.0875 228.9575 712.335 178.7725 703.125 112.315 c 0
 693.52 48.105 633.365 -6.1975 562.4575 -5.5 c 0
 492.155 -4.8025 449.58 50.5 459.2775 113.315 c 0
491.2925 116.445 m 0
 483.305 66.415 512.6875 25.095 564.2725 24.095 c 0
 616.4625 23.095 664.53 64.2175 672.32 116.445 c 0
 679.11 163.765 646.87 206.61 599.34 207.61 c 0
 550.81 208.61 499.4775 165.4625 491.2925 116.445 c 0
EndSplineSet
EndChar

StartChar: uni2074
Encoding: 8308 8308 168
Width: 368
VWidth: 0
Flags: HMW
LayerCount: 2
Fore
SplineSet
65.975 364.605 m 1
 96.3725 392.99 l 1
 287.4875 393.595 l 1
 294.3275 393.595 l 1
 372.625 393.2925 l 1
 367.995 364.3025 l 1
 65.975 364.605 l 1
101.515 365 m 1
 65.2775 365.3025 l 1
 347.58 699.1975 l 1
 361.285 699.5 l 1
 289.495 280.5 l 1
 256.1775 280.5 l 1
 273.19 377.705 l 1
 273.4925 382.52 l 1
 314.485 619.815 l 1
 101.515 365 l 1
EndSplineSet
EndChar

StartChar: uni2075
Encoding: 8309 8309 169
Width: 339
VWidth: 0
Flags: HMW
LayerCount: 2
Fore
SplineSet
348.9525 415.5 m 0
 336.9525 329.9875 267.8225 272.3025 187.4025 272.5 c 0
 121.5625 272.5 86.1175 309.21 64.975 360.605 c 1
 94.675 379.335 l 1
 110.675 337.6075 139.1875 304.41 189.2175 303.91 c 0
 253.63 303.41 305.135 351.5325 314.82 416 c 0
 323.215 472.24 293.9375 520.1525 236.5 522.56 c 0
 191.26 524.3625 154.1125 503.4375 116.495 475.3025 c 1
 141.7 505.6 l 1
 168.3175 533.1925 209.78 553.4575 251.02 552.76 c 0
 323.15 551.5625 358.755 486.3275 348.9525 415.5 c 0
229.2375 668.2075 m 1
 164.085 513.465 l 1
 112.47 471.975 l 1
 207.5875 697.5 l 1
 400.495 697.6975 l 1
 395.5625 668.7075 l 1
 229.2375 668.2075 l 1
EndSplineSet
EndChar

StartChar: uni2076
Encoding: 8310 8310 170
Width: 329
VWidth: 0
Flags: HMW
LayerCount: 2
Fore
SplineSet
111.095 413.63 m 0
 102.41 356.2175 131.7675 303.5025 193.365 302.7 c 0
 255.265 301.595 308.005 353.52 317.4925 413.63 c 0
 325.585 468.87 295.0425 520.505 237.1975 522.005 c 0
 173.7175 523.505 120.78 471.1725 111.095 413.63 c 0
290.5675 697 m 1
 333.355 696.5 l 1
 168.165 512.2675 l 1
 165.245 515.095 l 1
 188.2875 534.73 216.2 547.9575 249.4025 547.26 c 0
 319.0075 546.26 357.9025 479.945 348.705 413.13 c 0
 337.4025 334.8025 271.4575 272.105 191.55 272.5 c 0
 111.6425 272.895 68.08 337.8025 79.3825 413.9325 c 0
 84.7775 447.7225 102.845 479.895 122.9375 503.79 c 1
 290.5675 697 l 1
EndSplineSet
EndChar

StartChar: uni2077
Encoding: 8311 8311 171
Width: 342
VWidth: 0
Flags: HMW
LayerCount: 2
Fore
SplineSet
117.9375 668.8925 m 1
 122.6725 699.6975 l 1
 405.6425 699.5 l 1
 130.045 281 l 1
 94.9125 281 l 1
 349.07 668.09 l 1
 117.9375 668.8925 l 1
EndSplineSet
EndChar

StartChar: uni2078
Encoding: 8312 8312 172
Width: 304
VWidth: 0
Flags: HMW
LayerCount: 2
Fore
SplineSet
119.3825 601.87 m 0
 128.185 657.5 183.71 706 244.5375 705.5 c 0
 304.865 705 344.4025 655.605 336.4025 600.87 c 0
 327.9025 541.635 271.6125 495.9625 211.3525 496.66 c 0
 151.29 497.16 110.975 543.425 119.3825 601.87 c 0
149.99 597.635 m 0
 144.0025 556.815 172.915 519.5075 212.26 518.205 c 0
 252.105 516.9025 297.9 555.3275 304.3875 597.845 c 0
 310.375 638.375 285.9375 674.6025 242.2225 675.905 c 0
 198.0075 677.2075 156.4775 639.4675 149.99 597.635 c 0
70.2775 393.315 m 0
 80.2775 460.6675 144.9075 509.655 210.7475 509.155 c 0
 276.0875 508.9575 323.6375 458.7725 314.4275 392.315 c 0
 304.8225 328.105 244.6675 273.8025 173.76 274.5 c 0
 103.4575 275.1975 60.58 330.5 70.2775 393.315 c 0
102.595 396.445 m 0
 94.6075 346.415 123.6875 304.8975 175.2725 304.095 c 0
 227.4625 303.095 275.53 344.2175 283.32 396.445 c 0
 290.11 443.765 257.87 486.61 210.34 487.61 c 0
 161.81 488.61 110.78 445.4625 102.595 396.445 c 0
EndSplineSet
EndChar

StartChar: uni2079
Encoding: 8313 8313 173
Width: 329
VWidth: 0
Flags: HMW
LayerCount: 2
Fore
SplineSet
343.16 566.37 m 0
 351.845 623.7825 322.29 676.4975 260.6925 677.3 c 0
 198.7925 678.405 146.25 626.48 136.7625 566.37 c 0
 128.67 511.13 159.41 459.495 217.255 457.995 c 0
 280.735 456.495 333.475 508.8275 343.16 566.37 c 0
163.385 283 m 1
 121.0975 283.5 l 1
 285.59 467.7325 l 1
 288.51 464.905 l 1
 265.4675 445.27 238.055 432.0425 205.05 432.74 c 0
 135.445 433.74 96.155 500.055 105.3525 566.87 c 0
 116.655 645.1975 182.495 707.895 262.205 707.5 c 0
 342.1125 707.105 386.175 642.1975 374.8725 566.0675 c 0
 369.4775 532.2775 350.91 500.105 330.8175 476.21 c 1
 163.385 283 l 1
EndSplineSet
EndChar

StartChar: uni2070
Encoding: 8304 8304 174
Width: 342
VWidth: 0
Flags: HMW
LayerCount: 2
Fore
SplineSet
120.2925 490 m 0
 111.2 412.26 116.3975 307.2125 196.2175 305.91 c 0
 275.84 304.6075 326.5 403.47 339.0925 490 c 0
 348.185 567.74 342.9875 672.7875 263.1675 674.09 c 0
 183.545 675.3925 132.885 576.53 120.2925 490 c 0
86.6725 490 m 0
 100.975 595.0375 166.945 706 264.68 705.5 c 0
 364.02 704.8025 384.4225 586.8525 372.7125 490 c 0
 358.41 384.9625 292.44 274 194.705 274.5 c 0
 95.365 275.1975 74.9625 393.1475 86.6725 490 c 0
EndSplineSet
EndChar

StartChar: uni2080
Encoding: 8320 8320 175
Width: 346
VWidth: 0
Flags: HMW
LayerCount: 2
Fore
SplineSet
72.49 210 m 0
 63.3975 132.26 68.3975 27.2125 148.2175 25.91 c 0
 227.84 24.6075 278.5 123.47 291.0925 210 c 0
 300.185 287.74 295.4875 392.7875 215.6675 394.09 c 0
 136.045 395.3925 85.0825 296.53 72.49 210 c 0
39.1725 210 m 0
 53.475 315.0375 119.2475 426 216.9825 425.5 c 0
 316.3225 424.8025 336.4225 306.8525 324.7125 210 c 0
 310.41 104.9625 244.6375 -6 146.9025 -5.5 c 0
 47.5625 -4.8025 27.4625 113.1475 39.1725 210 c 0
EndSplineSet
EndChar

StartChar: uni2084
Encoding: 8324 8324 176
Width: 368
VWidth: 0
Flags: HMW
LayerCount: 2
Fore
SplineSet
17.975 84.605 m 1
 48.675 112.99 l 1
 239.79 113.595 l 1
 246.63 113.595 l 1
 324.9275 113.2925 l 1
 319.995 84.3025 l 1
 17.975 84.605 l 1
53.515 85 m 1
 17.7775 85.3025 l 1
 299.8825 419.1975 l 1
 313.785 419.5 l 1
 241.6925 0 l 1
 208.375 0 l 1
 225.19 97.705 l 1
 225.9925 102.52 l 1
 266.985 339.815 l 1
 53.515 85 l 1
EndSplineSet
EndChar

StartChar: uni2085
Encoding: 8325 8325 177
Width: 339
VWidth: 0
Flags: HMW
LayerCount: 2
Fore
SplineSet
301.4525 135.5 m 0
 289.4525 49.9875 220.125 -7.6975 139.705 -7.5 c 0
 73.865 -7.5 38.315 29.21 17.1725 80.605 c 1
 46.675 99.335 l 1
 62.675 57.6075 91.1875 24.41 141.2175 23.91 c 0
 205.63 23.41 257.635 71.5325 267.32 136 c 0
 275.715 192.24 245.9375 240.1525 188.5 242.56 c 0
 143.26 244.3625 106.1125 223.4375 68.495 195.3025 c 1
 94.2 225.6 l 1
 120.8175 253.1925 162.0825 273.4575 203.3225 272.76 c 0
 275.4525 271.5625 311.255 206.3275 301.4525 135.5 c 0
181.54 388.2075 m 1
 116.085 233.465 l 1
 64.97 191.975 l 1
 159.785 417.5 l 1
 352.6925 417.6975 l 1
 347.76 388.7075 l 1
 181.54 388.2075 l 1
EndSplineSet
EndChar

StartChar: uni2086
Encoding: 8326 8326 178
Width: 329
VWidth: 0
Flags: HMW
LayerCount: 2
Fore
SplineSet
62.49 133.63 m 0
 53.805 76.2175 83.1625 23.5025 144.76 22.7 c 0
 206.66 21.595 259.4 73.52 268.8875 133.63 c 0
 276.98 188.87 246.4375 240.505 188.5925 242.005 c 0
 125.1125 243.505 72.175 191.1725 62.49 133.63 c 0
242.265 417 m 1
 285.25 416.5 l 1
 119.8625 232.2675 l 1
 116.9425 235.095 l 1
 139.985 254.73 167.7925 267.9575 200.995 267.26 c 0
 270.6 266.26 309.495 199.945 300.2975 133.13 c 0
 288.995 54.8025 223.155 -7.895 143.2475 -7.5 c 0
 63.34 -7.105 19.475 57.8025 30.7775 133.9325 c 0
 36.1725 167.7225 54.74 199.895 74.8325 223.79 c 1
 242.265 417 l 1
EndSplineSet
EndChar

StartChar: uni2087
Encoding: 8327 8327 179
Width: 342
VWidth: 0
Flags: HMW
LayerCount: 2
Fore
SplineSet
69.9375 388.8925 m 1
 75.1725 419.6975 l 1
 358.1425 419.5 l 1
 82.045 0 l 1
 46.9125 0 l 1
 301.07 388.09 l 1
 69.9375 388.8925 l 1
EndSplineSet
EndChar

StartChar: uni2088
Encoding: 8328 8328 180
Width: 304
VWidth: 0
Flags: HMW
LayerCount: 2
Fore
SplineSet
71.3825 321.87 m 0
 80.185 377.5 135.71 426 196.5375 425.5 c 0
 256.865 425 296.9025 375.605 288.9025 320.87 c 0
 280.4025 261.635 223.81 215.9625 163.55 216.66 c 0
 103.4875 217.16 62.975 263.425 71.3825 321.87 c 0
102.49 317.635 m 0
 96.5025 276.815 124.915 239.5075 164.26 238.205 c 0
 204.105 236.9025 250.0975 275.3275 256.585 317.845 c 0
 262.5725 358.375 238.135 394.6025 194.42 395.905 c 0
 150.205 397.2075 108.9775 359.4675 102.49 317.635 c 0
22.475 113.315 m 0
 32.475 180.6675 97.105 229.655 162.945 229.155 c 0
 228.285 228.9575 275.835 178.7725 266.625 112.315 c 0
 257.02 48.105 196.6675 -6.1975 125.76 -5.5 c 0
 55.4575 -4.8025 12.7775 50.5 22.475 113.315 c 0
54.7925 116.445 m 0
 46.805 66.415 75.99 24.8975 127.575 24.095 c 0
 179.765 23.095 228.03 64.2175 235.82 116.445 c 0
 242.61 163.765 210.1725 206.61 162.6425 207.61 c 0
 114.1125 208.61 62.9775 165.4625 54.7925 116.445 c 0
EndSplineSet
EndChar

StartChar: uni2089
Encoding: 8329 8329 181
Width: 329
VWidth: 0
Flags: HMW
LayerCount: 2
Fore
SplineSet
285.1775 286.37 m 0
 293.8625 343.7825 264.505 396.4975 202.9075 397.3 c 0
 141.0075 398.405 88.2675 346.48 78.78 286.37 c 0
 70.6875 231.13 101.625 179.495 159.47 177.995 c 0
 222.95 176.495 275.4925 228.8275 285.1775 286.37 c 0
105.705 3 m 1
 63.115 3.5 l 1
 228.1075 187.7325 l 1
 231.0275 184.905 l 1
 207.985 165.27 180.0725 152.0425 147.0675 152.74 c 0
 77.4625 153.74 38.1725 220.055 47.37 286.87 c 0
 58.6725 365.1975 125.0125 427.895 204.7225 427.5 c 0
 284.63 427.105 328.1925 362.1975 316.89 286.0675 c 0
 311.495 252.2775 293.4275 220.105 273.335 196.21 c 1
 105.705 3 l 1
EndSplineSet
EndChar

StartChar: uni2081
Encoding: 8321 8321 182
Width: 294
VWidth: 0
Flags: HMW
LayerCount: 2
Fore
SplineSet
123.7275 360.5275 m 1
 128.9625 394.7525 l 1
 262.36 426.1175 l 1
 188.5575 1.5 l 1
 155.635 1.5 l 1
 220.48 384.645 l 1
 123.7275 360.5275 l 1
EndSplineSet
EndChar

StartChar: uni2082
Encoding: 8322 8322 183
Width: 329
VWidth: 0
Flags: HMW
LayerCount: 2
Fore
SplineSet
-0.7225 2.8025 m 1
 223.105 209.655 l 2
 253.185 237.735 282.845 268.42 289.635 309.16 c 0
 296.5175 350.295 275.45 395.485 220.6675 397.09 c 0
 155.965 399.4975 113.515 340.9 99.83 279 c 1
 66.605 279 l 1
 83.21 358.6175 137.34 429.6975 222.4825 428.5 c 0
 300.0325 427.8025 332.1625 363.475 322.5575 306.4375 c 0
 315.0575 260.2525 282.78 223.0425 248.3725 191.135 c 2
 74.16 33.91 l 1
 282.9275 33.1075 l 1
 277.995 2.3025 l 1
 -0.7225 2.8025 l 1
EndSplineSet
EndChar

StartChar: uni2083
Encoding: 8323 8323 184
Width: 304
VWidth: 0
Flags: HMW
LayerCount: 2
Fore
SplineSet
144.895 211.7525 m 1
 148.42 233.0875 l 1
 200.58 238.0875 251.72 264.76 261.405 315.765 c 0
 268.2875 356.4925 246.0725 393.9975 199.08 395.3 c 0
 149.5075 396.905 114.07 358.7825 101.7925 317 c 1
 69.7775 317.3025 l 1
 84.975 377.3025 131.895 426.5 200.895 425.5 c 0
 267.105 424.5 304.13 371.895 294.63 315.87 c 0
 282.9325 250.1725 214.7475 216.2525 144.895 211.7525 c 1
127.315 -5.5 m 0
 50.0125 -5.3025 13.58 46.0925 17.6725 111 c 1
 50.2925 111 l 1
 48.515 63.2175 71.8725 26.7125 129.13 25.91 c 0
 183.1225 25.1075 230.2325 62.65 237.9175 112.5625 c 0
 247.405 172.765 194.845 198.2025 143.3825 203.0975 c 1
 147.105 224.735 l 1
 216.865 220.1425 282.6425 186.76 270.84 108.13 c 0
 260.84 41.4075 198.2225 -5.6975 127.315 -5.5 c 0
EndSplineSet
EndChar

StartChar: Agrave
Encoding: 192 192 185
Width: 617
VWidth: 0
Flags: HMW
LayerCount: 2
Fore
SplineSet
147.945 235.095 m 1
 173.645 286.5375 l 1
 488.9825 286.84 l 1
 498.07 234.49 l 1
 147.945 235.095 l 1
385.8275 599.67 m 1
 196.665 269.135 l 1
 189.72 256.665 l 1
 42.3625 0 l 1
 -20.4575 0 l 1
 405.86 728.0075 l 1
 581.3375 0 l 1
 521.24 0 l 1
 463.8325 253.035 l 1
 461.215 266.32 l 1
 385.8275 599.67 l 1
312.885 940.47 m 1
 364.235 967.0275 l 1
 492.0425 806.62 l 1
 461.5275 787.2975 l 1
 312.885 940.47 l 1
EndSplineSet
EndChar

StartChar: Aacute
Encoding: 193 193 186
Width: 617
VWidth: 0
Flags: HMW
LayerCount: 2
Fore
SplineSet
147.945 235.095 m 1
 173.645 286.5375 l 1
 488.9825 286.84 l 1
 498.07 234.49 l 1
 147.945 235.095 l 1
385.8275 599.67 m 1
 196.665 269.135 l 1
 189.72 256.665 l 1
 42.3625 0 l 1
 -20.4575 0 l 1
 405.86 728.0075 l 1
 581.3375 0 l 1
 521.24 0 l 1
 463.8325 253.035 l 1
 461.215 266.32 l 1
 385.8275 599.67 l 1
571.23 937.9575 m 1
 373.2175 788.1 l 1
 346.925 808.5275 l 1
 526.9175 966.5275 l 1
 571.23 937.9575 l 1
EndSplineSet
EndChar

StartChar: Acircumflex
Encoding: 194 194 187
Width: 617
VWidth: 0
Flags: HMW
LayerCount: 2
Fore
SplineSet
147.945 235.095 m 1
 173.645 286.5375 l 1
 488.9825 286.84 l 1
 498.07 234.49 l 1
 147.945 235.095 l 1
385.8275 599.67 m 1
 196.665 269.135 l 1
 189.72 256.665 l 1
 42.3625 0 l 1
 -20.4575 0 l 1
 405.86 728.0075 l 1
 581.3375 0 l 1
 521.24 0 l 1
 463.8325 253.035 l 1
 461.215 266.32 l 1
 385.8275 599.67 l 1
432.705 873.2 m 1
 289.5475 763.5975 l 1
 260.255 791.1675 l 1
 439.15 929.6675 l 1
 572.36 789.26 l 1
 536.7275 763.2025 l 1
 432.705 873.2 l 1
EndSplineSet
EndChar

StartChar: Atilde
Encoding: 195 195 188
Width: 617
VWidth: 0
Flags: HMW
LayerCount: 2
Fore
SplineSet
147.945 235.095 m 1
 173.645 286.5375 l 1
 488.9825 286.84 l 1
 498.07 234.49 l 1
 147.945 235.095 l 1
385.8275 599.67 m 1
 196.665 269.135 l 1
 189.72 256.665 l 1
 42.3625 0 l 1
 -20.4575 0 l 1
 405.86 728.0075 l 1
 581.3375 0 l 1
 521.24 0 l 1
 463.8325 253.035 l 1
 461.215 266.32 l 1
 385.8275 599.67 l 1
273.0675 806.785 m 1
 288.6175 843.5575 323.8475 878.6075 369.385 877.7 c 0
 421.5825 877.095 434.885 830.3975 481.5825 831.7 c 0
 507.255 832.5025 526.675 853.805 545.1875 878.7 c 1
 573.035 850.895 l 1
 551.8125 818.6725 517.4225 786.19 475.335 787.4 c 0
 426.6625 788.3075 407.44 834.2025 365.44 833.4 c 0
 329.545 832.5975 314.755 803.77 306.0575 783.4 c 1
 273.0675 806.785 l 1
EndSplineSet
EndChar

StartChar: Adieresis
Encoding: 196 196 189
Width: 617
VWidth: 0
Flags: HMW
LayerCount: 2
Fore
SplineSet
147.945 235.095 m 1
 173.645 286.5375 l 1
 488.9825 286.84 l 1
 498.07 234.49 l 1
 147.945 235.095 l 1
385.8275 599.67 m 1
 196.665 269.135 l 1
 189.72 256.665 l 1
 42.3625 0 l 1
 -20.4575 0 l 1
 405.86 728.0075 l 1
 581.3375 0 l 1
 521.24 0 l 1
 463.8325 253.035 l 1
 461.215 266.32 l 1
 385.8275 599.67 l 1
484.0675 833.225 m 0
 486.08 851.7325 507.705 870.845 526.515 869.9375 c 0
 545.93 869.03 559.61 851.325 557.5975 832.015 c 0
 555.585 813.5075 533.96 794.395 515.15 795.3025 c 0
 495.735 796.21 482.055 813.915 484.0675 833.225 c 0
289.5675 833.225 m 0
 291.58 851.7325 313.5075 870.845 332.3175 869.9375 c 0
 351.7325 869.03 365.61 851.325 363.5975 832.015 c 0
 361.585 813.5075 339.96 794.395 321.15 795.3025 c 0
 301.735 796.21 287.555 813.915 289.5675 833.225 c 0
EndSplineSet
EndChar

StartChar: Aring
Encoding: 197 197 190
Width: 617
VWidth: 0
Flags: HMW
LayerCount: 2
Fore
SplineSet
147.945 235.095 m 1
 173.645 286.5375 l 1
 488.9825 286.84 l 1
 498.07 234.49 l 1
 147.945 235.095 l 1
385.8275 599.67 m 1
 196.665 269.135 l 1
 189.72 256.665 l 1
 42.3625 0 l 1
 -20.4575 0 l 1
 405.86 728.0075 l 1
 581.3375 0 l 1
 521.24 0 l 1
 463.8325 253.035 l 1
 461.215 266.32 l 1
 385.8275 599.67 l 1
318.835 802.7525 m 0
 326.73 857.95 381.23 901.95 434.4275 901.45 c 0
 487.4275 900.95 525.835 855.45 518.1375 801.1475 c 0
 510.2425 745.95 455.7425 701.95 402.545 702.45 c 0
 349.545 702.95 311.1375 748.45 318.835 802.7525 c 0
353.035 801.6475 m 0
 348.455 766.8525 372.1825 736.1375 405.6625 734.835 c 0
 439.6425 733.23 479.16 766.26 483.9375 802.2525 c 0
 488.5175 837.0475 464.79 867.7625 431.31 869.065 c 0
 397.33 870.67 357.8125 837.64 353.035 801.6475 c 0
EndSplineSet
EndChar

StartChar: AE
Encoding: 198 198 191
Width: 906
VWidth: 0
Flags: HMW
LayerCount: 2
Fore
SplineSet
220.29 237.9525 m 1
 229.05 290 l 1
 517.4025 290 l 1
 508.445 237.65 l 1
 220.29 237.9525 l 1
534.8675 700 m 1
 575.895 673.8925 l 1
 39.3075 0 l 1
 -22.6975 0 l 1
 534.8675 700 l 1
478.8975 0 m 1
 487.5525 52.35 l 1
 818.2275 52.35 l 1
 809.165 0 l 1
 478.8975 0 l 1
597.07 647.65 m 1
 534.8675 700 l 1
 928.665 700 l 1
 919.7075 647.65 l 1
 597.07 647.65 l 1
539.86 357.6825 m 1
 548.515 409.73 l 1
 859.69 409.73 l 1
 850.93 357.38 l 1
 539.86 357.6825 l 1
567.29 699.5 m 1
 623.3625 699.8025 l 1
 502.3625 0 l 1
 448.105 0 l 1
 567.29 699.5 l 1
EndSplineSet
EndChar

StartChar: Ccedilla
Encoding: 199 199 192
Width: 664
VWidth: 0
Flags: HMW
LayerCount: 2
Fore
SplineSet
133.2325 350 m 0
 109.955 194.3725 191.72 48.955 353.495 47.455 c 0
 449.0075 46.6525 527.545 86.425 590.3225 142.055 c 1
 578.55 68.475 l 1
 513.155 19.6725 442.155 -9.5125 347.9575 -9.0125 c 0
 152.26 -8.0125 47.345 163.08 74.6475 350 c 0
 105.1475 547.0125 267.9325 708.21 466.5375 709.21 c 0
 555.34 709.71 617.945 683.92 673.8525 630.92 c 1
 661.975 557.5375 l 1
 615.6175 619.3775 547.7225 652.94 461 652.7425 c 0
 297.225 652.045 160.2075 516.01 133.2325 350 c 0
344.47 34.4975 m 1
 385.8125 34.4975 l 1
 309.4475 -62.2825 l 1
 320.44 -57.1475 329.4575 -52.605 342.425 -53.1975 c 0
 378.1225 -56.105 407.03 -84.6975 402.03 -127.8025 c 0
 395.03 -184.5 337.24 -220.6975 283.5425 -220.5 c 0
 248.4375 -220.5 226.3325 -206.895 201.2275 -182.0925 c 1
 227.18 -156.7325 l 1
 246.1425 -173.195 261.3025 -184.1825 286.9625 -184.1825 c 0
 322.3625 -184.1825 359.9225 -161.1525 364.5025 -126.6975 c 0
 368.095 -98.47 348.225 -81.23 320.25 -80.1375 c 0
 299.22 -78.7425 272.14 -88.6125 250.3625 -100.2975 c 1
 344.47 34.4975 l 1
EndSplineSet
EndChar

StartChar: Egrave
Encoding: 200 200 193
Width: 517
VWidth: 0
Flags: HMW
LayerCount: 2
Fore
SplineSet
82.8725 0 m 1
 91.33 52.35 l 1
 429.51 52.35 l 1
 420.75 0 l 1
 82.8725 0 l 1
193.6125 647.9525 m 1
 202.07 700 l 1
 539.75 700 l 1
 530.99 647.65 l 1
 193.6125 647.9525 l 1
143.835 357.6825 m 1
 152.7925 409.73 l 1
 470.9725 409.73 l 1
 462.2125 357.38 l 1
 143.835 357.6825 l 1
173.0425 699.5 m 1
 229.115 699.8025 l 1
 108.3125 0 l 1
 54.3575 0 l 1
 173.0425 699.5 l 1
257.515 922.58 m 1
 308.6675 949.1375 l 1
 436.475 788.73 l 1
 406.2625 769.4075 l 1
 257.515 922.58 l 1
EndSplineSet
EndChar

StartChar: Eacute
Encoding: 201 201 194
Width: 517
VWidth: 0
Flags: HMW
LayerCount: 2
Fore
SplineSet
82.8725 0 m 1
 91.33 52.35 l 1
 429.51 52.35 l 1
 420.75 0 l 1
 82.8725 0 l 1
193.6125 647.9525 m 1
 202.07 700 l 1
 539.75 700 l 1
 530.99 647.65 l 1
 193.6125 647.9525 l 1
143.835 357.6825 m 1
 152.7925 409.73 l 1
 470.9725 409.73 l 1
 462.2125 357.38 l 1
 143.835 357.6825 l 1
173.0425 699.5 m 1
 229.115 699.8025 l 1
 108.3125 0 l 1
 54.3575 0 l 1
 173.0425 699.5 l 1
531.0675 920.0675 m 1
 333.055 770.21 l 1
 306.565 790.6375 l 1
 487.0575 948.6375 l 1
 531.0675 920.0675 l 1
EndSplineSet
EndChar

StartChar: Ecircumflex
Encoding: 202 202 195
Width: 517
VWidth: 0
Flags: HMW
LayerCount: 2
Fore
SplineSet
82.8725 0 m 1
 91.33 52.35 l 1
 429.51 52.35 l 1
 420.75 0 l 1
 82.8725 0 l 1
193.6125 647.9525 m 1
 202.07 700 l 1
 539.75 700 l 1
 530.99 647.65 l 1
 193.6125 647.9525 l 1
143.835 357.6825 m 1
 152.7925 409.73 l 1
 470.9725 409.73 l 1
 462.2125 357.38 l 1
 143.835 357.6825 l 1
173.0425 699.5 m 1
 229.115 699.8025 l 1
 108.3125 0 l 1
 54.3575 0 l 1
 173.0425 699.5 l 1
394.8225 879.51 m 1
 251.9675 769.9075 l 1
 222.675 797.4775 l 1
 401.2675 935.9775 l 1
 534.4775 795.57 l 1
 499.1475 769.5125 l 1
 394.8225 879.51 l 1
EndSplineSet
EndChar

StartChar: Edieresis
Encoding: 203 203 196
Width: 517
VWidth: 0
Flags: HMW
LayerCount: 2
Fore
SplineSet
82.8725 0 m 1
 91.33 52.35 l 1
 429.51 52.35 l 1
 420.75 0 l 1
 82.8725 0 l 1
193.6125 647.9525 m 1
 202.07 700 l 1
 539.75 700 l 1
 530.99 647.65 l 1
 193.6125 647.9525 l 1
143.835 357.6825 m 1
 152.7925 409.73 l 1
 470.9725 409.73 l 1
 462.2125 357.38 l 1
 143.835 357.6825 l 1
173.0425 699.5 m 1
 229.115 699.8025 l 1
 108.3125 0 l 1
 54.3575 0 l 1
 173.0425 699.5 l 1
444.0675 827.435 m 0
 446.08 845.9425 468.0075 865.055 486.8175 864.1475 c 0
 506.2325 863.24 519.9125 845.535 517.9 826.225 c 0
 515.8875 807.7175 494.2625 788.605 475.4525 789.5125 c 0
 456.0375 790.42 442.055 808.125 444.0675 827.435 c 0
249.87 827.435 m 0
 251.8825 845.9425 273.5075 865.055 292.3175 864.1475 c 0
 311.7325 863.24 325.9125 845.535 323.9 826.225 c 0
 321.8875 807.7175 300.2625 788.605 281.4525 789.5125 c 0
 262.0375 790.42 247.8575 808.125 249.87 827.435 c 0
EndSplineSet
EndChar

StartChar: Igrave
Encoding: 204 204 197
Width: 212
VWidth: 0
Flags: HMW
LayerCount: 2
Fore
SplineSet
171.265 699.5 m 1
 226.9425 699.8025 l 1
 105.9425 0 l 1
 52.3825 0 l 1
 171.265 699.5 l 1
99.775 922.58 m 1
 151.23 949.1375 l 1
 279.0375 788.73 l 1
 248.22 769.4075 l 1
 99.775 922.58 l 1
EndSplineSet
EndChar

StartChar: Iacute
Encoding: 205 205 198
Width: 212
VWidth: 0
Flags: HMW
LayerCount: 2
Fore
SplineSet
171.265 699.5 m 1
 226.9425 699.8025 l 1
 105.9425 0 l 1
 52.3825 0 l 1
 171.265 699.5 l 1
373.025 920.0675 m 1
 175.0125 769.9075 l 1
 149.1275 790.6375 l 1
 329.62 948.6375 l 1
 373.025 920.0675 l 1
EndSplineSet
EndChar

StartChar: Icircumflex
Encoding: 206 206 199
Width: 212
VWidth: 0
Flags: HMW
LayerCount: 2
Fore
SplineSet
171.265 699.5 m 1
 226.9425 699.8025 l 1
 105.9425 0 l 1
 52.3825 0 l 1
 171.265 699.5 l 1
231.0325 879.51 m 1
 87.875 769.9075 l 1
 58.885 797.4775 l 1
 237.4775 935.9775 l 1
 370.6875 795.57 l 1
 335.3575 769.5125 l 1
 231.0325 879.51 l 1
EndSplineSet
EndChar

StartChar: Idieresis
Encoding: 207 207 200
Width: 212
VWidth: 0
Flags: HMW
LayerCount: 2
Fore
SplineSet
171.265 699.5 m 1
 226.9425 699.8025 l 1
 105.9425 0 l 1
 52.3825 0 l 1
 171.265 699.5 l 1
267.1125 815.335 m 0
 269.125 833.54 290.4475 852.955 309.2575 852.0475 c 0
 328.6725 851.14 343.155 833.435 341.1425 814.125 c 0
 339.13 795.6175 316.9 776.505 298.09 777.4125 c 0
 278.3725 778.32 265.1 796.3275 267.1125 815.335 c 0
96.22 815.335 m 0
 98.2325 833.54 119.2525 852.955 138.0625 852.0475 c 0
 157.4775 851.14 172.065 833.435 170.0525 814.125 c 0
 168.04 795.6175 145.81 776.505 127 777.4125 c 0
 107.2825 778.32 94.2075 796.3275 96.22 815.335 c 0
EndSplineSet
EndChar

StartChar: Ntilde
Encoding: 209 209 201
Width: 709
VWidth: 0
Flags: HMW
LayerCount: 2
Fore
SplineSet
674.3225 699.8025 m 1
 729.4875 699.8025 l 1
 604.6725 -26.495 l 1
 193.875 583.3175 l 1
 93.21 0 l 1
 37.7425 0 l 1
 162.5575 726.495 l 1
 573.46 114.7075 l 1
 674.3225 699.8025 l 1
309.58125 778.885 m 1
 325.13125 815.6575 360.05875 850.7075 405.59625 849.8 c 0
 455.81875 849.195 471.39875 802.4975 518.09625 803.8 c 0
 543.76875 804.6025 562.88625 825.905 581.39875 850.8 c 1
 608.85125 822.995 l 1
 587.62875 790.7725 553.43625 758.29 511.15125 759.5 c 0
 464.45375 760.4075 443.95375 805.9075 401.95375 805.5 c 0
 365.86125 805.0925 350.37375 776.0675 341.87375 755.5 c 1
 309.58125 778.885 l 1
EndSplineSet
EndChar

StartChar: Eth
Encoding: 208 208 202
Width: 659
VWidth: 0
Flags: HMW
LayerCount: 2
Fore
SplineSet
33.1725 324.1275 m 1
 41.3275 373.15 l 1
 333.4325 373.15 l 1
 325.2775 323.825 l 1
 33.1725 324.1275 l 1
173.0425 699.5 m 1
 229.115 699.8025 l 1
 108.3125 0 l 1
 54.3575 0 l 1
 173.0425 699.5 l 1
241.1075 0 m 1
 83.15 0 l 1
 93.015 55.77 l 1
 246.645 55.77 l 1
 419.945 58.9675 550.03 180.6875 578.005 350 c 0
 603.2825 511.0225 521.24 640.5325 350.7425 644.23 c 1
 193.0875 644.23 l 1
 202.9525 700 l 1
 356.28 700 l 1
 556.675 696.5 661.67 540.6175 633.17 350 c 0
 601.9725 150.79 445.1075 3 241.1075 0 c 1
EndSplineSet
EndChar

StartChar: Ograve
Encoding: 210 210 203
Width: 760
VWidth: 0
Flags: HMW
LayerCount: 2
Fore
SplineSet
132.8375 350 m 0
 109.06 194.1875 190.6825 47.665 359.0875 46.8625 c 0
 529.4925 46.06 666.065 185.3975 693.04 350 c 0
 716.8175 505.8125 635.195 652.335 466.79 653.1375 c 0
 296.385 653.94 159.8125 514.6025 132.8375 350 c 0
74.6475 350 m 0
 105.1475 545.8025 269.895 709.71 471.8275 709.21 c 0
 671.155 708.71 778.5325 536.71 751.23 350 c 0
 720.73 154.1975 555.68 -9.71 353.7475 -9.21 c 0
 154.42 -8.71 47.345 163.29 74.6475 350 c 0
387.705 922.58 m 1
 439.055 949.1375 l 1
 566.665 788.73 l 1
 535.36 769.4075 l 1
 387.705 922.58 l 1
EndSplineSet
EndChar

StartChar: Oacute
Encoding: 211 211 204
Width: 760
VWidth: 0
Flags: HMW
LayerCount: 2
Fore
SplineSet
132.8375 350 m 0
 109.06 194.1875 190.6825 47.665 359.0875 46.8625 c 0
 529.4925 46.06 666.065 185.3975 693.04 350 c 0
 716.8175 505.8125 635.195 652.335 466.79 653.1375 c 0
 296.385 653.94 159.8125 514.6025 132.8375 350 c 0
74.6475 350 m 0
 105.1475 545.8025 269.895 709.71 471.8275 709.21 c 0
 671.155 708.71 778.5325 536.71 751.23 350 c 0
 720.73 154.1975 555.68 -9.71 353.7475 -9.21 c 0
 154.42 -8.71 47.345 163.29 74.6475 350 c 0
633.4625 920.0675 m 1
 436.24 770.21 l 1
 408.96 790.6375 l 1
 588.9525 948.6375 l 1
 633.4625 920.0675 l 1
EndSplineSet
EndChar

StartChar: Ocircumflex
Encoding: 212 212 205
Width: 760
VWidth: 0
Flags: HMW
LayerCount: 2
Fore
SplineSet
132.8375 350 m 0
 109.06 194.1875 190.6825 47.665 359.0875 46.8625 c 0
 529.4925 46.06 666.065 185.3975 693.04 350 c 0
 716.8175 505.8125 635.195 652.335 466.79 653.1375 c 0
 296.385 653.94 159.8125 514.6025 132.8375 350 c 0
74.6475 350 m 0
 105.1475 545.8025 270.1975 709.71 472.13 709.21 c 0
 671.4575 708.71 778.5325 536.71 751.23 350 c 0
 720.73 154.1975 555.68 -9.71 353.7475 -9.21 c 0
 154.42 -8.71 47.345 163.29 74.6475 350 c 0
505.1175 879.51 m 1
 362.1575 769.9075 l 1
 333.1675 797.4775 l 1
 511.76 935.9775 l 1
 644.97 795.57 l 1
 609.4425 769.5125 l 1
 505.1175 879.51 l 1
EndSplineSet
EndChar

StartChar: Otilde
Encoding: 213 213 206
Width: 760
VWidth: 0
Flags: HMW
LayerCount: 2
Fore
SplineSet
132.8375 350 m 0
 109.06 194.1875 190.6825 47.665 359.0875 46.8625 c 0
 529.4925 46.06 666.065 185.3975 693.04 350 c 0
 716.8175 505.8125 635.195 652.335 466.79 653.1375 c 0
 296.385 653.94 159.8125 514.6025 132.8375 350 c 0
74.6475 350 m 0
 105.1475 545.8025 270.1975 709.71 472.13 709.21 c 0
 671.4575 708.71 778.5325 536.71 751.23 350 c 0
 720.73 154.1975 555.68 -9.71 353.7475 -9.21 c 0
 154.42 -8.71 47.345 163.29 74.6475 350 c 0
344.06 800.995 m 1
 347.9175 838.78 401.7975 872.2125 440.2725 871.91 c 0
 490.49737 871.305 505.575 824.6075 552.575 825.91 c 0
 578.2475 826.7125 597.5625 848.015 616.075 872.91 c 1
 642.935 845.105 l 1
 621.7125 812.8825 588.02 780.4 545.735 781.61 c 0
 499.0375 782.5175 478.4325 828.0175 436.63 827.61 c 0
 400.34 827.2025 384.655 798.1775 375.9575 777.61 c 1
 344.06 800.995 l 1
EndSplineSet
EndChar

StartChar: Odieresis
Encoding: 214 214 207
Width: 760
VWidth: 0
Flags: HMW
LayerCount: 2
Fore
SplineSet
132.8375 350 m 0
 109.06 194.1875 190.6825 47.665 359.0875 46.8625 c 0
 529.4925 46.06 666.065 185.3975 693.04 350 c 0
 716.8175 505.8125 635.195 652.335 466.79 653.1375 c 0
 296.385 653.94 159.8125 514.6025 132.8375 350 c 0
74.6475 350 m 0
 105.1475 545.8025 269.895 709.71 471.8275 709.21 c 0
 671.155 708.71 778.5325 536.71 751.23 350 c 0
 720.73 154.1975 555.68 -9.71 353.7475 -9.21 c 0
 154.42 -8.71 47.345 163.29 74.6475 350 c 0
556.7875 819.285 m 0
 558.8 837.7925 580.425 856.905 599.235 855.9975 c 0
 618.65 855.09 632.6325 837.385 630.62 818.075 c 0
 628.6075 799.5675 606.9825 780.455 588.1725 781.3625 c 0
 568.7575 782.27 554.775 799.975 556.7875 819.285 c 0
355.085 819.285 m 0
 357.0975 837.7925 378.7225 856.905 397.5325 855.9975 c 0
 416.9475 855.09 430.93 837.385 428.9175 818.075 c 0
 426.905 799.5675 405.28 780.455 386.47 781.3625 c 0
 367.055 782.27 353.0725 799.975 355.085 819.285 c 0
EndSplineSet
EndChar

StartChar: Ugrave
Encoding: 217 217 208
Width: 587
VWidth: 0
Flags: HMW
LayerCount: 2
Fore
SplineSet
169.1475 699.8025 m 1
 224.115 699.8025 l 1
 142.22 226.05 l 2
 129.3375 128.5025 165.3 44.0475 272.57 43.245 c 0
 380.445 42.4425 450.555 123.7125 468.4375 226.05 c 1
 550.03 699.8025 l 1
 605.195 699.8025 l 1
 524.1025 226.05 l 2
 501.8925 95.525 407.4775 -9.6975 267.5325 -9.5 c 0
 129.1 -9.3025 70.95 100.0125 87.8575 226.05 c 1
 169.1475 699.8025 l 1
295.2425 922.58 m 1
 346.395 949.1375 l 1
 474.2025 788.73 l 1
 443.99 769.4075 l 1
 295.2425 922.58 l 1
EndSplineSet
EndChar

StartChar: Uacute
Encoding: 218 218 209
Width: 587
VWidth: 0
Flags: HMW
LayerCount: 2
Fore
SplineSet
169.1475 699.8025 m 1
 224.115 699.8025 l 1
 142.22 226.05 l 2
 129.3375 128.5025 165.3 44.0475 272.57 43.245 c 0
 380.445 42.4425 450.555 123.7125 468.4375 226.05 c 1
 550.03 699.8025 l 1
 605.195 699.8025 l 1
 524.1025 226.05 l 2
 501.8925 95.525 407.4775 -9.6975 267.5325 -9.5 c 0
 129.1 -9.3025 70.95 100.0125 87.8575 226.05 c 1
 169.1475 699.8025 l 1
553.5875 920.0675 m 1
 355.575 770.21 l 1
 329.085 790.6375 l 1
 509.38 948.6375 l 1
 553.5875 920.0675 l 1
EndSplineSet
EndChar

StartChar: Ucircumflex
Encoding: 219 219 210
Width: 587
VWidth: 0
Flags: HMW
LayerCount: 2
Fore
SplineSet
169.1475 699.8025 m 1
 224.115 699.8025 l 1
 142.22 226.05 l 2
 129.3375 128.5025 165.3 44.0475 272.57 43.245 c 0
 380.445 42.4425 450.555 123.7125 468.4375 226.05 c 1
 550.03 699.8025 l 1
 605.195 699.8025 l 1
 524.1025 226.05 l 2
 501.8925 95.525 407.4775 -9.6975 267.5325 -9.5 c 0
 129.1 -9.3025 70.95 100.0125 87.8575 226.05 c 1
 169.1475 699.8025 l 1
419.1 879.51 m 1
 275.9425 769.9075 l 1
 247.15 797.4775 l 1
 425.7425 935.9775 l 1
 558.9525 795.57 l 1
 523.1225 769.5125 l 1
 419.1 879.51 l 1
EndSplineSet
EndChar

StartChar: Udieresis
Encoding: 220 220 211
Width: 587
VWidth: 0
Flags: HMW
LayerCount: 2
Fore
SplineSet
169.1475 699.8025 m 1
 224.115 699.8025 l 1
 142.22 226.05 l 2
 129.3375 128.5025 165.3 44.0475 272.57 43.245 c 0
 380.445 42.4425 450.555 123.7125 468.4375 226.05 c 1
 550.03 699.8025 l 1
 605.195 699.8025 l 1
 524.1025 226.05 l 2
 501.8925 95.525 407.4775 -9.6975 267.5325 -9.5 c 0
 129.1 -9.3025 70.95 100.0125 87.8575 226.05 c 1
 169.1475 699.8025 l 1
461.0925 807.435 m 0
 463.105 825.9425 484.73 845.055 503.54 844.1475 c 0
 522.955 843.24 536.9375 825.535 534.925 806.225 c 0
 532.9125 787.7175 511.2875 768.605 492.4775 769.5125 c 0
 473.0625 770.42 459.08 788.125 461.0925 807.435 c 0
274.5975 807.435 m 0
 276.61 825.9425 298.235 845.055 317.045 844.1475 c 0
 336.46 843.24 350.64 825.535 348.6275 806.225 c 0
 346.615 787.7175 324.6875 768.605 305.8775 769.5125 c 0
 286.4625 770.42 272.585 788.125 274.5975 807.435 c 0
EndSplineSet
EndChar

StartChar: Yacute
Encoding: 221 221 212
Width: 523
VWidth: 0
Flags: HMW
LayerCount: 2
Fore
SplineSet
528.5 920.0675 m 1
 330.685 769.9075 l 1
 304.6025 790.6375 l 1
 484.595 948.6375 l 1
 528.5 920.0675 l 1
545.7025 699.3025 m 1
 609.22 699.3025 l 1
 309.165 286.465 l 1
 259.8375 0 l 1
 204.6725 0 l 1
 255.4075 289.1875 l 1
 101.555 700 l 1
 161.5475 700 l 1
 289.1325 339.58 l 1
 545.7025 699.3025 l 1
EndSplineSet
EndChar

StartChar: agrave
Encoding: 224 224 213
Width: 541
VWidth: 0
Flags: HMW
LayerCount: 2
Fore
SplineSet
473.165 459.5 m 1
 523.095 459.8025 l 1
 443.095 0 l 1
 395.1775 0 l 1
 473.165 459.5 l 1
49.1475 230 m 0
 68.6475 363.92 175.895 471 304.5125 469.8025 c 0
 428.4075 468.605 471.105 346.785 455.3025 230 c 0
 437.105 105.5175 350.025 -9 226.5375 -9.5 c 0
 98.2225 -10 31.5425 102.1725 49.1475 230 c 0
101.4975 230 m 0
 86.8125 128.8475 136.17 39.43 237.9025 39.825 c 0
 331.53 40.22 415.665 130.39 431.5475 230 c 0
 444.7325 322.925 399.14 418.175 306.815 420.175 c 0
 204.675 422.3725 118.0775 336.64 101.4975 230 c 0
217.9475 687.32 m 1
 268.995 713.8775 l 1
 396.605 553.47 l 1
 366.59 534.1475 l 1
 217.9475 687.32 l 1
EndSplineSet
Substitution2: "alt a" agrave.alt
EndChar

StartChar: aacute
Encoding: 225 225 214
Width: 541
VWidth: 0
Flags: HMW
LayerCount: 2
Fore
SplineSet
473.165 459.5 m 1
 523.095 459.8025 l 1
 443.095 0.3025 l 1
 395.1775 0 l 1
 473.165 459.5 l 1
49.1475 230 m 0
 68.6475 363.92 175.895 471 304.5125 469.8025 c 0
 428.4075 468.605 471.105 346.785 455.3025 230 c 0
 437.105 105.5175 350.025 -9 226.5375 -9.5 c 0
 98.2225 -10 31.5425 102.1725 49.1475 230 c 0
101.4975 230 m 0
 86.8125 128.8475 136.17 39.43 237.9025 39.825 c 0
 331.53 40.22 415.665 130.39 431.5475 230 c 0
 444.7325 322.925 399.14 418.175 306.815 420.175 c 0
 204.675 422.3725 118.0775 336.64 101.4975 230 c 0
457.175 684.8075 m 1
 259.1625 534.95 l 1
 232.6725 555.3775 l 1
 412.9675 713.3775 l 1
 457.175 684.8075 l 1
EndSplineSet
Substitution2: "alt a" aacute.alt
EndChar

StartChar: acircumflex
Encoding: 226 226 215
Width: 541
VWidth: 0
Flags: HMW
LayerCount: 2
Fore
SplineSet
473.165 459.5 m 1
 523.095 459.8025 l 1
 443.095 0 l 1
 395.1775 0 l 1
 473.165 459.5 l 1
49.1475 230 m 0
 68.6475 363.92 175.895 471 304.5125 469.8025 c 0
 428.4075 468.605 471.105 346.785 455.3025 230 c 0
 437.105 105.5175 350.025 -9 226.5375 -9.5 c 0
 98.2225 -10 31.5425 102.1725 49.1475 230 c 0
101.4975 230 m 0
 86.8125 128.8475 136.17 39.43 237.9025 39.825 c 0
 331.53 40.22 415.665 130.39 431.5475 230 c 0
 444.7325 322.925 399.14 418.175 306.815 420.175 c 0
 204.675 422.3725 118.0775 336.64 101.4975 230 c 0
350.4825 648.2 m 1
 207.5225 538.5975 l 1
 178.23 566.1675 l 1
 357.125 704.6675 l 1
 490.335 564.26 l 1
 454.7025 538.2025 l 1
 350.4825 648.2 l 1
EndSplineSet
Substitution2: "alt a" acircumflex.alt
EndChar

StartChar: atilde
Encoding: 227 227 216
Width: 541
VWidth: 0
Flags: HMW
LayerCount: 2
Fore
SplineSet
473.165 459.5 m 1
 523.095 459.8025 l 1
 443.095 0 l 1
 395.1775 0 l 1
 473.165 459.5 l 1
49.1475 230 m 0
 68.6475 363.92 175.895 471 304.5125 469.8025 c 0
 428.4075 468.605 471.105 346.785 455.3025 230 c 0
 437.105 105.5175 350.025 -9 226.5375 -9.5 c 0
 98.2225 -10 31.5425 102.1725 49.1475 230 c 0
101.4975 230 m 0
 86.8125 128.8475 136.17 39.43 237.9025 39.825 c 0
 331.53 40.22 415.665 130.39 431.5475 230 c 0
 444.7325 322.925 399.14 418.175 306.815 420.175 c 0
 204.675 422.3725 118.0775 336.64 101.4975 230 c 0
187.845 561.785 m 1
 197.4825 599.175 243.68 632.7 283.86 632.7 c 0
 334.0979275 632.8975 349.36 585.3975 396.36 586.7 c 0
 422.0325 587.5025 441.15 608.805 459.6625 633.7 c 1
 487.51 605.895 l 1
 466.2875 573.6725 431.8975 541.19 389.81 542.4 c 0
 343.1125 543.3075 322.2175 589.2025 280.2175 588.4 c 0
 244.3225 587.5975 229.23 558.77 220.5325 538.4 c 1
 187.845 561.785 l 1
EndSplineSet
Substitution2: "alt a" atilde.alt
EndChar

StartChar: adieresis
Encoding: 228 228 217
Width: 541
VWidth: 0
Flags: HMW
LayerCount: 2
Fore
SplineSet
473.165 459.5 m 1
 523.095 459.8025 l 1
 443.095 0 l 1
 395.1775 0 l 1
 473.165 459.5 l 1
49.1475 230 m 0
 68.6475 363.92 175.895 471 304.5125 469.8025 c 0
 428.4075 468.605 471.105 346.785 455.3025 230 c 0
 437.105 105.5175 350.025 -9 226.5375 -9.5 c 0
 98.2225 -10 31.5425 102.1725 49.1475 230 c 0
101.4975 230 m 0
 86.8125 128.8475 136.17 39.43 237.9025 39.825 c 0
 331.53 40.22 415.665 130.39 431.5475 230 c 0
 444.7325 322.925 399.14 418.175 306.815 420.175 c 0
 204.675 422.3725 118.0775 336.64 101.4975 230 c 0
402.1525 587.975 m 0
 404.165 606.4825 425.79 625.595 444.6 624.6875 c 0
 464.015 623.78 477.9975 606.075 475.985 586.765 c 0
 473.9725 568.2575 452.045 549.145 433.235 550.0525 c 0
 413.82 550.96 400.14 568.665 402.1525 587.975 c 0
208.1525 587.975 m 0
 210.165 606.4825 231.79 625.595 250.6 624.6875 c 0
 270.015 623.78 283.695 606.075 281.6825 586.765 c 0
 279.67 568.2575 258.045 549.145 239.235 550.0525 c 0
 219.82 550.96 206.14 568.665 208.1525 587.975 c 0
EndSplineSet
Substitution2: "alt a" adieresis.alt
EndChar

StartChar: aring
Encoding: 229 229 218
Width: 541
VWidth: 0
Flags: HMW
LayerCount: 2
Fore
SplineSet
473.165 459.5 m 1
 523.095 459.8025 l 1
 443.095 0 l 1
 395.1775 0 l 1
 473.165 459.5 l 1
49.1475 230 m 0
 68.6475 363.92 175.895 471 304.5125 469.8025 c 0
 428.4075 468.605 471.105 346.785 455.3025 230 c 0
 437.105 105.5175 350.025 -9 226.5375 -9.5 c 0
 98.2225 -10 31.5425 102.1725 49.1475 230 c 0
101.4975 230 m 0
 86.8125 128.8475 136.17 39.43 237.9025 39.825 c 0
 331.53 40.22 415.665 130.39 431.5475 230 c 0
 444.7325 322.925 399.14 418.175 306.815 420.175 c 0
 204.675 422.3725 118.0775 336.64 101.4975 230 c 0
229.9875 630.1975 m 0
 237.8825 685.395 291.8825 729.6975 345.08 729.1975 c 0
 398.08 728.6975 436.79 683.1975 429.0925 628.895 c 0
 421.1975 573.6975 366.895 529.6975 313.6975 530.1975 c 0
 260.6975 530.6975 222.29 575.895 229.9875 630.1975 c 0
263.99 629.395 m 0
 259.41 594.6 283.0785125 562.9775 316.6175 562.5825 c 0
 350.5975 562.1875 390.3125 594.0075 395.09 630 c 0
 399.67 664.795 376.0014875 696.115 342.4625 696.51 c 0
 308.18 696.905 268.7675 665.3875 263.99 629.395 c 0
EndSplineSet
Substitution2: "alt a" aring.alt
EndChar

StartChar: germandbls
Encoding: 223 223 219
Width: 537
VWidth: 0
Flags: HMW
LayerCount: 2
Fore
SplineSet
235.15 39.325 m 1
 339.74 47.325 436.1775 119.095 454.955 231.05 c 0
 473.8375 341.615 387.4875 412.905 281.365 419.7075 c 1
 286.9025 455.2475 l 1
 428.6125 449.55 527.8975 359.34 506.095 224.6975 c 0
 483.7925 86.58 364.205 -2.8025 227.2975 -9.5 c 1
 235.15 39.325 l 1
283.68 433.4 m 1
 289.2175 469.335 l 1
 387.945 473.94 462.665 515.57 479.14 599.95 c 0
 492.615 675.1025 456.4675 739.8725 362.3525 740.175 c 0
 283.935 740.4775 218.615 684.085 205.5475 606 c 2
 101.245 0 l 1
 49.395 0 l 1
 152.895 606.3025 l 1
 170.79 710.1175 256.655 789.3025 366.785 789.5 c 0
 488.8832475 789.6975 549.095 710.92 532.3975 605.5 c 0
 512.095 488.715 420.31 437.0975 283.68 433.4 c 1
EndSplineSet
EndChar

StartChar: ae
Encoding: 230 230 220
Width: 800
VWidth: 0
Flags: HMW
LayerCount: 2
Fore
SplineSet
79.8 133.815 m 0
 70.0225 77.02 106.5775 38.01 173.81 37.405 c 0
 259.55 36.4975 324.53 95.6 341.055 174.1675 c 1
 367.205 142.9175 l 1
 348.5625 56.72 267.3525 -9.5 169.68 -9.5 c 0
 74.05 -9.5 13.9375 45.215 27.0425 128.265 c 0
 41.9375 227.315 135.37 284.025 238.5 283.525 c 0
 305.55 283.525 348.285 254.685 371.89 228.6475 c 1
 366.5625 197.065 l 1
 332.3825 224.9975 291.2775 242.9725 237.395 242.67 c 0
 157.8225 242.3675 91.775 202.875 79.8 133.815 c 0
134.1 369.1825 m 1
 114.185 410.3525 l 1
 157.5 439.235 214.735 470.5925 288.0375 469.5 c 0
 378.205 467.9075 416.515 409.5875 406.1075 330 c 1
 375.175 142.745 l 1
 336.215 142.9425 l 1
 366.7525 320 l 1
 373.5436975 373.770185 345.2325 421.2 282.7225 422.8975 c 0
 220.47 424.7 169.6675 392.6325 134.1 369.1825 c 1
386.8975 217.4125 m 1
 394.145 261.8975 l 1
 767.685 262.2 l 1
 774.4075 217.11 l 1
 386.8975 217.4125 l 1
726.5575 250 m 2
 739.625 340.3125 699.06 422.095 605.53 423.3975 c 0
 503.3725 424.7 427.3925 343.74 407.43 250.125 c 1
 402.8925 231.975 l 1
 390.09 132.5075 426.83 41.5225 529.6925 39.825 c 0
 610.795 38.6275 666.93 82.5525 711.1575 133.4775 c 1
 749.815 105.6975 l 1
 693.42 39.395 626.71 -11 519.5125 -9.5 c 0
 396.0925 -7.5 335.37 109.5925 355.895 230 c 0
 359.5 247 368.3275 263 374.4325 279 c 0
 412.55 383.4875 495.395 470.6975 616.9875 469.5 c 0
 728.1 468.3025 795.1975 363.6225 780.105 241.505 c 0
 778.9075 233.505 777.21 225.4125 775.0125 217.4125 c 1
 723.0575 230.5 l 1
 726.5575 250 l 2
EndSplineSet
EndChar

StartChar: ccedilla
Encoding: 231 231 221
Width: 466
VWidth: 0
Flags: HMW
LayerCount: 2
Fore
SplineSet
96.4975 230 m 0
 81.22 131.3725 135.7 40.93 239.92 39.825 c 0
 310.1425 39.22 371.7725 75.2575 407.7725 113.24 c 1
 397.605 48.105 l 1
 358.58 15.0675 299.0675 -9.5 234.9875 -9.5 c 0
 101.58 -9.1975 25.95 103.4875 44.45 230 c 0
 64.6475 362.4075 178.055 469.395 313.265 469.5 c 0
 373.45 469.5 426.765 446.63 458.6975 411.0925 c 1
 448.2275 345.9575 l 1
 425.66 388.65 373.7525 420.4775 308.8325 420.175 c 0
 203.1125 419.8725 113.9725 334.22 96.4975 230 c 0
231.8025 33.7075 m 1
 273.04 33.7075 l 1
 196.9775 -63.0725 l 1
 207.97 -57.9375 216.685 -53.395 229.6525 -53.9875 c 0
 265.35 -56.895 294.2575 -85.4875 289.2575 -128.5925 c 0
 282.2575 -185.29 224.4675 -221.4875 170.77 -221.29 c 0
 135.665 -221.29 113.56 -207.685 88.455 -182.8825 c 1
 114.71 -157.5225 l 1
 133.6725 -173.985 148.53 -184.9725 174.19 -184.9725 c 0
 209.59 -184.9725 247.4525 -161.9425 252.0325 -127.4875 c 0
 255.625 -99.26 235.4525 -82.02 207.4775 -80.9275 c 0
 186.4475 -79.5325 159.3675 -89.4025 137.59 -101.0875 c 1
 231.8025 33.7075 l 1
EndSplineSet
EndChar

StartChar: egrave
Encoding: 232 232 222
Width: 494
VWidth: 0
Flags: HMW
LayerCount: 2
Fore
SplineSet
82.7175 217.4125 m 1
 89.965 261.8975 l 1
 420.645 262.2 l 1
 430.1375 344.105 391.8 422.0025 300.185 423.0025 c 0
 204.545 424.0025 125.9975 346.11 108.405 249.335 c 1
 104.065 230.9875 l 1
 91.6575 132.1125 130.582895 41.1465943 231.9575 39.825 c 0
 311.281315 38.9428443 364.9425 85.3175 405.8125 133.675 c 1
 444.47 105.6975 l 1
 392.315 43.9375 328.67645 -10.2438662 221.475 -9.5 c 0
 95.74 -8.395 36.005 108.87 51.715 230.79 c 0
 54.8075 251.5425 59.9925 271.295 67.4675 290.455 c 0
 103.1525 390.1475 193.1225 470 304.1175 469.5 c 0
 428.0325 468.8025 488.8775 362.685 473.97 241.9 c 0
 472.7725 233.7025 471.18 225.4125 469.18 217.4125 c 1
 82.7175 217.4125 l 1
195.5050225 689.026975 m 1
 246.6575225 715.584475 l 1
 375.4525225 555.176975 l 1
 344.8450225 535.854475 l 1
 195.5050225 689.026975 l 1
EndSplineSet
EndChar

StartChar: eacute
Encoding: 233 233 223
Width: 494
VWidth: 0
Flags: HMW
LayerCount: 2
Fore
SplineSet
82.7175 217.4125 m 1
 89.965 261.8975 l 1
 420.645 262.2 l 1
 430.1375 344.105 391.8 422.0025 300.185 423.0025 c 0
 204.545 424.0025 125.9975 346.11 108.405 249.335 c 1
 104.065 230.9875 l 1
 91.6575 132.1125 130.582895 41.1465943 231.9575 39.825 c 0
 311.281315 38.9428443 364.9425 85.3175 405.8125 133.675 c 1
 444.47 105.6975 l 1
 392.315 43.9375 328.67645 -10.2438662 221.475 -9.5 c 0
 95.74 -8.395 36.005 108.87 51.715 230.79 c 0
 54.8075 251.5425 59.9925 271.295 67.4675 290.455 c 0
 103.1525 390.1475 193.1225 470 304.1175 469.5 c 0
 428.0325 468.8025 488.8775 362.685 473.97 241.9 c 0
 472.7725 233.7025 471.18 225.4125 469.18 217.4125 c 1
 82.7175 217.4125 l 1
496.12635 686.316975 m 1
 299.69385 536.459475 l 1
 272.61135 556.886975 l 1
 451.61635 714.886975 l 1
 496.12635 686.316975 l 1
EndSplineSet
EndChar

StartChar: ecircumflex
Encoding: 234 234 224
Width: 494
VWidth: 0
Flags: HMW
LayerCount: 2
Fore
SplineSet
82.7175 217.4125 m 1
 89.965 261.8975 l 1
 420.645 262.2 l 1
 430.1375 344.105 391.8 422.0025 300.185 423.0025 c 0
 204.545 424.0025 125.9975 346.11 108.405 249.335 c 1
 104.065 230.9875 l 1
 91.6575 132.1125 130.582895 41.1465943 231.9575 39.825 c 0
 311.281315 38.9428443 364.9425 85.3175 405.8125 133.675 c 1
 444.47 105.6975 l 1
 392.315 43.9375 328.67645 -10.2438662 221.475 -9.5 c 0
 95.74 -8.395 36.005 108.87 51.715 230.79 c 0
 54.8075 251.5425 59.9925 271.295 67.4675 290.455 c 0
 103.1525 390.1475 193.1225 470 304.1175 469.5 c 0
 428.0325 468.8025 488.8775 362.685 473.97 241.9 c 0
 472.7725 233.7025 471.18 225.4125 469.18 217.4125 c 1
 82.7175 217.4125 l 1
334.6814775 640.104475 m 1
 191.5239775 530.501975 l 1
 162.5339775 558.071975 l 1
 341.1264775 696.571975 l 1
 474.3364775 556.164475 l 1
 438.7039775 530.106975 l 1
 334.6814775 640.104475 l 1
EndSplineSet
EndChar

StartChar: edieresis
Encoding: 235 235 225
Width: 494
VWidth: 0
Flags: HMW
LayerCount: 2
Fore
SplineSet
82.7175 217.4125 m 1
 89.965 261.8975 l 1
 420.645 262.2 l 1
 430.1375 344.105 391.8 422.0025 300.185 423.0025 c 0
 204.545 424.0025 125.9975 346.11 108.405 249.335 c 1
 104.065 230.9875 l 1
 91.6575 132.1125 130.582895 41.1465943 231.9575 39.825 c 0
 311.281315 38.9428443 364.9425 85.3175 405.8125 133.675 c 1
 444.47 105.6975 l 1
 392.315 43.9375 328.67645 -10.2438662 221.475 -9.5 c 0
 95.74 -8.395 36.005 108.87 51.715 230.79 c 0
 54.8075 251.5425 59.9925 271.295 67.4675 290.455 c 0
 103.1525 390.1475 193.1225 470 304.1175 469.5 c 0
 428.0325 468.8025 488.8775 362.685 473.97 241.9 c 0
 472.7725 233.7025 471.18 225.4125 469.18 217.4125 c 1
 82.7175 217.4125 l 1
380.135955 568.029475 m 0
 382.148455 586.536975 403.575955 605.649475 422.385955 604.741975 c 0
 441.800955 603.834475 455.980955 586.129475 453.968455 566.819475 c 0
 451.955955 548.311975 430.330955 529.199475 411.520955 530.106975 c 0
 392.105955 531.014475 378.123455 548.719475 380.135955 568.029475 c 0
186.135955 568.029475 m 0
 188.148455 586.536975 209.575955 605.649475 228.385955 604.741975 c 0
 247.800955 603.834475 261.980955 586.129475 259.968455 566.819475 c 0
 257.955955 548.311975 236.028455 529.199475 217.218455 530.106975 c 0
 197.803455 531.014475 184.123455 548.719475 186.135955 568.029475 c 0
EndSplineSet
EndChar

StartChar: igrave
Encoding: 236 236 226
Width: 225
VWidth: 0
Flags: HMW
LayerCount: 2
Fore
SplineSet
137.9875 459.5 m 1
 190.745 459.8025 l 1
 110.64 0 l 1
 60.105 0 l 1
 137.9875 459.5 l 1
50.255 695.47 m 1
 101.605 722.0275 l 1
 229.215 561.62 l 1
 197.91 542.2975 l 1
 50.255 695.47 l 1
EndSplineSet
EndChar

StartChar: dotlessi
Encoding: 305 305 227
Width: 225
VWidth: 0
Flags: HMW
LayerCount: 2
Fore
SplineSet
137.9875 459.5 m 1
 190.745 459.8025 l 1
 110.64 0 l 1
 60.105 0 l 1
 137.9875 459.5 l 1
EndSplineSet
EndChar

StartChar: kgreenlandic
Encoding: 312 312 228
Width: 400
VWidth: 0
Flags: HMW
LayerCount: 2
Fore
SplineSet
122.5425 459.5 m 1
 175.195 459.8025 l 1
 95.195 0 l 1
 44.3575 0 l 1
 122.5425 459.5 l 1
363.45 459.3025 m 1
 431.7825 459.3025 l 1
 186.7725 268.79 l 1
 369.27 0 l 1
 306.765 0 l 1
 123.0575 271.71 l 1
 363.45 459.3025 l 1
EndSplineSet
EndChar

StartChar: iacute
Encoding: 237 237 229
Width: 225
VWidth: 0
Flags: HMW
LayerCount: 2
Fore
SplineSet
137.9875 459.5 m 1
 190.745 459.8025 l 1
 110.64 0 l 1
 60.105 0 l 1
 137.9875 459.5 l 1
358.305 692.9575 m 1
 161.0825 543.1 l 1
 133.8025 563.5275 l 1
 314.0975 721.5275 l 1
 358.305 692.9575 l 1
EndSplineSet
EndChar

StartChar: icircumflex
Encoding: 238 238 230
Width: 225
VWidth: 0
Flags: HMW
LayerCount: 2
Fore
SplineSet
137.9875 459.5 m 1
 190.745 459.8025 l 1
 110.64 0 l 1
 60.105 0 l 1
 137.9875 459.5 l 1
197.755 646.35 m 1
 54.795 536.7475 l 1
 25.805 564.3175 l 1
 204.3975 702.8175 l 1
 337.6075 562.41 l 1
 302.08 536.3525 l 1
 197.755 646.35 l 1
EndSplineSet
EndChar

StartChar: idieresis
Encoding: 239 239 231
Width: 225
VWidth: 0
Flags: HMW
LayerCount: 2
Fore
SplineSet
137.9875 459.5 m 1
 190.745 459.8025 l 1
 110.64 0 l 1
 60.105 0 l 1
 137.9875 459.5 l 1
238.1125 586.375 m 0
 240.125 604.8825 261.5525 623.995 280.3625 623.0875 c 0
 299.7775 622.18 313.9575 604.475 311.945 585.165 c 0
 309.9325 566.6575 288.3075 547.545 269.4975 548.4525 c 0
 250.0825 549.36 236.1 567.065 238.1125 586.375 c 0
59.32 586.375 m 0
 61.3325 604.8825 82.9575 623.995 101.7675 623.0875 c 0
 121.1825 622.18 135.165 604.475 133.1525 585.165 c 0
 131.14 566.6575 109.515 547.545 90.705 548.4525 c 0
 71.29 549.36 57.3075 567.065 59.32 586.375 c 0
EndSplineSet
EndChar

StartChar: ntilde
Encoding: 241 241 232
Width: 489
VWidth: 0
Flags: HMW
LayerCount: 2
Fore
SplineSet
179.8925 459.8025 m 1
 100.195 0 l 1
 48.1475 0 l 1
 128.1475 459.8025 l 1
 179.8925 459.8025 l 1
386.5175 295.8 m 2
 394.8075 362.25 378.925 418.8725 304.8275 420.175 c 0
 224.0575 421.4775 165.775 352.3625 147.9975 281 c 1
 124.2425 281 l 1
 144.44 379.605 219.5575 469.6975 321.0575 469.5 c 0
 417.8975 469.3025 449.9725 393.8575 438.565 301.85 c 1
 386.195 0 l 1
 335.555 0 l 1
 386.5175 295.8 l 2
168.345 561.785 m 1
 183.895 598.5575 218.8225 633.6075 264.36 632.7 c 0
 314.5825 632.095 330.1625 585.3975 376.86 586.7 c 0
 402.5325 587.5025 421.65 608.805 440.1625 633.7 c 1
 467.615 605.895 l 1
 446.3925 573.6725 412.2 541.19 369.915 542.4 c 0
 323.2175 543.3075 302.7175 588.8075 260.7175 588.4 c 0
 224.625 587.9925 209.1375 558.9675 200.6375 538.4 c 1
 168.345 561.785 l 1
EndSplineSet
EndChar

StartChar: ograve
Encoding: 242 242 233
Width: 532
VWidth: 0
Flags: HMW
LayerCount: 2
Fore
SplineSet
49.1475 230 m 0
 69.345 361.605 182.8575 469.6975 317.765 469.5 c 0
 451.1725 469.3025 527.3025 356.5125 508.8025 230 c 0
 488.605 98.395 374.895 -9.6975 239.9875 -9.5 c 0
 106.58 -9.3025 30.6475 103.4875 49.1475 230 c 0
101.4975 230 m 0
 86.22 131.4775 139.8975 40.325 244.42 39.825 c 0
 350.14 39.325 439.4775 126.0825 456.4525 230 c 0
 471.73 328.5225 418.0525 419.675 313.53 420.175 c 0
 207.81 420.675 118.4725 333.9175 101.4975 230 c 0
211.4675 695.47 m 1
 262.8175 722.0275 l 1
 390.4275 561.62 l 1
 360.215 542.2975 l 1
 211.4675 695.47 l 1
EndSplineSet
EndChar

StartChar: oacute
Encoding: 243 243 234
Width: 532
VWidth: 0
Flags: HMW
LayerCount: 2
Fore
SplineSet
49.1475 230 m 0
 69.345 361.605 182.8575 469.6975 317.765 469.5 c 0
 451.1725 469.3025 527.3025 356.5125 508.8025 230 c 0
 488.605 98.395 374.895 -9.6975 239.9875 -9.5 c 0
 106.58 -9.3025 30.6475 103.4875 49.1475 230 c 0
101.4975 230 m 0
 86.22 131.4775 139.8975 40.325 244.42 39.825 c 0
 350.14 39.325 439.4775 126.0825 456.4525 230 c 0
 471.73 328.5225 418.0525 419.675 313.53 420.175 c 0
 207.81 420.675 118.4725 333.9175 101.4975 230 c 0
504.9025 692.9575 m 1
 307.1925 543.1 l 1
 280.7025 563.5275 l 1
 460.8925 721.5275 l 1
 504.9025 692.9575 l 1
EndSplineSet
EndChar

StartChar: ocircumflex
Encoding: 244 244 235
Width: 532
VWidth: 0
Flags: HMW
LayerCount: 2
Fore
SplineSet
49.1475 230 m 0
 69.345 361.605 182.8575 469.6975 317.765 469.5 c 0
 451.1725 469.3025 527.3025 356.5125 508.8025 230 c 0
 488.605 98.395 374.895 -9.6975 239.9875 -9.5 c 0
 106.58 -9.3025 30.6475 103.4875 49.1475 230 c 0
101.4975 230 m 0
 86.22 131.4775 139.8975 40.325 244.42 39.825 c 0
 350.14 39.325 439.4775 126.0825 456.4525 230 c 0
 471.73 328.5225 418.0525 419.675 313.53 420.175 c 0
 207.81 420.675 118.4725 333.9175 101.4975 230 c 0
354.2525 660.3 m 1
 211.2925 550.6975 l 1
 182.3025 578.2675 l 1
 360.895 716.7675 l 1
 494.105 576.36 l 1
 458.5775 550.3025 l 1
 354.2525 660.3 l 1
EndSplineSet
EndChar

StartChar: otilde
Encoding: 245 245 236
Width: 532
VWidth: 0
Flags: HMW
LayerCount: 2
Fore
SplineSet
49.1475 230 m 0
 69.345 361.605 182.8575 469.6975 317.765 469.5 c 0
 451.1725 469.3025 527.3025 356.5125 508.8025 230 c 0
 488.605 98.395 374.895 -9.6975 239.9875 -9.5 c 0
 106.58 -9.3025 30.6475 103.4875 49.1475 230 c 0
101.4975 230 m 0
 86.22 131.4775 139.8975 40.325 244.42 39.825 c 0
 350.14 39.325 439.4775 126.0825 456.4525 230 c 0
 471.73 328.5225 418.0525 419.675 313.53 420.175 c 0
 207.81 420.675 118.4725 333.9175 101.4975 230 c 0
189.3 561.785 m 1
 186.8375 599.175 251.3825 633.0025 285.5125 632.7 c 0
 335.735 632.2925 351.0125 585.3975 398.0125 586.7 c 0
 423.685 587.5025 442.8025 608.805 461.315 633.7 c 1
 489.2675 605.895 l 1
 468.045 573.6725 433.8525 541.19 391.765 542.4 c 0
 345.0675 543.3075 323.87 589.2025 281.87 588.4 c 0
 245.975 587.5975 230.685 558.77 221.9875 538.4 c 1
 189.3 561.785 l 1
EndSplineSet
EndChar

StartChar: odieresis
Encoding: 246 246 237
Width: 532
VWidth: 0
Flags: HMW
LayerCount: 2
Fore
SplineSet
49.1475 230 m 0
 69.345 361.605 182.8575 469.6975 317.765 469.5 c 0
 451.1725 469.3025 527.3025 356.5125 508.8025 230 c 0
 488.605 98.395 374.895 -9.6975 239.9875 -9.5 c 0
 106.58 -9.3025 30.6475 103.4875 49.1475 230 c 0
101.4975 230 m 0
 86.22 131.4775 139.8975 40.325 244.42 39.825 c 0
 350.14 39.325 439.4775 126.0825 456.4525 230 c 0
 471.73 328.5225 418.0525 419.675 313.53 420.175 c 0
 207.81 420.675 118.4725 333.9175 101.4975 230 c 0
401.2075 594.275 m 0
 403.22 612.7825 424.845 631.895 443.655 630.9875 c 0
 463.07 630.08 476.75 612.375 474.7375 593.065 c 0
 472.725 574.5575 451.2975 555.445 432.4875 556.3525 c 0
 413.0725 557.26 399.195 574.965 401.2075 594.275 c 0
207.2075 594.275 m 0
 209.22 612.7825 230.845 631.895 249.655 630.9875 c 0
 269.07 630.08 282.75 612.375 280.7375 593.065 c 0
 278.725 574.5575 257.1 555.445 238.29 556.3525 c 0
 218.875 557.26 205.195 574.965 207.2075 594.275 c 0
EndSplineSet
EndChar

StartChar: ugrave
Encoding: 249 249 238
Width: 489
VWidth: 0
Flags: HMW
LayerCount: 2
Fore
SplineSet
334.6475 0 m 1
 414.1475 459.8025 l 1
 466.195 459.8025 l 1
 386.695 0 l 1
 334.6475 0 l 1
128.9175 168.15 m 2
 120.43 99.725 134.93 40.93 209.7125 39.825 c 0
 290.4825 38.5225 348.5675 107.44 366.345 179 c 1
 390.6 179 l 1
 370.4025 80.395 294.785 -9.895 193.285 -9.5 c 0
 95.26 -9.3025 64.9625 67.92 76.5675 162.1 c 1
 128.45 459.8025 l 1
 178.985 459.5 l 1
 128.9175 168.15 l 2
206.3925 699.42 m 1
 258.045 725.9775 l 1
 385.655 565.57 l 1
 354.4425 546.2475 l 1
 206.3925 699.42 l 1
EndSplineSet
EndChar

StartChar: uacute
Encoding: 250 250 239
Width: 489
VWidth: 0
Flags: HMW
LayerCount: 2
Fore
SplineSet
334.6475 0 m 1
 414.1475 459.8025 l 1
 466.195 459.8025 l 1
 386.695 0 l 1
 334.6475 0 l 1
128.9175 168.15 m 2
 120.43 99.725 134.93 40.93 209.7125 39.825 c 0
 290.4825 38.5225 348.5675 107.44 366.345 179 c 1
 390.6 179 l 1
 370.4025 80.395 294.785 -9.895 193.285 -9.5 c 0
 95.26 -9.3025 64.9625 67.92 76.5675 162.1 c 1
 128.45 459.8025 l 1
 178.985 459.5 l 1
 128.9175 168.15 l 2
467.6475 696.9075 m 1
 270.3325 546.7475 l 1
 244.0525 567.4775 l 1
 424.045 725.4775 l 1
 467.6475 696.9075 l 1
EndSplineSet
EndChar

StartChar: ucircumflex
Encoding: 251 251 240
Width: 489
VWidth: 0
Flags: HMW
LayerCount: 2
Fore
SplineSet
334.6475 0 m 1
 414.1475 459.8025 l 1
 466.195 459.8025 l 1
 386.695 0 l 1
 334.6475 0 l 1
128.9175 168.15 m 2
 120.43 99.725 134.93 40.93 209.7125 39.825 c 0
 290.4825 38.5225 348.5675 107.44 366.345 179 c 1
 390.6 179 l 1
 370.4025 80.395 294.785 -9.895 193.285 -9.5 c 0
 95.26 -9.3025 64.9625 67.92 76.5675 162.1 c 1
 128.45 459.8025 l 1
 178.985 459.5 l 1
 128.9175 168.15 l 2
331.9025 656.35 m 1
 188.5475 546.7475 l 1
 159.65 574.3175 l 1
 338.545 712.8175 l 1
 471.755 572.41 l 1
 435.53 546.3525 l 1
 331.9025 656.35 l 1
EndSplineSet
EndChar

StartChar: udieresis
Encoding: 252 252 241
Width: 489
VWidth: 0
Flags: HMW
LayerCount: 2
Fore
SplineSet
334.6475 0 m 1
 414.1475 459.8025 l 1
 466.195 459.8025 l 1
 386.695 0 l 1
 334.6475 0 l 1
128.9175 168.15 m 2
 120.43 99.725 134.93 40.93 209.7125 39.825 c 0
 290.4825 38.5225 348.5675 107.44 366.345 179 c 1
 390.6 179 l 1
 370.4025 80.395 294.785 -9.895 193.285 -9.5 c 0
 95.26 -9.3025 64.9625 67.92 76.5675 162.1 c 1
 128.45 459.8025 l 1
 178.985 459.5 l 1
 128.9175 168.15 l 2
370.945 588.4225 m 0
 372.9575 606.6275 394.3725 625.845 413.1825 624.9375 c 0
 432.5975 623.8325 446.79 606.325 444.7775 587.015 c 0
 442.765 568.5075 420.6275 549.395 401.8175 550.3025 c 0
 382.1 551.21 368.9325 569.415 370.945 588.4225 c 0
192.1525 588.4225 m 0
 194.165 606.6275 215.58 625.845 234.39 624.9375 c 0
 253.805 623.8325 267.8925 606.325 265.88 587.015 c 0
 263.8675 568.5075 242.0325 549.395 223.2225 550.3025 c 0
 203.505 551.21 190.14 569.415 192.1525 588.4225 c 0
EndSplineSet
EndChar

StartChar: yacute
Encoding: 253 253 242
Width: 420
VWidth: 0
Flags: HMW
LayerCount: 2
Fore
SplineSet
470.73 459.5 m 1
 62.23 -219.5 l 1
 2.83 -219.3025 l 1
 165.375 48.935 l 1
 55.555 460 l 1
 115.6525 460 l 1
 210.7675 68.4 l 1
 186.76 71.32 l 1
 411.33 459.5 l 1
 470.73 459.5 l 1
438.6225 692.9575 m 1
 241.005 543.1 l 1
 214.4225 563.5275 l 1
 394.415 721.5275 l 1
 438.6225 692.9575 l 1
EndSplineSet
EndChar

StartChar: thorn
Encoding: 254 254 243
Width: 541
VWidth: 0
Flags: HMW
LayerCount: 2
Fore
SplineSet
58.6025 -219.5 m 1
 5.845 -219.8025 l 1
 177.95 779.8025 l 1
 228.7875 779.5 l 1
 58.6025 -219.5 l 1
516.99 230 m 0
 497.49 96.08 390.545 -11 261.9275 -9.8025 c 0
 138.0325 -8.605 95.335 113.215 111.1375 230 c 0
 129.335 354.4825 216.2175 469 339.705 469.5 c 0
 468.02 470 534.595 357.8275 516.99 230 c 0
464.9425 230 m 0
 479.6275 331.1525 430.0725 420.57 328.34 420.175 c 0
 234.7125 419.78 150.775 329.61 134.8925 230 c 0
 121.7075 137.075 167.1025 41.825 259.4275 39.825 c 0
 361.5675 37.6275 448.3625 123.36 464.9425 230 c 0
EndSplineSet
EndChar

StartChar: ydieresis
Encoding: 255 255 244
Width: 420
VWidth: 0
Flags: HMW
LayerCount: 2
Fore
SplineSet
470.73 459.5 m 1
 62.23 -219.5 l 1
 2.83 -219.3025 l 1
 165.375 48.935 l 1
 55.555 460 l 1
 115.6525 460 l 1
 210.7675 68.4 l 1
 186.76 71.32 l 1
 411.33 459.5 l 1
 470.73 459.5 l 1
334.4375 576.125 m 0
 336.45 594.6325 357.68 613.745 376.49 612.8375 c 0
 395.905 611.93 409.98 594.0275 407.9675 574.7175 c 0
 405.955 556.21 384.1325 537.295 365.3225 538.2025 c 0
 345.9075 539.3075 332.425 556.815 334.4375 576.125 c 0
155.8425 576.125 m 0
 157.855 594.6325 179.085 613.745 197.895 612.8375 c 0
 217.31 611.93 231.385 594.0275 229.3725 574.7175 c 0
 227.36 556.21 205.34 537.295 186.53 538.2025 c 0
 167.115 539.3075 153.83 556.815 155.8425 576.125 c 0
EndSplineSet
EndChar

StartChar: Amacron
Encoding: 256 256 245
Width: 617
VWidth: 0
Flags: HMW
LayerCount: 2
Fore
SplineSet
147.945 235.095 m 1
 173.645 286.5375 l 1
 488.9825 286.84 l 1
 498.07 234.49 l 1
 147.945 235.095 l 1
385.8275 599.67 m 1
 196.665 269.135 l 1
 189.72 256.665 l 1
 42.3625 0 l 1
 -20.4575 0 l 1
 405.86 728.0075 l 1
 581.3375 0 l 1
 521.24 0 l 1
 463.8325 253.035 l 1
 461.215 266.32 l 1
 385.8275 599.67 l 1
247.8475 795.3025 m 1
 255.7 844.325 l 1
 596.6075 844.325 l 1
 588.255 795 l 1
 247.8475 795.3025 l 1
EndSplineSet
EndChar

StartChar: amacron
Encoding: 257 257 246
Width: 541
VWidth: 0
Flags: HMW
LayerCount: 2
Fore
SplineSet
473.165 459.5 m 1
 523.095 459.8025 l 1
 443.095 0 l 1
 395.1775 0 l 1
 473.165 459.5 l 1
49.1475 230 m 0
 68.6475 363.92 175.895 471 304.5125 469.8025 c 0
 428.4075 468.605 471.105 346.785 455.3025 230 c 0
 437.105 105.5175 350.025 -9 226.5375 -9.5 c 0
 98.2225 -10 31.5425 102.1725 49.1475 230 c 0
101.4975 230 m 0
 86.8125 128.8475 136.17 39.43 237.9025 39.825 c 0
 331.53 40.22 415.665 130.39 431.5475 230 c 0
 444.7325 322.925 399.14 418.175 306.815 420.175 c 0
 204.675 422.3725 118.0775 336.64 101.4975 230 c 0
154.26 544.2525 m 1
 162.31 593.275 l 1
 503.02 593.275 l 1
 494.5625 543.95 l 1
 154.26 544.2525 l 1
EndSplineSet
Substitution2: "alt a" amacron.alt
EndChar

StartChar: breve
Encoding: 728 728 247
Width: 529
VWidth: 0
Flags: HMW
LayerCount: 2
Fore
SplineSet
224.895 850 m 1
 270.3925 850 l 1
 268.01 802.9775 292.7675 754.275 361.9325 753.775 c 0
 433.295 753.275 471.225 803.175 486.095 849.5 c 1
 532.6975 849 l 1
 514.605 776.5 455.9075 710.5 358.71 710.5 c 0
 263.21 710.5 220 776.395 224.895 850 c 1
EndSplineSet
EndChar

StartChar: Abreve
Encoding: 258 258 248
Width: 617
VWidth: 0
Flags: HMW
LayerCount: 2
Fore
SplineSet
147.945 235.095 m 1
 173.645 286.5375 l 1
 488.9825 286.84 l 1
 498.07 234.49 l 1
 147.945 235.095 l 1
385.8275 599.67 m 1
 196.665 269.135 l 1
 189.72 256.665 l 1
 42.3625 0 l 1
 -20.4575 0 l 1
 405.86 728.0075 l 1
 581.3375 0 l 1
 521.24 0 l 1
 463.8325 253.035 l 1
 461.215 266.32 l 1
 385.8275 599.67 l 1
286.65 931.05 m 1
 332.345 930.7475 l 1
 329.0675 883.9225 352.825 835.325 421.99 834.825 c 0
 493.3525 834.325 531.98 884.5275 547.85 930.3525 c 1
 594.4525 930.05 l 1
 575.0575 857.7475 515.6625 791.3525 418.465 791.55 c 0
 322.6625 791.7475 280.5575 857.7475 286.65 931.05 c 1
EndSplineSet
EndChar

StartChar: abreve
Encoding: 259 259 249
Width: 541
VWidth: 0
Flags: HMW
LayerCount: 2
Fore
SplineSet
473.165 459.5 m 1
 523.095 459.8025 l 1
 443.095 0 l 1
 395.1775 0 l 1
 473.165 459.5 l 1
49.1475 230 m 0
 68.6475 363.92 175.895 471 304.5125 469.8025 c 0
 428.4075 468.605 471.105 346.785 455.3025 230 c 0
 437.105 105.5175 350.025 -9 226.5375 -9.5 c 0
 98.2225 -10 31.5425 102.1725 49.1475 230 c 0
101.4975 230 m 0
 86.8125 128.8475 136.17 39.43 237.9025 39.825 c 0
 331.53 40.22 415.665 130.39 431.5475 230 c 0
 444.7325 322.925 399.14 418.175 306.815 420.175 c 0
 204.675 422.3725 118.0775 336.64 101.4975 230 c 0
175.9 677.5975 m 1
 221.3975 677.295 l 1
 218.4225 630.47 242.785 581.8725 311.95 581.3725 c 0
 383.3125 580.8725 421.835 630.7725 437.1 676.9 c 1
 483.7025 676.5975 l 1
 465.215 604.295 405.925 537.9 308.7275 538.0975 c 0
 213.2275 538.295 170.4125 603.9925 175.9 677.5975 c 1
EndSplineSet
Substitution2: "alt a" abreve.alt
EndChar

StartChar: Aogonek
Encoding: 260 260 250
Width: 617
VWidth: 0
Flags: HMW
LayerCount: 2
Fore
SplineSet
148.735 235.095 m 1
 174.435 286.5375 l 1
 488.9825 286.84 l 1
 498.07 234.49 l 1
 148.735 235.095 l 1
385.8275 599.67 m 1
 196.665 269.135 l 1
 189.72 256.665 l 1
 42.3625 0 l 1
 -20.4575 0 l 1
 405.86 728.0075 l 1
 581.3375 0 l 1
 521.24 0 l 1
 463.8325 253.035 l 1
 461.215 266.32 l 1
 385.8275 599.67 l 1
571.83 -147.1825 m 1
 589.325 -181.3025 l 1
 566.7325 -201 534.0725 -219.395 494.2825 -219.5 c 0
 428.8 -219.9075 388.1825 -183.7525 396.3925 -127.4 c 0
 407.3925 -58.0425 489.6875 -14.2275 556.9775 18.575 c 1
 582.4425 0 l 1
 528.635 -25.8575 457.835 -62.9125 449.65 -115.8 c 0
 445.465 -151.12 468.13 -171.7925 502.5425 -173.2 c 0
 530.8625 -174.305 554.17 -160.4475 571.83 -147.1825 c 1
EndSplineSet
EndChar

StartChar: aogonek
Encoding: 261 261 251
Width: 541
VWidth: 0
Flags: HMW
LayerCount: 2
Fore
SplineSet
473.165 459.5 m 1
 523.095 459.8025 l 1
 443.095 0.3025 l 1
 395.1775 0 l 1
 473.165 459.5 l 1
49.1475 230 m 0
 68.6475 363.92 175.895 471 304.5125 469.8025 c 0
 428.4075 468.605 471.105 346.785 455.3025 230 c 0
 437.105 105.5175 350.025 -9 226.5375 -9.5 c 0
 98.2225 -10 31.5425 102.1725 49.1475 230 c 0
101.4975 230 m 0
 86.8125 128.8475 136.17 39.43 237.9025 39.825 c 0
 331.53 40.22 415.665 130.39 431.5475 230 c 0
 444.7325 322.925 399.14 418.175 306.815 420.175 c 0
 204.675 422.3725 118.0775 336.64 101.4975 230 c 0
433.4825 -147.1825 m 1
 450.675 -181.3025 l 1
 428.0825 -201 395.4225 -219.395 355.6325 -219.5 c 0
 290.15 -219.9075 249.5325 -183.7525 257.7425 -127.4 c 0
 268.7425 -58.0425 351.235 -14.425 418.525 18.575 c 1
 443.99 0 l 1
 390.1825 -25.8575 319.4875 -62.9125 311.3025 -115.8 c 0
 307.1175 -151.12 329.7825 -171.7925 364.195 -173.2 c 0
 392.515 -174.305 415.8225 -160.4475 433.4825 -147.1825 c 1
EndSplineSet
Substitution2: "alt a" aogonek.alt
EndChar

StartChar: Cacute
Encoding: 262 262 252
Width: 664
VWidth: 0
Flags: HMW
LayerCount: 2
Fore
SplineSet
133.2325 350 m 0
 109.955 194.3725 191.72 48.955 353.495 47.455 c 0
 449.0075 46.6525 527.545 86.425 590.3225 142.055 c 1
 578.55 68.475 l 1
 513.155 19.6725 442.155 -9.5125 347.9575 -9.0125 c 0
 152.26 -8.0125 47.345 163.08 74.6475 350 c 0
 105.1475 547.0125 267.9325 708.21 466.5375 709.21 c 0
 555.34 709.71 617.945 683.92 673.8525 630.92 c 1
 661.975 557.5375 l 1
 615.6175 619.3775 547.7225 652.94 461 652.7425 c 0
 297.225 652.045 160.2075 516.01 133.2325 350 c 0
633.815 920.0675 m 1
 436.105 770.21 l 1
 409.615 790.6375 l 1
 589.805 948.6375 l 1
 633.815 920.0675 l 1
EndSplineSet
EndChar

StartChar: cacute
Encoding: 263 263 253
Width: 466
VWidth: 0
Flags: HMW
LayerCount: 2
Fore
SplineSet
96.4975 230 m 0
 81.22 131.3725 135.7 40.93 239.92 39.825 c 0
 310.1425 39.22 371.7725 75.2575 407.7725 113.24 c 1
 397.605 48.105 l 1
 358.58 15.0675 299.0675 -9.5 234.9875 -9.5 c 0
 101.58 -9.1975 25.95 103.4875 44.45 230 c 0
 64.6475 362.4075 178.055 469.395 313.265 469.5 c 0
 373.45 469.5 426.765 446.63 458.6975 411.0925 c 1
 448.2275 345.9575 l 1
 425.66 388.65 373.7525 420.4775 308.8325 420.175 c 0
 203.1125 419.8725 113.9725 334.22 96.4975 230 c 0
484.69 684.8075 m 1
 287.4675 534.95 l 1
 260.1875 555.3775 l 1
 440.3775 713.3775 l 1
 484.69 684.8075 l 1
EndSplineSet
EndChar

StartChar: Ccircumflex
Encoding: 264 264 254
Width: 664
VWidth: 0
Flags: HMW
LayerCount: 2
Fore
SplineSet
133.2325 350 m 0
 109.955 194.3725 191.72 48.955 353.495 47.455 c 0
 449.0075 46.6525 527.545 86.425 590.3225 142.055 c 1
 578.55 68.475 l 1
 513.155 19.6725 442.155 -9.5125 347.9575 -9.0125 c 0
 152.26 -7.815 47.345 163.08 74.6475 350 c 0
 105.1475 547.0125 267.9325 708.21 466.5375 709.21 c 0
 555.34 709.71 617.945 683.92 673.8525 630.92 c 1
 661.975 557.5375 l 1
 615.6175 619.3775 547.7225 652.94 461 652.7425 c 0
 297.225 652.045 160.2075 516.01 133.2325 350 c 0
499.525 879.51 m 1
 356.67 769.9075 l 1
 327.3775 797.4775 l 1
 505.97 935.9775 l 1
 639.18 795.57 l 1
 603.85 769.5125 l 1
 499.525 879.51 l 1
EndSplineSet
EndChar

StartChar: ccircumflex
Encoding: 265 265 255
Width: 466
VWidth: 0
Flags: HMW
LayerCount: 2
Fore
SplineSet
96.4975 230 m 0
 81.22 131.3725 135.7 40.93 239.92 39.825 c 0
 310.1425 39.22 371.7725 75.2575 407.7725 113.24 c 1
 397.605 48.105 l 1
 358.58 15.0675 299.0675 -9.5 234.9875 -9.5 c 0
 101.58 -9.1975 25.95 103.4875 44.45 230 c 0
 64.6475 362.4075 178.055 469.395 313.265 469.5 c 0
 373.45 469.5 426.765 446.63 458.6975 411.0925 c 1
 448.2275 345.9575 l 1
 425.66 388.65 373.7525 420.4775 308.8325 420.175 c 0
 203.1125 419.8725 113.9725 334.22 96.4975 230 c 0
346.2525 640.3 m 1
 203.095 530.6975 l 1
 173.8025 558.2675 l 1
 352.395 696.7675 l 1
 485.9075 556.36 l 1
 450.275 530.3025 l 1
 346.2525 640.3 l 1
EndSplineSet
EndChar

StartChar: Cdotaccent
Encoding: 266 266 256
Width: 664
VWidth: 0
Flags: HMW
LayerCount: 2
Fore
SplineSet
133.2325 350 m 0
 109.955 194.3725 191.72 48.955 353.495 47.455 c 0
 449.0075 46.6525 527.545 86.425 590.3225 142.055 c 1
 578.55 68.475 l 1
 513.155 19.6725 442.155 -9.5125 347.9575 -9.0125 c 0
 152.26 -8.0125 47.345 163.08 74.6475 350 c 0
 105.1475 547.0125 267.9325 708.21 466.5375 709.21 c 0
 555.34 709.71 617.945 683.92 673.8525 630.92 c 1
 661.975 557.5375 l 1
 615.6175 619.3775 547.7225 652.94 461 652.7425 c 0
 297.225 652.045 160.2075 516.01 133.2325 350 c 0
449.165 811.385 m 0
 451.1775 829.8925 472.8025 849.005 491.6125 848.0975 c 0
 511.0275 847.19 524.7075 829.485 522.695 810.175 c 0
 520.6825 791.6675 499.0575 772.555 480.2475 773.4625 c 0
 460.8325 774.37 447.1525 792.075 449.165 811.385 c 0
EndSplineSet
EndChar

StartChar: cdotaccent
Encoding: 267 267 257
Width: 466
VWidth: 0
Flags: HMW
LayerCount: 2
Fore
SplineSet
96.4975 230 m 0
 81.22 131.3725 135.7 40.93 239.92 39.825 c 0
 310.1425 39.22 371.7725 75.2575 407.7725 113.24 c 1
 397.605 48.105 l 1
 358.58 15.0675 299.0675 -9.5 234.9875 -9.5 c 0
 101.58 -9.1975 25.95 103.4875 44.45 230 c 0
 64.6475 362.4075 178.055 469.395 313.265 469.5 c 0
 373.45 469.5 426.765 446.63 458.6975 411.0925 c 1
 448.2275 345.9575 l 1
 425.66 388.65 373.7525 420.4775 308.8325 420.175 c 0
 203.1125 419.8725 113.9725 334.22 96.4975 230 c 0
295.59 572.175 m 0
 297.6025 590.6825 319.2275 609.795 338.0375 608.8875 c 0
 357.4525 607.98 371.1325 590.275 369.12 570.965 c 0
 367.1075 552.4575 345.4825 533.345 326.6725 534.2525 c 0
 307.2575 535.16 293.5775 552.865 295.59 572.175 c 0
EndSplineSet
EndChar

StartChar: Ccaron
Encoding: 268 268 258
Width: 664
VWidth: 0
Flags: HMW
LayerCount: 2
Fore
SplineSet
133.2325 350 m 0
 109.955 194.3725 191.72 48.955 353.495 47.455 c 0
 449.0075 46.6525 527.545 86.425 590.3225 142.055 c 1
 578.55 68.475 l 1
 513.155 19.6725 442.155 -9.5125 347.9575 -9.0125 c 0
 152.26 -7.815 47.345 163.08 74.6475 350 c 0
 105.1475 547.0125 267.9325 708.21 466.5375 709.21 c 0
 555.34 709.71 617.945 683.92 673.8525 630.92 c 1
 661.975 557.5375 l 1
 615.6175 619.3775 547.7225 652.94 461 652.7425 c 0
 297.225 652.045 160.2075 516.01 133.2325 350 c 0
487.1925 829.825 m 1
 629.955 939.8225 l 1
 659.1425 911.8575 l 1
 480.55 773.3575 l 1
 347.34 913.765 l 1
 383.565 940.2175 l 1
 487.1925 829.825 l 1
EndSplineSet
EndChar

StartChar: ccaron
Encoding: 269 269 259
Width: 466
VWidth: 0
Flags: HMW
LayerCount: 2
Fore
SplineSet
96.4975 230 m 0
 81.22 131.3725 135.7 40.93 239.92 39.825 c 0
 310.1425 39.22 371.7725 75.2575 407.7725 113.24 c 1
 397.605 48.105 l 1
 358.58 15.0675 299.0675 -9.5 234.9875 -9.5 c 0
 101.58 -9.1975 25.95 103.4875 44.45 230 c 0
 64.6475 362.4075 178.055 469.395 313.265 469.5 c 0
 373.45 469.5 426.765 446.63 458.6975 411.0925 c 1
 448.2275 345.9575 l 1
 425.66 388.65 373.7525 420.4775 308.8325 420.175 c 0
 203.1125 419.8725 113.9725 334.22 96.4975 230 c 0
334.5125 594.565 m 1
 476.9725 704.5625 l 1
 506.66 676.5975 l 1
 328.0675 538.0975 l 1
 194.555 678.505 l 1
 230.5825 704.9575 l 1
 334.5125 594.565 l 1
EndSplineSet
EndChar

StartChar: Dcaron
Encoding: 270 270 260
Width: 642
VWidth: 0
Flags: HMW
LayerCount: 2
Fore
SplineSet
173.0425 699.5 m 1
 229.115 699.8025 l 1
 108.3125 0 l 1
 54.3575 0 l 1
 173.0425 699.5 l 1
241.1075 0 m 1
 83.15 0 l 1
 93.015 55.77 l 1
 246.645 55.77 l 1
 420.5375 58.77 550.03 180.2925 578.005 350 c 0
 603.2825 511.22 521.635 640.5325 350.7425 644.23 c 1
 193.0875 644.23 l 1
 202.9525 700 l 1
 356.28 700 l 1
 556.675 696.5 661.67 540.6175 633.17 350 c 0
 601.9725 150.79 445.1075 3 241.1075 0 c 1
429.5875 837.725 m 1
 572.0475 947.7225 l 1
 601.735 919.7575 l 1
 423.1425 781.2575 l 1
 289.9325 921.665 l 1
 325.6575 948.1175 l 1
 429.5875 837.725 l 1
EndSplineSet
EndChar

StartChar: dcaron
Encoding: 271 271 261
Width: 553
VWidth: 0
Flags: HMW
LayerCount: 2
Fore
SplineSet
524.64 779.5 m 1
 577.595 779.8025 l 1
 442.7925 0 l 1
 392.1525 0 l 1
 524.64 779.5 l 1
49.1475 230 m 0
 68.6475 363.92 175.895 471 304.5125 469.8025 c 0
 428.4075 468.605 471.105 346.785 455.3025 230 c 0
 437.105 105.5175 350.025 -9 226.5375 -9.5 c 0
 98.2225 -10 31.5425 102.1725 49.1475 230 c 0
101.4975 230 m 0
 86.8125 128.8475 136.17 39.43 237.9025 39.825 c 0
 331.53 40.22 415.665 130.39 431.5475 230 c 0
 444.7325 322.925 399.14 418.175 306.815 420.175 c 0
 204.675 422.3725 118.0775 336.64 101.4975 230 c 0
718.0225 772.68 m 1
 768.15 751.95 l 1
 617.86 504.555 l 1
 581.9125 518.05 l 1
 718.0225 772.68 l 1
EndSplineSet
EndChar

StartChar: Dcroat
Encoding: 272 272 262
Width: 659
VWidth: 0
Flags: HMW
LayerCount: 2
Fore
SplineSet
33.1725 324.1275 m 1
 41.3275 373.15 l 1
 333.4325 373.15 l 1
 325.2775 323.825 l 1
 33.1725 324.1275 l 1
173.0425 699.5 m 1
 229.115 699.8025 l 1
 108.3125 0 l 1
 54.3575 0 l 1
 173.0425 699.5 l 1
241.1075 0 m 1
 83.15 0 l 1
 93.015 55.77 l 1
 246.645 55.77 l 1
 419.945 58.9675 550.03 180.6875 578.005 350 c 0
 603.2825 511.0225 521.24 640.5325 350.7425 644.23 c 1
 193.0875 644.23 l 1
 202.9525 700 l 1
 356.28 700 l 1
 556.675 696.5 661.67 540.6175 633.17 350 c 0
 601.9725 150.79 445.1075 3 241.1075 0 c 1
EndSplineSet
EndChar

StartChar: dcroat
Encoding: 273 273 263
Width: 541
VWidth: 0
Flags: HMW
LayerCount: 2
Fore
SplineSet
364.345 615.9775 m 1
 372.5 665 l 1
 664.9075 665 l 1
 656.2525 615.675 l 1
 364.345 615.9775 l 1
524.64 779.5 m 1
 577.595 779.8025 l 1
 442.7925 0 l 1
 392.1525 0 l 1
 524.64 779.5 l 1
49.1475 230 m 0
 68.6475 364.5125 175.895 471 304.5125 469.8025 c 0
 426.8275 468.605 471.105 348.76 455.3025 230 c 0
 437.105 103.5425 348.445 -9 226.5375 -9.5 c 0
 98.2225 -10 31.345 101.58 49.1475 230 c 0
101.4975 230 m 0
 86.8125 128.8475 136.565 39.43 237.9025 39.825 c 0
 332.5175 40.22 415.665 132.365 431.5475 230 c 0
 444.7325 320.7525 400.1275 417.9775 306.815 420.175 c 0
 204.8725 422.3725 118.0775 336.4425 101.4975 230 c 0
EndSplineSet
EndChar

StartChar: Emacron
Encoding: 274 274 264
Width: 517
VWidth: 0
Flags: HMW
LayerCount: 2
Fore
SplineSet
82.8725 0 m 1
 91.33 52.35 l 1
 429.51 52.35 l 1
 420.75 0 l 1
 82.8725 0 l 1
193.6125 647.9525 m 1
 202.07 700 l 1
 539.75 700 l 1
 530.99 647.65 l 1
 193.6125 647.9525 l 1
143.835 357.6825 m 1
 152.7925 409.73 l 1
 470.9725 409.73 l 1
 462.2125 357.38 l 1
 143.835 357.6825 l 1
173.0425 699.5 m 1
 229.115 699.8025 l 1
 108.3125 0 l 1
 54.3575 0 l 1
 173.0425 699.5 l 1
210.6475 795.9775 m 1
 219 845 l 1
 559.4075 845 l 1
 551.2525 795.675 l 1
 210.6475 795.9775 l 1
EndSplineSet
EndChar

StartChar: emacron
Encoding: 275 275 265
Width: 494
VWidth: 0
Flags: HMW
LayerCount: 2
Fore
SplineSet
82.7175 217.4125 m 1
 89.965 261.8975 l 1
 420.645 262.2 l 1
 430.1375 344.105 391.8 422.0025 300.185 423.0025 c 0
 204.545 424.0025 125.9975 346.11 108.405 249.335 c 1
 104.065 230.9875 l 1
 91.6575 132.1125 130.5825 41.1275 231.9575 39.825 c 0
 311.2825 39.0225 364.9425 85.3175 405.8125 133.675 c 1
 444.47 105.6975 l 1
 392.315 43.9375 328.6725 -10.3025 221.475 -9.5 c 0
 95.74 -8.395 36.005 108.87 51.715 230.79 c 0
 54.8075 251.5425 59.9925 271.295 67.4675 290.455 c 0
 103.1525 390.1475 193.1225 470 304.1175 469.5 c 0
 428.0325 468.8025 488.8775 362.685 473.97 241.9 c 0
 472.7725 233.7025 471.18 225.4125 469.18 217.4125 c 1
 82.7175 217.4125 l 1
144.26 530.105 m 1
 152.415 579.1275 l 1
 492.8225 579.1275 l 1
 484.6675 529.8025 l 1
 144.26 530.105 l 1
EndSplineSet
EndChar

StartChar: Ebreve
Encoding: 276 276 266
Width: 517
VWidth: 0
Flags: HMW
LayerCount: 2
Fore
SplineSet
82.8725 0 m 1
 91.33 52.35 l 1
 429.51 52.35 l 1
 420.75 0 l 1
 82.8725 0 l 1
193.6125 647.9525 m 1
 202.07 700 l 1
 539.75 700 l 1
 530.99 647.65 l 1
 193.6125 647.9525 l 1
143.835 357.6825 m 1
 152.7925 409.73 l 1
 470.9725 409.73 l 1
 462.2125 357.38 l 1
 143.835 357.6825 l 1
173.0425 699.5 m 1
 229.115 699.8025 l 1
 108.3125 0 l 1
 54.3575 0 l 1
 173.0425 699.5 l 1
241.945 909.21 m 1
 287.64 908.9075 l 1
 284.3625 862.0825 308.12 813.485 377.285 812.985 c 0
 448.6475 812.485 487.275 862.6875 503.145 908.5125 c 1
 550.05 908.21 l 1
 530.655 835.9075 470.9575 769.5125 373.76 769.71 c 0
 277.9575 769.9075 235.8525 835.9075 241.945 909.21 c 1
EndSplineSet
EndChar

StartChar: ebreve
Encoding: 277 277 267
Width: 494
VWidth: 0
Flags: HMW
LayerCount: 2
Fore
SplineSet
82.7175 217.4125 m 1
 89.965 261.8975 l 1
 420.645 262.2 l 1
 430.1375 344.105 391.8 422.0025 300.185 423.0025 c 0
 204.545 424.0025 125.9975 346.11 108.405 249.335 c 1
 104.065 230.9875 l 1
 91.6575 132.1125 130.582895 41.1465943 231.9575 39.825 c 0
 311.281315 38.9428443 364.9425 85.3175 405.8125 133.675 c 1
 444.47 105.6975 l 1
 392.315 43.9375 328.67645 -10.2438662 221.475 -9.5 c 0
 95.74 -8.395 36.005 108.87 51.715 230.79 c 0
 54.8075 251.5425 59.9925 271.295 67.4675 290.455 c 0
 103.1525 390.1475 193.1225 470 304.1175 469.5 c 0
 428.0325 468.8025 488.8775 362.685 473.97 241.9 c 0
 472.7725 233.7025 471.18 225.4125 469.18 217.4125 c 1
 82.7175 217.4125 l 1
179.3460725 669.606975 m 1
 224.8435725 669.304475 l 1
 222.1585725 622.281975 246.3110725 573.881975 315.4760725 573.381975 c 0
 386.8385725 572.881975 424.7685725 623.084475 440.2435725 669.106975 c 1
 487.1485725 668.606975 l 1
 468.1485725 596.409475 408.8460725 530.106975 311.6485725 530.106975 c 0
 215.8460725 530.106975 173.8460725 596.304475 179.3460725 669.606975 c 1
EndSplineSet
EndChar

StartChar: Edotaccent
Encoding: 278 278 268
Width: 517
VWidth: 0
Flags: HMW
LayerCount: 2
Fore
SplineSet
82.8725 0 m 1
 91.33 52.35 l 1
 429.51 52.35 l 1
 420.75 0 l 1
 82.8725 0 l 1
193.6125 647.9525 m 1
 202.07 700 l 1
 539.75 700 l 1
 530.99 647.65 l 1
 193.6125 647.9525 l 1
143.835 357.6825 m 1
 152.7925 409.73 l 1
 470.9725 409.73 l 1
 462.2125 357.38 l 1
 143.835 357.6825 l 1
173.0425 699.5 m 1
 229.115 699.8025 l 1
 108.3125 0 l 1
 54.3575 0 l 1
 173.0425 699.5 l 1
337.82 807.435 m 0
 339.8325 825.9425 361.4575 845.055 380.2675 844.1475 c 0
 399.6825 843.24 413.665 825.535 411.6525 806.225 c 0
 409.64 787.7175 387.7125 768.605 368.9025 769.5125 c 0
 349.4875 770.42 335.8075 788.125 337.82 807.435 c 0
EndSplineSet
EndChar

StartChar: edotaccent
Encoding: 279 279 269
Width: 494
VWidth: 0
Flags: HMW
LayerCount: 2
Fore
SplineSet
82.7175 217.4125 m 1
 89.965 261.8975 l 1
 420.645 262.2 l 1
 430.1375 344.105 391.8 422.0025 300.185 423.0025 c 0
 204.545 424.0025 125.9975 346.11 108.405 249.335 c 1
 104.065 230.9875 l 1
 91.6575 132.1125 130.582895 41.1465943 231.9575 39.825 c 0
 311.281315 38.9428443 364.9425 85.3175 405.8125 133.675 c 1
 444.47 105.6975 l 1
 392.315 43.9375 328.67645 -10.2438662 221.475 -9.5 c 0
 95.74 -8.395 36.005 108.87 51.715 230.79 c 0
 54.8075 251.5425 59.9925 271.295 67.4675 290.455 c 0
 103.1525 390.1475 193.1225 470 304.1175 469.5 c 0
 428.0325 468.8025 488.8775 362.685 473.97 241.9 c 0
 472.7725 233.7025 471.18 225.4125 469.18 217.4125 c 1
 82.7175 217.4125 l 1
283.135955 568.029475 m 0
 285.148455 586.536975 306.773455 605.649475 325.583455 604.741975 c 0
 344.998455 603.834475 358.980955 586.129475 356.968455 566.819475 c 0
 354.955955 548.311975 333.225955 529.199475 314.415955 530.106975 c 0
 295.000955 531.014475 281.123455 548.719475 283.135955 568.029475 c 0
EndSplineSet
EndChar

StartChar: Eogonek
Encoding: 280 280 270
Width: 517
VWidth: 0
Flags: HMW
LayerCount: 2
Fore
SplineSet
82.8725 0 m 1
 91.33 52.35 l 1
 429.51 52.35 l 1
 420.75 0 l 1
 82.8725 0 l 1
193.6125 647.9525 m 1
 202.07 700 l 1
 539.75 700 l 1
 530.99 647.65 l 1
 193.6125 647.9525 l 1
143.835 357.6825 m 1
 152.7925 409.73 l 1
 470.9725 409.73 l 1
 462.2125 357.38 l 1
 143.835 357.6825 l 1
173.0425 699.5 m 1
 229.115 699.8025 l 1
 108.3125 0 l 1
 54.3575 0 l 1
 173.0425 699.5 l 1
339.3525 -147.1825 m 1
 356.545 -181.3025 l 1
 333.9525 -201 301.2925 -219.395 261.5025 -219.5 c 0
 196.02 -219.9075 155.4025 -183.7525 163.6125 -127.4 c 0
 174.6125 -58.0425 256.9075 -14.425 324.1975 18.575 c 1
 349.6625 0 l 1
 295.855 -25.8575 225.3575 -62.9125 217.1725 -115.8 c 0
 212.9875 -151.12 235.6525 -171.7925 270.065 -173.2 c 0
 298.385 -174.305 321.6925 -160.4475 339.3525 -147.1825 c 1
EndSplineSet
EndChar

StartChar: eogonek
Encoding: 281 281 271
Width: 494
VWidth: 0
Flags: HMW
LayerCount: 2
Fore
SplineSet
82.7175 217.4125 m 1
 89.965 261.8975 l 1
 420.645 262.2 l 1
 430.1375 344.105 391.8 422.0025 300.185 423.0025 c 0
 204.545 424.0025 125.9975 346.11 108.405 249.335 c 1
 104.065 230.9875 l 1
 91.6575 132.1125 130.582895 41.1465943 231.9575 39.825 c 0
 311.281315 38.9428443 364.9425 85.3175 405.8125 133.675 c 1
 444.47 105.6975 l 1
 392.315 43.9375 328.67645 -10.2438662 221.475 -9.5 c 0
 95.74 -8.395 36.005 108.87 51.715 230.79 c 0
 54.8075 251.5425 59.9925 271.295 67.4675 290.455 c 0
 103.1525 390.1475 193.1225 470 304.1175 469.5 c 0
 428.0325 468.8025 488.8775 362.685 473.97 241.9 c 0
 472.7725 233.7025 471.18 225.4125 469.18 217.4125 c 1
 82.7175 217.4125 l 1
238.71 -149.17 m 1
 256.0075 -183.0925 l 1
 233.415 -202.79 201.15 -221.3825 161.36 -221.4875 c 0
 95.8775 -221.895 55.26 -185.74 63.075 -129.3875 c 0
 73.4825 -60.2275 155.185 -18.585 222.08 14.2175 c 1
 247.94 -5.37 l 1
 194.0275 -30.0175 123.925 -64.61 116.135 -117.7875 c 0
 112.345 -153.1075 135.01 -173.78 169.4225 -175.1875 c 0
 197.7425 -176.2925 221.05 -162.6325 238.71 -149.17 c 1
EndSplineSet
EndChar

StartChar: Ecaron
Encoding: 282 282 272
Width: 517
VWidth: 0
Flags: HMW
LayerCount: 2
Fore
SplineSet
82.8725 0 m 1
 91.33 52.35 l 1
 429.51 52.35 l 1
 420.75 0 l 1
 82.8725 0 l 1
193.6125 647.9525 m 1
 202.07 700 l 1
 539.75 700 l 1
 530.99 647.65 l 1
 193.6125 647.9525 l 1
143.835 357.6825 m 1
 152.7925 409.73 l 1
 470.9725 409.73 l 1
 462.2125 357.38 l 1
 143.835 357.6825 l 1
173.0425 699.5 m 1
 229.115 699.8025 l 1
 108.3125 0 l 1
 54.3575 0 l 1
 173.0425 699.5 l 1
375.9525 825.875 m 1
 518.4125 935.8725 l 1
 548.1 907.9075 l 1
 369.5075 769.4075 l 1
 236.2975 909.815 l 1
 272.22 936.2675 l 1
 375.9525 825.875 l 1
EndSplineSet
EndChar

StartChar: ecaron
Encoding: 283 283 273
Width: 494
VWidth: 0
Flags: HMW
LayerCount: 2
Fore
SplineSet
82.7175 217.4125 m 1
 89.965 261.8975 l 1
 420.645 262.2 l 1
 430.1375 344.105 391.8 422.0025 300.185 423.0025 c 0
 204.545 424.0025 125.9975 346.11 108.405 249.335 c 1
 104.065 230.9875 l 1
 91.6575 132.1125 130.582895 41.1465943 231.9575 39.825 c 0
 311.281315 38.9428443 364.9425 85.3175 405.8125 133.675 c 1
 444.47 105.6975 l 1
 392.315 43.9375 328.67645 -10.2438662 221.475 -9.5 c 0
 95.74 -8.395 36.005 108.87 51.715 230.79 c 0
 54.8075 251.5425 59.9925 271.295 67.4675 290.455 c 0
 103.1525 390.1475 193.1225 470 304.1175 469.5 c 0
 428.0325 468.8025 488.8775 362.685 473.97 241.9 c 0
 472.7725 233.7025 471.18 225.4125 469.18 217.4125 c 1
 82.7175 217.4125 l 1
317.0998225 586.271975 m 1
 459.5598225 696.269475 l 1
 489.2473225 668.304475 l 1
 310.6548225 529.804475 l 1
 177.2473225 670.211975 l 1
 213.1698225 696.664475 l 1
 317.0998225 586.271975 l 1
EndSplineSet
EndChar

StartChar: Gcircumflex
Encoding: 284 284 274
Width: 748
VWidth: 0
Flags: HMW
LayerCount: 2
Fore
SplineSet
421.5725 296.725 m 1
 430.9375 349.075 l 1
 733.0075 348.575 l 1
 698.915 164.6175 560.81 -9.0125 354.735 -9.0125 c 0
 155.105 -9.0125 47.0425 161.7775 74.6475 350 c 0
 105.45 548.1175 270.58 709.105 473.315 709.21 c 0
 590.8275 709.5125 678.0875 653.5625 727.6925 558.42 c 1
 683.3125 523.6825 l 1
 645.535 604.5275 569.2025 653.44 467.975 653.1375 c 0
 298.885 653.0325 160.3125 517.51 132.8375 350 c 0
 109.06 192.8725 193.1825 47.3625 360.2725 47.06 c 0
 516.615 46.7575 623.6125 166.5375 666.5575 296.5275 c 1
 421.5725 296.725 l 1
506.3025 879.51 m 1
 363.145 769.9075 l 1
 334.155 797.4775 l 1
 512.7475 935.9775 l 1
 646.155 795.57 l 1
 610.6275 769.5125 l 1
 506.3025 879.51 l 1
EndSplineSet
EndChar

StartChar: gcircumflex
Encoding: 285 285 275
Width: 541
VWidth: 0
Flags: HMW
LayerCount: 2
Fore
SplineSet
16.215 -30 m 1
 67.96 -30.3025 l 1
 60.3925 -111.825 102.4725 -179.4775 196.44 -180.175 c 0
 292.8575 -181.175 375.4675 -101.825 393.245 10 c 1
 470.745 459.8025 l 1
 522.7925 459.8025 l 1
 445.7925 10 l 2
 423.6875 -129.815 318.415 -229.395 192.0075 -229.5 c 0
 68.2475 -229.605 4.5175 -142.445 16.215 -30 c 1
49.1475 230 m 0
 68.6475 363.92 175.895 471 304.5125 469.8025 c 0
 428.4075 468.605 471.105 346.785 455.3025 230 c 0
 437.105 105.5175 350.025 -9 226.5375 -9.5 c 0
 98.2225 -10 31.5425 102.1725 49.1475 230 c 0
101.4975 230 m 0
 86.615 128.65 136.17 39.6275 237.9025 39.825 c 0
 332.1225 40.0225 416.06 131.18 431.745 231.975 c 0
 444.7325 322.7275 398.745 418.175 306.815 420.175 c 0
 204.675 422.3725 118.0775 336.64 101.4975 230 c 0
337.5 640.3 m 1
 194.3425 530.6975 l 1
 165.3525 558.2675 l 1
 343.945 696.7675 l 1
 477.155 556.36 l 1
 441.5225 530.3025 l 1
 337.5 640.3 l 1
EndSplineSet
EndChar

StartChar: Gbreve
Encoding: 286 286 276
Width: 748
VWidth: 0
Flags: HMW
LayerCount: 2
Fore
SplineSet
421.5725 296.725 m 1
 430.9375 349.075 l 1
 733.0075 348.575 l 1
 698.915 164.6175 560.81 -9.0125 354.735 -9.0125 c 0
 155.105 -9.0125 47.0425 161.7775 74.6475 350 c 0
 105.45 548.1175 270.58 709.105 473.315 709.21 c 0
 590.8275 709.5125 678.0875 653.5625 727.6925 558.42 c 1
 683.3125 523.6825 l 1
 645.535 604.5275 569.2025 653.44 467.975 653.1375 c 0
 298.885 653.0325 160.3125 517.51 132.8375 350 c 0
 109.06 192.8725 193.1825 47.3625 360.2725 47.06 c 0
 516.615 46.7575 623.6125 166.5375 666.5575 296.5275 c 1
 421.5725 296.725 l 1
355.7225 909.21 m 1
 401.4175 908.9075 l 1
 398.14 862.0825 421.8975 813.485 491.0625 812.985 c 0
 562.425 812.485 601.0525 862.6875 616.9225 908.5125 c 1
 663.525 908.21 l 1
 644.13 835.9075 584.4325 769.5125 487.235 769.71 c 0
 391.4325 769.9075 349.63 835.9075 355.7225 909.21 c 1
EndSplineSet
EndChar

StartChar: gbreve
Encoding: 287 287 277
Width: 541
VWidth: 0
Flags: HMW
LayerCount: 2
Fore
SplineSet
16.215 -30 m 1
 67.96 -30.3025 l 1
 60.3925 -111.825 102.4725 -179.4775 196.44 -180.175 c 0
 292.8575 -181.175 375.4675 -101.825 393.245 10 c 1
 470.745 459.8025 l 1
 522.7925 459.8025 l 1
 445.7925 10 l 2
 423.6875 -129.815 318.415 -229.395 192.0075 -229.5 c 0
 68.2475 -229.605 4.5175 -142.445 16.215 -30 c 1
49.1475 230 m 0
 68.6475 363.92 175.895 471 304.5125 469.8025 c 0
 428.4075 468.605 471.105 346.785 455.3025 230 c 0
 437.105 105.5175 350.025 -9 226.5375 -9.5 c 0
 98.2225 -10 31.5425 102.1725 49.1475 230 c 0
101.4975 230 m 0
 86.615 128.65 136.17 39.6275 237.9025 39.825 c 0
 332.1225 40.0225 416.06 131.18 431.745 231.975 c 0
 444.7325 322.7275 398.745 418.175 306.815 420.175 c 0
 204.675 422.3725 118.0775 336.64 101.4975 230 c 0
186.92 670 m 1
 232.4175 669.6975 l 1
 229.14 622.8725 252.8975 574.275 322.0625 573.775 c 0
 393.425 573.275 431.9475 623.4775 447.8175 669.3025 c 1
 494.7225 669 l 1
 475.3275 597 415.4325 530.3025 318.235 530.5 c 0
 222.4325 530.6975 180.8275 596.6975 186.92 670 c 1
EndSplineSet
EndChar

StartChar: Gdotaccent
Encoding: 288 288 278
Width: 748
VWidth: 0
Flags: HMW
LayerCount: 2
Fore
SplineSet
421.5725 296.725 m 1
 430.9375 349.075 l 1
 733.0075 348.575 l 1
 698.915 164.6175 560.81 -9.0125 354.735 -9.0125 c 0
 155.105 -9.0125 47.0425 161.7775 74.6475 350 c 0
 105.45 548.1175 270.58 709.105 473.315 709.21 c 0
 590.8275 709.5125 678.0875 653.5625 727.6925 558.42 c 1
 683.3125 523.6825 l 1
 645.535 604.5275 569.2025 653.44 467.975 653.1375 c 0
 298.885 653.0325 160.3125 517.51 132.8375 350 c 0
 109.06 192.8725 193.1825 47.3625 360.2725 47.06 c 0
 516.615 46.7575 623.6125 166.5375 666.5575 296.5275 c 1
 421.5725 296.725 l 1
455.0475 807.435 m 0
 457.06 825.9425 478.685 845.055 497.495 844.1475 c 0
 516.91 843.24 530.8925 825.535 528.88 806.225 c 0
 526.8675 787.7175 505.2425 768.605 486.4325 769.5125 c 0
 467.0175 770.42 453.035 788.125 455.0475 807.435 c 0
EndSplineSet
EndChar

StartChar: gdotaccent
Encoding: 289 289 279
Width: 541
VWidth: 0
Flags: HMW
LayerCount: 2
Fore
SplineSet
16.215 -30 m 1
 67.96 -30.3025 l 1
 60.3925 -111.825 102.4725 -179.4775 196.44 -180.175 c 0
 292.8575 -181.175 375.4675 -101.825 393.245 10 c 1
 470.745 459.8025 l 1
 522.7925 459.8025 l 1
 445.7925 10 l 2
 423.6875 -129.815 318.415 -229.395 192.0075 -229.5 c 0
 68.2475 -229.605 4.5175 -142.445 16.215 -30 c 1
49.1475 230 m 0
 68.6475 363.92 175.895 471 304.5125 469.8025 c 0
 428.4075 468.605 471.105 346.785 455.3025 230 c 0
 437.105 105.5175 350.025 -9 226.5375 -9.5 c 0
 98.2225 -10 31.5425 102.1725 49.1475 230 c 0
101.4975 230 m 0
 86.615 128.65 136.17 39.6275 237.9025 39.825 c 0
 332.1225 40.0225 416.06 131.18 431.745 231.975 c 0
 444.7325 322.7275 398.745 418.175 306.815 420.175 c 0
 204.675 422.3725 118.0775 336.64 101.4975 230 c 0
302.2775 592.425 m 0
 304.29 610.9325 325.915 630.045 344.725 629.1375 c 0
 364.14 628.23 377.82 610.525 375.8075 591.215 c 0
 373.795 572.7075 352.17 553.595 333.36 554.5025 c 0
 313.945 555.41 300.265 573.115 302.2775 592.425 c 0
EndSplineSet
EndChar

StartChar: uni0122
Encoding: 290 290 280
Width: 748
VWidth: 0
Flags: HMW
LayerCount: 2
Fore
SplineSet
421.5725 296.725 m 1
 430.9375 349.075 l 1
 733.0075 348.575 l 1
 698.915 164.6175 560.81 -9.0125 354.735 -9.0125 c 0
 155.105 -9.0125 47.0425 161.7775 74.6475 350 c 0
 105.45 548.1175 270.58 709.105 473.315 709.21 c 0
 590.8275 709.5125 678.0875 653.5625 727.6925 558.42 c 1
 683.3125 523.6825 l 1
 645.535 604.5275 569.2025 653.44 467.975 653.1375 c 0
 298.885 653.0325 160.3125 517.51 132.8375 350 c 0
 109.06 192.8725 193.1825 47.3625 360.2725 47.06 c 0
 516.615 46.7575 623.6125 166.5375 666.5575 296.5275 c 1
 421.5725 296.725 l 1
361.8 -70.21 m 1
 412.23 -90.94 l 1
 261.6375 -338.335 l 1
 225.9925 -324.84 l 1
 361.8 -70.21 l 1
EndSplineSet
EndChar

StartChar: Hcircumflex
Encoding: 292 292 281
Width: 666
VWidth: 0
Flags: HMW
LayerCount: 2
Fore
SplineSet
143.835 354.9175 m 1
 152.2925 406.965 l 1
 611.4975 406.965 l 1
 602.7375 354.615 l 1
 143.835 354.9175 l 1
623.71 699.5 m 1
 680.085 699.8025 l 1
 558.98 0 l 1
 505.025 0 l 1
 623.71 699.5 l 1
173.0425 699.5 m 1
 229.115 699.8025 l 1
 108.3125 0 l 1
 54.3575 0 l 1
 173.0425 699.5 l 1
459.2425 879.51 m 1
 315.9925 769.9075 l 1
 287.095 797.4775 l 1
 465.6875 935.9775 l 1
 599.095 795.57 l 1
 563.1725 769.5125 l 1
 459.2425 879.51 l 1
EndSplineSet
EndChar

StartChar: hcircumflex
Encoding: 293 293 282
Width: 489
VWidth: 0
Flags: HMW
LayerCount: 2
Fore
SplineSet
234.695 779.8025 m 1
 100.195 0 l 1
 48.45 0 l 1
 182.6475 779.8025 l 1
 234.695 779.8025 l 1
386.5175 295.8 m 2
 394.8075 362.25 378.6225 418.8725 304.8275 420.175 c 0
 224.0575 421.4775 165.775 352.3625 147.9975 281 c 1
 124.2425 281 l 1
 144.44 379.605 219.5575 469.6975 321.0575 469.5 c 0
 417.8975 469.3025 449.9725 393.8575 438.565 301.85 c 1
 386.195 0 l 1
 335.555 0 l 1
 386.5175 295.8 l 2
246.1925 950.3 m 1
 102.64 840.6975 l 1
 74.045 868.2675 l 1
 252.6375 1006.7675 l 1
 386.045 866.36 l 1
 350.1225 840.3025 l 1
 246.1925 950.3 l 1
EndSplineSet
EndChar

StartChar: Itilde
Encoding: 296 296 283
Width: 212
VWidth: 0
Flags: HMW
LayerCount: 2
Fore
SplineSet
171.265 699.5 m 1
 226.9425 699.8025 l 1
 105.9425 0 l 1
 52.3825 0 l 1
 171.265 699.5 l 1
77.0975 817.585 m 1
 92.6475 854.3575 127.7725 889.4075 173.31 888.5 c 0
 223.5325 887.895 239.1125 841.1975 285.81 842.5 c 0
 311.4825 843.3025 330.6 864.605 349.1125 889.5 c 1
 376.565 861.695 l 1
 355.3425 829.4725 321.4525 796.99 279.1675 798.2 c 0
 232.47 799.1075 211.6675 844.6075 169.6675 844.2 c 0
 133.575 843.7925 117.89 814.7675 109.39 794.2 c 1
 77.0975 817.585 l 1
EndSplineSet
EndChar

StartChar: itilde
Encoding: 297 297 284
Width: 225
VWidth: 0
Flags: HMW
LayerCount: 2
Fore
SplineSet
137.9875 459.5 m 1
 190.745 459.8025 l 1
 110.64 0 l 1
 60.105 0 l 1
 137.9875 459.5 l 1
43.0975 577.585 m 1
 58.6475 614.3575 93.7725 649.4075 139.31 648.5 c 0
 189.5325 647.895 204.915 601.1975 251.6125 602.5 c 0
 277.285 603.3025 296.6 624.605 315.1125 649.5 c 1
 342.3675 621.695 l 1
 321.145 589.4725 287.15 556.99 244.865 558.2 c 0
 198.1675 559.1075 177.6675 604.6075 135.6675 604.2 c 0
 99.575 603.7925 83.89 574.7675 75.39 554.2 c 1
 43.0975 577.585 l 1
EndSplineSet
EndChar

StartChar: Imacron
Encoding: 298 298 285
Width: 212
VWidth: 0
Flags: HMW
LayerCount: 2
Fore
SplineSet
171.265 699.5 m 1
 226.9425 699.8025 l 1
 105.9425 0 l 1
 52.3825 0 l 1
 171.265 699.5 l 1
58.345 795.9775 m 1
 66.5 845 l 1
 407.4075 845 l 1
 398.7525 795.675 l 1
 58.345 795.9775 l 1
EndSplineSet
EndChar

StartChar: imacron
Encoding: 299 299 286
Width: 225
VWidth: 0
Flags: HMW
LayerCount: 2
Fore
SplineSet
137.9875 459.5 m 1
 190.745 459.8025 l 1
 110.64 0 l 1
 60.105 0 l 1
 137.9875 459.5 l 1
24.1475 555.9775 m 1
 32.5 605 l 1
 372.9075 605 l 1
 364.7525 555.675 l 1
 24.1475 555.9775 l 1
EndSplineSet
EndChar

StartChar: Ibreve
Encoding: 300 300 287
Width: 212
VWidth: 0
Flags: HMW
LayerCount: 2
Fore
SplineSet
171.265 699.5 m 1
 226.9425 699.8025 l 1
 105.9425 0 l 1
 52.3825 0 l 1
 171.265 699.5 l 1
80.465 910 m 1
 125.9625 909.6975 l 1
 122.685 862.8725 146.4425 814.275 215.6075 813.775 c 0
 286.97 813.275 325.795 863.4775 341.665 909.3025 c 1
 388.2675 909 l 1
 368.8725 837 309.28 770.3025 212.0825 770.5 c 0
 116.28 770.6975 74.3725 836.6975 80.465 910 c 1
EndSplineSet
EndChar

StartChar: ibreve
Encoding: 301 301 288
Width: 225
VWidth: 0
Flags: HMW
LayerCount: 2
Fore
SplineSet
137.9875 459.5 m 1
 190.745 459.8025 l 1
 110.64 0 l 1
 60.105 0 l 1
 137.9875 459.5 l 1
45.965 670 m 1
 91.66 669.6975 l 1
 88.3825 622.8725 112.14 574.275 181.305 573.775 c 0
 252.6675 573.275 291.295 623.4775 307.165 669.3025 c 1
 353.7675 669 l 1
 334.3725 597 274.9775 530.3025 177.78 530.5 c 0
 81.9775 530.6975 39.8725 596.6975 45.965 670 c 1
EndSplineSet
EndChar

StartChar: Iogonek
Encoding: 302 302 289
Width: 212
VWidth: 0
Flags: HMW
LayerCount: 2
Fore
SplineSet
171.265 699.5 m 1
 226.9425 699.8025 l 1
 105.9425 0 l 1
 52.3825 0 l 1
 171.265 699.5 l 1
96.33 -147.1825 m 1
 113.825 -181.3025 l 1
 91.2325 -201 58.5725 -219.395 18.7825 -219.5 c 0
 -46.7 -219.9075 -87.3175 -183.7525 -79.1075 -127.4 c 0
 -68.1075 -58.0425 14.1875 -14.425 81.4775 18.575 c 1
 106.9425 0 l 1
 53.135 -25.8575 -17.8625 -62.9125 -26.0475 -115.8 c 0
 -30.2325 -151.12 -7.37 -171.7925 27.0425 -173.2 c 0
 55.3625 -174.305 78.67 -160.4475 96.33 -147.1825 c 1
EndSplineSet
EndChar

StartChar: iogonek
Encoding: 303 303 290
Width: 225
VWidth: 0
Flags: HMW
LayerCount: 2
Fore
SplineSet
163.11 668.38 m 0
 165.1225 686.69 185.9575 705.605 204.965 704.6975 c 0
 224.5775 703.79 238.165 686.2825 236.1525 667.17 c 0
 234.14 648.86 213.1075 629.945 194.1 630.8525 c 0
 174.4875 631.76 161.0975 649.2675 163.11 668.38 c 0
137.9875 459.5 m 1
 190.745 459.8025 l 1
 110.64 0 l 1
 60.105 0 l 1
 137.9875 459.5 l 1
101.33 -147.1825 m 1
 118.825 -181.3025 l 1
 96.2325 -201 63.5725 -219.395 23.7825 -219.5 c 0
 -41.7 -219.9075 -82.62 -183.7525 -74.41 -127.4 c 0
 -63.41 -58.0425 19.1875 -14.2275 86.4775 18.575 c 1
 111.64 0 l 1
 57.8325 -25.8575 -12.8625 -62.9125 -21.0475 -115.8 c 0
 -25.2325 -151.12 -2.37 -171.7925 32.0425 -173.2 c 0
 60.3625 -174.305 83.67 -160.4475 101.33 -147.1825 c 1
EndSplineSet
EndChar

StartChar: Idotaccent
Encoding: 304 304 291
Width: 212
VWidth: 0
Flags: HMW
LayerCount: 2
Fore
SplineSet
171.265 699.5 m 1
 226.9425 699.8025 l 1
 105.9425 0 l 1
 52.3825 0 l 1
 171.265 699.5 l 1
180.1725 810.2 m 0
 182.185 828.7075 204.1125 847.82 222.9225 846.9125 c 0
 242.3375 846.005 256.0175 828.3 254.005 808.99 c 0
 251.9925 790.4825 230.3675 771.37 211.5575 772.2775 c 0
 192.1425 773.185 178.16 790.89 180.1725 810.2 c 0
EndSplineSet
EndChar

StartChar: uni0136
Encoding: 310 310 292
Width: 505
VWidth: 0
Flags: HMW
LayerCount: 2
Fore
SplineSet
171.265 699.5 m 1
 227.14 699.8025 l 1
 106.3375 0 l 1
 52.3825 0 l 1
 171.265 699.5 l 1
505.7425 699.3025 m 1
 576.7975 699.3025 l 1
 219.7425 370.5925 l 1
 469.18 0 l 1
 402.965 0 l 1
 153.8175 372.5 l 1
 505.7425 699.3025 l 1
270.26 -61 m 1
 320.69 -81.73 l 1
 170.295 -329.125 l 1
 134.65 -315.63 l 1
 270.26 -61 l 1
EndSplineSet
EndChar

StartChar: uni0137
Encoding: 311 311 293
Width: 400
VWidth: 0
Flags: HMW
LayerCount: 2
Fore
SplineSet
177.0425 779.5 m 1
 229.9975 779.8025 l 1
 95.195 0 l 1
 44.555 0 l 1
 177.0425 779.5 l 1
363.45 459.3025 m 1
 431.7825 459.3025 l 1
 186.7725 268.79 l 1
 369.27 0 l 1
 306.765 0 l 1
 123.0575 271.71 l 1
 363.45 459.3025 l 1
216.5425 -61 m 1
 266.775 -81.73 l 1
 116.38 -329.125 l 1
 80.735 -315.63 l 1
 216.5425 -61 l 1
EndSplineSet
EndChar

StartChar: Lacute
Encoding: 313 313 294
Width: 428
VWidth: 0
Flags: HMW
LayerCount: 2
Fore
SplineSet
173.6475 699.8025 m 1
 228.72 699.8025 l 1
 117.48 52.35 l 1
 397.91 52.35 l 1
 388.8475 0 l 1
 53.6475 0 l 1
 173.6475 699.8025 l 1
523.22 920.0675 m 1
 325.01 770.21 l 1
 298.7175 790.6375 l 1
 479.0125 948.6375 l 1
 523.22 920.0675 l 1
EndSplineSet
EndChar

StartChar: lacute
Encoding: 314 314 295
Width: 203
VWidth: 0
Flags: HMW
LayerCount: 2
Fore
SplineSet
182.0425 779.5 m 1
 234.695 779.8025 l 1
 99.8925 0 l 1
 49.3575 0 l 1
 182.0425 779.5 l 1
388.9925 990.8575 m 1
 190.7825 841 l 1
 164.49 861.4275 l 1
 344.4825 1019.4275 l 1
 388.9925 990.8575 l 1
EndSplineSet
EndChar

StartChar: uni013B
Encoding: 315 315 296
Width: 428
VWidth: 0
Flags: HMW
LayerCount: 2
Fore
SplineSet
173.6475 699.8025 m 1
 228.72 699.8025 l 1
 117.48 52.35 l 1
 397.91 52.35 l 1
 388.8475 0 l 1
 53.6475 0 l 1
 173.6475 699.8025 l 1
215.2225 -61 m 1
 265.35 -81.73 l 1
 115.2575 -329.125 l 1
 79.31 -315.63 l 1
 215.2225 -61 l 1
EndSplineSet
EndChar

StartChar: uni013C
Encoding: 316 316 297
Width: 203
VWidth: 0
Flags: HMW
LayerCount: 2
Fore
SplineSet
182.0425 779.5 m 1
 234.695 779.8025 l 1
 99.8925 0 l 1
 49.3575 0 l 1
 182.0425 779.5 l 1
76.395 -61 m 1
 126.6275 -81.73 l 1
 -23.7675 -329.125 l 1
 -59.4125 -315.63 l 1
 76.395 -61 l 1
EndSplineSet
EndChar

StartChar: Lcaron
Encoding: 317 317 298
Width: 428
VWidth: 0
Flags: HMW
LayerCount: 2
Fore
SplineSet
173.6475 699.8025 m 1
 228.72 699.8025 l 1
 117.48 52.35 l 1
 397.91 52.35 l 1
 388.8475 0 l 1
 53.6475 0 l 1
 173.6475 699.8025 l 1
417.8075 708.21 m 1
 467.935 687.48 l 1
 317.8425 440.085 l 1
 282.1975 453.58 l 1
 417.8075 708.21 l 1
EndSplineSet
EndChar

StartChar: lcaron
Encoding: 318 318 299
Width: 223
VWidth: 0
Flags: HMW
LayerCount: 2
Fore
SplineSet
182.0425 779.5 m 1
 234.695 779.8025 l 1
 99.8925 0 l 1
 49.3575 0 l 1
 182.0425 779.5 l 1
398.77 772.68 m 1
 448.8975 751.95 l 1
 298.6075 504.555 l 1
 262.66 518.05 l 1
 398.77 772.68 l 1
EndSplineSet
EndChar

StartChar: Ldot
Encoding: 319 319 300
Width: 428
VWidth: 0
Flags: HMW
LayerCount: 2
Fore
SplineSet
173.6475 699.8025 m 1
 228.72 699.8025 l 1
 117.48 52.35 l 1
 397.91 52.35 l 1
 388.8475 0 l 1
 53.6475 0 l 1
 173.6475 699.8025 l 1
296.03 415.21 m 0
 298.0425 433.7175 319.6675 452.83 338.4775 451.9225 c 0
 357.8925 451.015 371.875 433.31 369.8625 414 c 0
 367.85 395.4925 346.225 376.38 327.415 377.2875 c 0
 308 378.195 294.0175 395.9 296.03 415.21 c 0
EndSplineSet
EndChar

StartChar: ldot
Encoding: 320 320 301
Width: 359
VWidth: 0
Flags: HMW
LayerCount: 2
Fore
SplineSet
182.0425 779.5 m 1
 234.695 779.8025 l 1
 99.8925 0 l 1
 49.3575 0 l 1
 182.0425 779.5 l 1
256.5425 408.1 m 0
 258.555 426.6075 280.18 445.72 298.99 444.8125 c 0
 318.405 443.905 332.085 426.2 330.0725 406.89 c 0
 328.06 388.3825 306.435 369.27 287.625 370.1775 c 0
 268.21 371.085 254.53 388.79 256.5425 408.1 c 0
EndSplineSet
EndChar

StartChar: eth
Encoding: 240 240 302
Width: 542
VWidth: 0
Flags: HMW
LayerCount: 2
Fore
SplineSet
454.955 226.05 m 0
 469.8375 318.6475 417.5425 407.035 312.0325 407.14 c 0
 213.62 407.245 127.64 323.45 111.455 226.05 c 0
 96.375 130.2925 146.51 41.535 249.7425 41.035 c 0
 355.265 40.535 438.5725 126.28 454.955 226.05 c 0
314.99 700 m 1
 484.645 376.58 l 2
 505.3425 333.29 515.2 279.0375 507.305 226.05 c 0
 487.3975 94.4075 380.125 -9.6975 245.0075 -9.5 c 0
 111.2975 -9.3025 40.605 100 59.105 226.55 c 0
 77.5 344.4825 178.6975 448.2975 297.105 448.6 c 0
 349.875 448.6 389.46 429.8975 420.305 390.8 c 1
 417.28 388.5775 l 1
 249.04 700 l 1
 314.99 700 l 1
211.8025 542.0275 m 1
 218.6425 584.6975 l 1
 499.095 584.6975 l 1
 492.15 542.0275 l 1
 211.8025 542.0275 l 1
EndSplineSet
EndChar

StartChar: racute
Encoding: 341 341 303
Width: 311
VWidth: 0
Flags: HMW
LayerCount: 2
Fore
SplineSet
179.8925 459.8025 m 1
 100.195 0 l 1
 48.1475 0 l 1
 128.1475 459.8025 l 1
 179.8925 459.8025 l 1
318.47 399.1625 m 1
 300.9575 411.4775 285.47 419.9775 264.05 420.4775 c 0
 193.3725 422.07 160.5775 347.375 147.9975 280.8025 c 1
 123.94 280.8025 l 1
 140.045 372.71 196.2375 470.2775 280.885 469.5 c 0
 309.04 469.605 331.8675 458.8025 352.8 440.845 c 1
 318.47 399.1625 l 1
408.39 680.8575 m 1
 210.3775 530.6975 l 1
 184.795 551.4275 l 1
 364.7875 709.4275 l 1
 408.39 680.8575 l 1
EndSplineSet
EndChar

StartChar: rcaron
Encoding: 345 345 304
Width: 311
VWidth: 0
Flags: HMW
LayerCount: 2
Fore
SplineSet
179.8925 459.8025 m 1
 100.195 0 l 1
 48.1475 0 l 1
 128.1475 459.8025 l 1
 179.8925 459.8025 l 1
318.47 399.1625 m 1
 300.9575 411.4775 285.47 419.9775 264.05 420.4775 c 0
 193.3725 422.07 160.5775 347.375 147.9975 280.8025 c 1
 123.94 280.8025 l 1
 140.045 372.71 196.2375 470.2775 280.885 469.5 c 0
 309.04 469.605 331.8675 458.8025 352.8 440.845 c 1
 318.47 399.1625 l 1
260.9775 586.665 m 1
 403.74 696.6625 l 1
 433.125 668.6975 l 1
 254.5325 530.1975 l 1
 121.125 670.605 l 1
 157.35 697.0575 l 1
 260.9775 586.665 l 1
EndSplineSet
EndChar

StartChar: Rcaron
Encoding: 344 344 305
Width: 507
VWidth: 0
Flags: HMW
LayerCount: 2
Fore
SplineSet
226.3525 333.94 m 1
 286.2525 333.94 l 1
 461.0625 0 l 1
 396.0325 0 l 1
 226.3525 333.94 l 1
173.0425 699.5 m 1
 229.115 699.8025 l 1
 108.3125 0 l 1
 54.3575 0 l 1
 173.0425 699.5 l 1
192.81 650.28 m 1
 201.7675 700 l 1
 327.6025 700 l 1
 453.4175 697.6975 545.01 620.715 525.615 496.4125 c 0
 505.72 369.8075 392.405 295.7325 261.9975 293.43 c 1
 131.835 293.43 l 1
 140.7925 342.755 l 1
 266.43 342.755 l 1
 368.44 345.0575 453.6725 398.7975 470.6475 496.715 c 0
 486.82 592.5275 420.6925 647.4775 322.9725 649.9775 c 1
 192.81 650.28 l 1
348.885 825.875 m 1
 491.6475 935.8725 l 1
 521.0325 907.9075 l 1
 342.44 769.4075 l 1
 209.23 909.815 l 1
 245.2575 936.2675 l 1
 348.885 825.875 l 1
EndSplineSet
EndChar

